<?xml version="1.0" standalone="no"?>
<!DOCTYPE svg PUBLIC "-//W3C//DTD SVG 1.1//EN" "http://www.w3.org/Graphics/SVG/1.1/DTD/svg11.dtd" >
<svg xmlns="http://www.w3.org/2000/svg" xmlns:xlink="http://www.w3.org/1999/xlink" version="1.1">
<metadata>
Created by FontForge 20200427 at Sun Nov  2 07:31:14 2014
 By www
Copyright (c) 2010 by Jeremy Dooley. All rights reserved.
</metadata>
<defs>
<font id="EigerdalsW00-Heavy" horiz-adv-x="612" >
  <font-face 
    font-family="Eigerdals Heavy"
    font-weight="900"
    font-stretch="normal"
    units-per-em="1000"
    panose-1="2 0 5 5 0 0 0 2 0 4"
    ascent="800"
    descent="-200"
    x-height="527"
    cap-height="720"
    bbox="-180.571 -356 1671 1068"
    underline-thickness="50"
    underline-position="-175"
    unicode-range="U+0020-FB06"
  />
<missing-glyph horiz-adv-x="278" 
 />
    <glyph glyph-name="uniE03D" unicode="ffj" horiz-adv-x="1089" 
d="M479 365h-174v-253q0 -41 -3 -63.5t-14.5 -33t-34.5 -13t-63 -2.5q-29 0 -46 2.5t-25.5 13.5t-11 33.5t-2.5 62.5v253h-36q-9 0 -18.5 1.5t-18 7.5t-14 18t-5.5 32v37q0 22 5 35.5t13 20t18 8.5t20 2h36v12q0 120 56.5 175.5t181.5 55.5q24 0 53 -3.5t59 -13.5
q15 -5 23.5 -9.5t12 -10.5t3 -15t-3.5 -22l-14 -74q-6 -32 -17 -38t-40 0q-18 5 -31.5 5.5t-25.5 0.5q-20 0 -31 -4.5t-17 -11t-7.5 -14.5t-1.5 -14v-19h174v12q0 120 56.5 175.5t181.5 55.5q24 0 53 -3.5t59 -13.5q15 -5 23.5 -9.5t12 -10.5t3 -15t-3.5 -22l-14 -74
q-6 -32 -17 -38t-40 0q-18 5 -31.5 5.5t-25.5 0.5q-20 0 -31 -4.5t-17 -11t-7.5 -14.5t-1.5 -14v-19h282q34 0 53 -2t28 -12t11 -31t2 -59q0 -62 -2 -127.5t-2 -128.5v-71q0 -103 -16.5 -166t-45 -97t-66 -45t-80.5 -11q-32 0 -66 7.5t-57 17.5q-19 10 -28 22t0 38l20 56
q8 26 21 32.5t28 1.5q9 -3 16.5 -5t16.5 -2q37 0 47 36t10 115v71q0 15 -0.5 37.5t-1.5 49.5t-1.5 55.5t-1.5 55.5h-167v-253q0 -41 -3 -63.5t-14.5 -33t-34.5 -13t-63 -2.5q-29 0 -46 2.5t-25.5 13.5t-11 33.5t-2.5 62.5v253z" />
    <glyph glyph-name="uniE040" unicode="fj" horiz-adv-x="753" 
d="M142 365h-73q-9 0 -18.5 1.5t-18 7.5t-14 18t-5.5 32v37q0 22 5 35.5t13 20t18 8.5t20 2h73v12q0 120 56.5 175.5t181.5 55.5q24 0 53 -3.5t59 -13.5q15 -5 23.5 -9.5t12 -10.5t3 -15t-3.5 -22l-14 -74q-6 -32 -17 -38t-40 0q-18 5 -31.5 5.5t-25.5 0.5q-20 0 -31 -4.5
t-17 -11t-7.5 -14.5t-1.5 -14v-19h282q34 0 53 -2t28 -12t11 -31t2 -59q0 -62 -2 -127.5t-2 -128.5v-71q0 -103 -16.5 -166t-45 -97t-66 -45t-80.5 -11q-32 0 -66 7.5t-57 17.5q-19 10 -28 22t0 38l20 56q8 26 21 32.5t28 1.5q9 -3 16.5 -5t16.5 -2q37 0 47 36t10 115v71
q0 15 -0.5 37.5t-1.5 49.5t-1.5 55.5t-1.5 55.5h-167v-253q0 -41 -3 -63.5t-14.5 -33t-34.5 -13t-63 -2.5q-29 0 -46 2.5t-25.5 13.5t-11 33.5t-2.5 62.5v253z" />
    <glyph glyph-name="uniFB00" unicode="ff" horiz-adv-x="833" 
d="M305 365v-253q0 -41 -3 -63.5t-14.5 -33t-34.5 -13t-63 -2.5q-29 0 -46 2.5t-25.5 13.5t-11 33.5t-2.5 62.5v253h-36q-9 0 -18.5 1.5t-18 7.5t-14 18t-5.5 32v37q0 22 5 35.5t13 20t18 8.5t20 2h36v12q0 120 56.5 175.5t181.5 55.5q24 0 53 -3.5t59 -13.5
q15 -5 23.5 -9.5t12 -10.5t3 -15t-3.5 -22l-14 -74q-6 -32 -17 -38t-40 0q-18 5 -31.5 5.5t-25.5 0.5q-20 0 -31 -4.5t-17 -11t-7.5 -14.5t-1.5 -14v-19h174v12q0 120 56.5 175.5t181.5 55.5q24 0 53 -3.5t59 -13.5q15 -5 23.5 -9.5t12 -10.5t3 -15t-3.5 -22l-14 -74
q-6 -32 -17 -38t-40 0q-18 5 -31.5 5.5t-25.5 0.5q-20 0 -31 -4.5t-17 -11t-7.5 -14.5t-1.5 -14v-19h87q10 0 20 -2t18 -8.5t13 -20t5 -35.5v-37q0 -20 -5.5 -32t-14 -18t-18 -7.5t-18.5 -1.5h-87v-253q0 -41 -3 -63.5t-14.5 -33t-34.5 -13t-63 -2.5q-29 0 -46 2.5
t-25.5 13.5t-11 33.5t-2.5 62.5v253h-174z" />
    <glyph glyph-name="uniFB01" unicode="fi" horiz-adv-x="685" 
d="M446 167q0 15 -0.5 37.5t-1.5 49.5t-1.5 55.5t-1.5 55.5h-136v-253q0 -41 -3 -63.5t-14.5 -33t-34.5 -13t-63 -2.5q-29 0 -46 2.5t-25.5 13.5t-11 33.5t-2.5 62.5v253h-36q-9 0 -18.5 1.5t-18 7.5t-14 18t-5.5 32v37q0 22 5 35.5t13 20t18 8.5t20 2h36v12
q0 120 63.5 175.5t204.5 55.5q33 0 71.5 -3.5t80.5 -13.5q15 -5 23.5 -9.5t12 -10.5t3 -15t-3.5 -22l-14 -74q-6 -32 -17 -38t-40 0q-30 5 -53 5.5t-44 0.5q-30 0 -47 -4.5t-26 -11t-11.5 -14.5t-2.5 -14v-19h251q34 0 53 -2t28 -12t11 -31t2 -59q0 -62 -2 -127.5t-2 -128.5
v-55q0 -41 -3 -63.5t-14.5 -33t-34.5 -13t-63 -2.5q-29 0 -46 2.5t-25.5 13.5t-11 33.5t-2.5 62.5v55v0z" />
    <glyph glyph-name="uniFB02" unicode="fl" horiz-adv-x="695" 
d="M456 394q0 14 -0.5 36.5t-1.5 48.5t-1.5 54.5t-1.5 55.5q-14 1 -26 1h-23q-30 0 -47 -4.5t-26 -11t-11.5 -14.5t-2.5 -14v-20q45 -2 73 -6q46 -6 40 -49l-9 -69q-2 -18 -6.5 -28t-11.5 -14.5t-17 -5t-24 -0.5l-45 2v-244q0 -41 -3 -63.5t-14.5 -33t-34.5 -13t-63 -2.5
q-29 0 -46 2.5t-25.5 13.5t-11 33.5t-2.5 62.5v243q-10 0 -18 -0.5t-15 -0.5q-14 0 -24 0.5t-17 5t-11.5 14.5t-6.5 28l-9 69q-6 43 40 49q12 2 27.5 3t33.5 2v14q0 120 63.5 175.5t204.5 55.5q32 0 69 -3.5t79 -12.5h35q34 0 53 -2t28 -12t11 -31t2 -59q0 -62 -2 -127.5
t-2 -128.5v-282q0 -41 -3 -63.5t-14.5 -33t-34.5 -13t-63 -2.5q-29 0 -46 2.5t-25.5 13.5t-11 33.5t-2.5 62.5v282v0z" />
    <glyph glyph-name="uniFB03" unicode="ffi" horiz-adv-x="1089" 
d="M305 365v-253q0 -41 -3 -63.5t-14.5 -33t-34.5 -13t-63 -2.5q-29 0 -46 2.5t-25.5 13.5t-11 33.5t-2.5 62.5v253h-36q-9 0 -18.5 1.5t-18 7.5t-14 18t-5.5 32v37q0 22 5 35.5t13 20t18 8.5t20 2h36v12q0 120 56.5 175.5t181.5 55.5q24 0 53 -3.5t59 -13.5
q15 -5 23.5 -9.5t12 -10.5t3 -15t-3.5 -22l-14 -74q-6 -32 -17 -38t-40 0q-18 5 -31.5 5.5t-25.5 0.5q-20 0 -31 -4.5t-17 -11t-7.5 -14.5t-1.5 -14v-19h174v12q0 120 56.5 175.5t181.5 55.5q24 0 53 -3.5t59 -13.5q15 -5 23.5 -9.5t12 -10.5t3 -15t-3.5 -22l-14 -74
q-6 -32 -17 -38t-40 0q-18 5 -31.5 5.5t-25.5 0.5q-20 0 -31 -4.5t-17 -11t-7.5 -14.5t-1.5 -14v-19h319q10 0 20 -2t18 -8.5t13 -20t5 -35.5v-45q-1 -59 -2.5 -125.5t-1.5 -123.5v-55q0 -41 -3 -63.5t-14.5 -33t-34.5 -13t-63 -2.5q-29 0 -46 2.5t-25.5 13.5t-11 33.5
t-2.5 62.5v55q0 15 -0.5 37.5t-1.5 49.5t-1.5 55.5t-1.5 55.5h-166v-253q0 -41 -3 -63.5t-14.5 -33t-34.5 -13t-63 -2.5q-29 0 -46 2.5t-25.5 13.5t-11 33.5t-2.5 62.5v253h-174z" />
    <glyph glyph-name="uniFB04" unicode="ffl" horiz-adv-x="1022" 
d="M783 394q0 14 -0.5 36.5t-1.5 48.5t-1.5 54.5t-1.5 55.5q-14 1 -26 1h-23q-30 0 -47 -4.5t-26 -11t-11.5 -14.5t-2.5 -14v-19h41q10 0 20 -2t18 -8.5t13 -20t5 -35.5v-37q0 -20 -5.5 -32t-14 -18t-18 -7.5t-18.5 -1.5h-41v-253q0 -41 -3 -63.5t-14.5 -33t-34.5 -13
t-63 -2.5q-29 0 -46 2.5t-25.5 13.5t-11 33.5t-2.5 62.5v253h-135v-253q0 -41 -3 -63.5t-14.5 -33t-34.5 -13t-63 -2.5q-29 0 -46 2.5t-25.5 13.5t-11 33.5t-2.5 62.5v253h-38q-9 0 -18.5 1.5t-18 7.5t-14 18t-5.5 32v37q0 22 5 35.5t13 20t18 8.5t20 2h38v12
q0 120 63.5 175.5t204.5 55.5q40 0 85.5 -5.5t97.5 -19.5q57 25 152 25q32 0 69 -3.5t79 -12.5h35q34 0 53 -2t28 -12t11 -31t2 -59q0 -62 -2 -127.5t-2 -128.5v-282q0 -41 -3 -63.5t-14.5 -33t-34.5 -13t-63 -2.5q-29 0 -46 2.5t-25.5 13.5t-11 33.5t-2.5 62.5v282z
M442 539q0 26 3 50q-14 1 -26.5 1h-24.5q-30 0 -47 -4.5t-26 -11t-11.5 -14.5t-2.5 -14v-19h135v12z" />
    <glyph glyph-name=".notdef" horiz-adv-x="278" 
 />
    <glyph glyph-name=".null" horiz-adv-x="0" 
 />
    <glyph glyph-name="nonmarkingreturn" horiz-adv-x="333" 
 />
    <glyph glyph-name="space" unicode=" " horiz-adv-x="240" 
 />
    <glyph glyph-name="exclam" unicode="!" horiz-adv-x="291" 
d="M40 89q0 38 7 60t21 33.5t34.5 14.5t47.5 3q34 0 54 -2.5t30.5 -10t13.5 -22t3 -38.5v-26q0 -38 -7 -60t-21 -33.5t-34.5 -14.5t-47.5 -3q-34 0 -54 2.5t-30.5 10t-13.5 22t-3 38.5v26zM251 616q0 -31 -0.5 -59t-1.5 -56t-1.5 -56.5t-0.5 -59.5v-49q0 -43 -3 -66.5
t-14.5 -34.5t-34.5 -13t-63 -2q-30 0 -47 2.5t-25.5 14t-10.5 35t-2 64.5v49q0 24 -1 64.5t-2.5 82.5t-2.5 77t-1 47q0 23 2 36t13 19t34.5 7.5t67.5 1.5q34 0 53 -2t28 -12t11 -31t2 -59z" />
    <glyph glyph-name="quotedbl" unicode="&#x22;" horiz-adv-x="529" 
d="M246 538q-3 -43 -6.5 -66.5t-14.5 -34.5t-33 -13t-62 -2q-30 0 -46 2.5t-24 14t-10.5 35t-4.5 64.5l-5 118q-1 23 1 36t13 19t35 7.5t68 1.5q34 0 53 -2t28.5 -12t11.5 -31t2 -59zM483 538q-3 -43 -6.5 -66.5t-14.5 -34.5t-33 -13t-62 -2q-30 0 -46 2.5t-24 14t-10.5 35
t-4.5 64.5l-5 118q-1 23 1 36t13 19t35 7.5t68 1.5q34 0 53 -2t28.5 -12t11.5 -31t2 -59z" />
    <glyph glyph-name="numbersign" unicode="#" horiz-adv-x="812" 
d="M395 21q-33 0 -48 4.5t-18.5 12t0 16t6.5 16.5l35 88h-80l-37 -94q-3 -7 -7 -14.5t-13.5 -14t-26.5 -10.5t-45 -4q-33 0 -48 4.5t-19 12t0 16t7 16.5l35 88h-45q-6 0 -13.5 1.5t-14 6t-11 13.5t-4.5 24v30q0 17 4 27t10.5 15.5t14 7t14.5 1.5h95l45 112h-44q-6 0 -13.5 1
t-14 5.5t-11 14t-4.5 25.5v29q0 18 4 28t10 15.5t13.5 7t15.5 1.5h94l35 86q3 7 7 15t13.5 14.5t26.5 10.5t46 4q33 0 48 -4.5t19 -11.5t0.5 -16t-7.5 -18l-32 -80h78l35 86q3 7 7 15t13.5 14.5t27 10.5t46.5 4q33 0 48 -4.5t18.5 -11.5t0 -16t-7.5 -18l-32 -80h51
q16 0 30 -8.5t14 -43.5v-29q0 -16 -4.5 -25.5t-11 -14t-14 -5.5t-14.5 -1h-102l-45 -112h51q16 0 30.5 -8.5t14.5 -42.5v-30q0 -15 -4.5 -24t-11 -13.5t-14.5 -6t-15 -1.5h-102l-37 -93q-3 -7 -6.5 -15t-13 -14.5t-26.5 -10.5t-46 -4zM341 284h79l45 112h-79z" />
    <glyph glyph-name="dollar" unicode="$" horiz-adv-x="585" 
d="M267 144q15 0 32 2t30.5 8t22.5 17.5t9 31.5q0 24 -14 38.5t-37 24.5t-52.5 17t-60.5 16.5t-60.5 23.5t-52.5 37t-37 58t-14 87q0 51 14.5 88t38.5 62.5t55.5 40.5t66.5 23q-1 15 -1.5 28t-0.5 22q0 22 1.5 35t10.5 19.5t28 8t54 1.5q27 0 42.5 -2t23 -11t9.5 -28.5
t2 -55.5v-9q41 -3 74 -11t65 -18q12 -4 20.5 -7.5t13 -10t5 -17t-4.5 -27.5l-17 -63q-4 -15 -10.5 -22.5t-14 -10t-16 -1.5t-16.5 3q-32 7 -54.5 11.5t-39.5 7.5t-30.5 4t-26.5 1q-31 0 -49.5 -4.5t-28 -12t-12.5 -16t-3 -15.5q0 -22 14 -35t37 -22t52.5 -16t60.5 -17
t60.5 -25t52.5 -39t37 -59.5t14 -86.5q0 -52 -15.5 -89.5t-41.5 -63t-59.5 -41t-70.5 -23.5v-2q0 -35 -2 -54t-11 -28.5t-26.5 -11.5t-48.5 -2q-26 0 -40.5 2t-21.5 11t-8.5 26t-1.5 47v3q-47 3 -90.5 11t-69.5 18q-21 8 -32.5 21.5t-3.5 41.5l14 47q4 14 7.5 23.5t9.5 14.5
t17 5t31 -5q12 -3 31.5 -7.5t42.5 -8t48 -6.5t49 -3z" />
    <glyph glyph-name="percent" unicode="%" horiz-adv-x="1215" 
d="M917 -10q-57 0 -101 14.5t-74.5 41.5t-46.5 65t-16 84q0 91 61.5 143t176.5 52t176 -52t61 -143q0 -46 -16 -84t-46 -65t-74 -41.5t-101 -14.5zM917 123q12 0 20 6t13.5 15.5t7.5 20t2 19.5t-2 18.5t-7.5 17.5t-13.5 13t-20 5t-20.5 -5t-14 -13t-7.5 -17.5t-2 -18.5
t2 -19.5t7.5 -20t14 -15.5t20.5 -6zM294 330q-57 0 -101 14.5t-74.5 41.5t-46.5 64.5t-16 84.5q0 91 61.5 143t176.5 52t176 -52t61 -143q0 -47 -16 -84.5t-46 -64.5t-74 -41.5t-101 -14.5zM294 463q12 0 20 6t13.5 15.5t7.5 20t2 19.5q0 17 -9.5 35t-33.5 18
q-25 0 -34.5 -18t-9.5 -35q0 -9 2 -19.5t7.5 -20t14 -15.5t20.5 -6zM322 -10q-43 0 -60 6t-19 15.5t6 20.5t16 21l481 619q7 9 15.5 19t23.5 18.5t38.5 14.5t60.5 6q42 0 59.5 -5.5t19.5 -15t-6.5 -21t-17.5 -23.5l-481 -620q-7 -9 -15 -18.5t-23 -17.5t-38 -13.5t-60 -5.5z
" />
    <glyph glyph-name="ampersand" unicode="&#x26;" horiz-adv-x="992" 
d="M581 449v3q0 54 18.5 85.5t44.5 48t54 21.5t47 5q16 0 26 -3.5t15 -14t6.5 -30t1.5 -52.5v-31.5t-1 -31.5h66q10 0 20 -1.5t18 -7.5t13 -19t5 -35v-37q0 -20 -5.5 -31.5t-14 -17t-18 -6.5t-18.5 -1h-71q-1 -17 -1 -31v-27q0 -41 8.5 -59t44.5 -18q16 0 39 4q21 4 36.5 0
t20.5 -33l12 -64q5 -27 -4 -39t-35 -20q-25 -8 -62 -12t-69 -4q-97 0 -143 41.5t-48 125.5q-1 14 -1.5 52.5t-1.5 83.5h-225q-40 0 -57.5 -19.5t-17.5 -48.5q0 -14 4.5 -27.5t17 -23.5t34.5 -16t56 -6q42 0 66 7.5t42 12.5q8 2 17 3t18 -3t16.5 -15.5t13.5 -33.5l5 -20
q6 -25 5 -41t-7 -25.5t-14.5 -14.5t-17.5 -8q-28 -10 -74.5 -17t-97.5 -7q-79 0 -136.5 18t-95 49.5t-55.5 74t-18 90.5q0 63 29 106.5t86 50.5q-50 21 -67 57.5t-17 79.5q0 57 21.5 97.5t58 66.5t85 38t102.5 12q23 0 47.5 -2t48 -5t44.5 -7.5t36 -9.5q9 -3 18 -8t15 -14.5
t7 -25.5t-5 -41l-5 -20q-6 -22 -13.5 -33t-16 -15.5t-17.5 -3.5t-18 3q-25 5 -43 8.5t-31.5 5.5t-23 2.5t-18.5 0.5q-28 0 -44.5 -5.5t-25.5 -14t-11.5 -18t-2.5 -17.5q0 -26 16.5 -43.5t51.5 -17.5h211z" />
    <glyph glyph-name="quotesingle" unicode="'" horiz-adv-x="313" 
d="M257 538q-3 -43 -6.5 -66.5t-14.5 -34.5t-33 -13t-62 -2q-30 0 -46 2.5t-24 14t-10.5 35t-4.5 64.5l-5 118q-1 23 1 36t13 19t35 7.5t68 1.5q34 0 53 -2t28.5 -12t11.5 -31t2 -59z" />
    <glyph glyph-name="parenleft" unicode="(" horiz-adv-x="373" 
d="M357 693q-25 -38 -47 -75t-39 -79.5t-27 -93.5t-10 -117q0 -87 16 -152t36.5 -111.5t41 -75.5t29.5 -44q19 -26 15.5 -47t-17.5 -34.5t-33 -18.5t-30 2q-66 41 -115 94.5t-81.5 114.5t-49 128t-16.5 135t16.5 134.5t49 127.5t81.5 114.5t115 95.5q17 10 35 3.5t30 -22.5
t13.5 -38t-13.5 -41z" />
    <glyph glyph-name="parenright" unicode=")" horiz-adv-x="373" 
d="M16 693q-15 19 -13.5 41t13.5 38t30 22.5t35 -3.5q66 -42 115 -95.5t81.5 -114.5t49 -127.5t16.5 -134.5t-16.5 -135t-49 -128t-81.5 -114.5t-115 -94.5q-11 -7 -30 -2t-33 18.5t-17.5 34.5t15.5 47q9 15 29.5 44t41 75.5t36.5 111.5t16 152q0 66 -10 117t-27 93.5
t-39 79.5t-47 75z" />
    <glyph glyph-name="asterisk" unicode="*" horiz-adv-x="509" 
d="M243 422q-5 -10 -10 -21t-12.5 -20.5t-18.5 -15.5t-29 -6q-1 0 -14 5.5t-28.5 16t-28 25t-12.5 33.5q0 10 3.5 15.5t8.5 9.5l30 38l-50 16q-10 2 -16.5 5t-10.5 8.5t-5.5 15t-1.5 25.5q0 2 4 15t12.5 28t21.5 27.5t30 12.5q13 0 22 -5t10 -6q2 -1 8.5 -3t17.5 -8l-2 47
q0 17 1.5 27t8.5 16q8 8 20 10t44 2q31 0 42 -2.5t19 -9.5q11 -10 11 -43l-4 -47l28 11q3 2 11.5 6.5t19.5 4.5q17 0 29.5 -12t21 -26.5t13 -28t4.5 -16.5q0 -17 -2 -26t-6 -14.5t-10.5 -8t-15.5 -5.5l-51 -16l31 -38q5 -4 8.5 -9.5t3.5 -15.5q0 -19 -12.5 -33.5t-28 -25
t-28.5 -16t-14 -5.5q-21 0 -34.5 10.5t-21.5 24.5z" />
    <glyph glyph-name="plus" unicode="+" horiz-adv-x="651" 
d="M245 186h-163q-11 0 -18 13.5t-7 27.5v29.5t2.5 39t7.5 34.5t15 15h163v162q0 11 13.5 18t27.5 7q10 0 29.5 -0.5t39 -2.5t34.5 -7t15 -15v-162h162q12 0 18.5 -13t6.5 -27q0 -10 -0.5 -29.5t-2.5 -39.5t-7 -35t-15 -15h-162v-163q0 -12 -13 -18.5t-27 -6.5h-29.5
t-39.5 2.5t-35 7.5t-15 15v163z" />
    <glyph glyph-name="comma" unicode="," horiz-adv-x="288" 
d="M45 73q6 37 14 62t21.5 41t35 23t55.5 7q82 0 95.5 -34t-48.5 -117l-107 -143q-13 -17 -28.5 -20.5t-32.5 0.5q-20 5 -25.5 15.5t-2.5 29.5z" />
    <glyph glyph-name="hyphen" unicode="-" horiz-adv-x="415" 
d="M338 356q10 0 20 -2t18 -8.5t13 -20t5 -35.5v-37q0 -20 -5.5 -32t-14 -18t-18 -7.5t-18.5 -1.5h-267q-9 0 -18.5 1.5t-18 7.5t-14 18t-5.5 32v37q0 22 5 35.5t13 20t18 8.5t20 2h267z" />
    <glyph glyph-name="period" unicode="." horiz-adv-x="251" 
d="M20 89q0 38 7 60t21 33.5t34.5 14.5t47.5 3q34 0 54 -2.5t30.5 -10t13.5 -22t3 -38.5v-26q0 -38 -7 -60t-21 -33.5t-34.5 -14.5t-47.5 -3q-34 0 -54 2.5t-30.5 10t-13.5 22t-3 38.5v26z" />
    <glyph glyph-name="slash" unicode="/" horiz-adv-x="554" 
d="M88 -101q-17 0 -32 2.5t-24.5 8t-13.5 13.5t1 19l359 791q8 19 27 27t61 8q17 0 32 -2.5t24.5 -8t13.5 -13.5t-1 -19l-359 -791q-8 -19 -27 -27t-61 -8z" />
    <glyph glyph-name="zero" unicode="0" horiz-adv-x="707" 
d="M30 365q0 101 25 171t69 113t103 62t127 19t127 -19t102.5 -62t68.5 -113t25 -171q0 -98 -25 -168.5t-69 -116.5t-103 -68t-126 -22q-68 0 -127 22t-102.5 68t-69 116.5t-25.5 168.5zM354 137q49 0 75.5 52.5t26.5 169.5q0 58 -7 98t-20 64.5t-32 35t-43 10.5
q-25 0 -44 -10.5t-32 -35t-20 -64.5t-7 -98q0 -117 26.5 -169.5t76.5 -52.5z" />
    <glyph glyph-name="one" unicode="1" horiz-adv-x="329" 
d="M289 616q0 -31 -0.5 -59t-1.5 -56t-1.5 -56.5t-0.5 -59.5v-269q0 -42 -3 -65.5t-15 -35t-35 -13.5t-63 -2q-29 0 -46 2.5t-25.5 14t-11 34.5t-2.5 65v269q0 26 -1 69.5t-3 87.5h-16q-23 0 -36 2t-19 12t-7.5 29t-1.5 54q0 30 2 46t11.5 24t30.5 9.5t60 1.5h90q34 0 53 -2
t28.5 -12t11.5 -31t2 -59z" />
    <glyph glyph-name="two" unicode="2" horiz-adv-x="617" 
d="M322 -10q-79 0 -151 1.5t-117 6.5q-26 3 -36.5 17t-6.5 46q12 99 43.5 159.5t72.5 96t85.5 53.5t81.5 33t61 33.5t24 55.5q0 9 -3 20.5t-14.5 21.5t-33.5 17t-60 7q-21 0 -38.5 -1t-35 -3.5t-37.5 -7.5t-46 -13q-9 -3 -19.5 -3.5t-19.5 4t-17 16t-13 32.5l-5 22
q-6 25 -4.5 41.5t7 26.5t14.5 15.5t19 8.5q19 7 45 13t54 10.5t56.5 7.5t53.5 3q55 0 110 -9t98.5 -35.5t71 -75.5t27.5 -129q0 -64 -23.5 -103t-60 -62t-79.5 -36.5t-82 -27.5t-68.5 -34t-37.5 -56q20 0 40.5 0.5t43.5 0.5q62 1 112.5 2t84.5 3q29 2 43 -6t21 -42l12 -59
q6 -31 -7 -45t-39 -18q-39 -5 -99 -6.5t-128 -1.5z" />
    <glyph glyph-name="three" unicode="3" horiz-adv-x="624" 
d="M285 449q39 0 58 18t19 40q0 19 -17.5 38.5t-63.5 19.5q-23 0 -38 -0.5t-31.5 -3t-38.5 -8t-59 -15.5q-9 -2 -18.5 -3t-18.5 3.5t-17 15.5t-14 33l-5 20q-6 25 -5 40.5t6.5 25t14.5 14.5t19 9q19 7 44 13.5t53 11t58 7t59 2.5q58 0 109 -12t89 -38t60 -66t22 -96
q0 -45 -18.5 -81.5t-71.5 -57.5q64 -8 94 -52.5t30 -105.5q0 -48 -18.5 -90t-58 -73.5t-101 -49.5t-147.5 -18q-34 0 -68.5 3t-66.5 7.5t-59 10.5t-45 13q-10 4 -19 9t-14.5 14.5t-6 25t5.5 40.5l5 20q6 22 13.5 33t16 15.5t17.5 3.5t18 -3q37 -9 61.5 -15t42.5 -9.5
t32 -4.5t30 -1q43 0 70.5 6t43 16t21.5 23.5t6 28.5q0 29 -20 48t-67 19h-67q-9 0 -18.5 1t-18 6.5t-14 17t-5.5 31.5v37q0 22 5 35t13 19t18 7.5t20 1.5h56z" />
    <glyph glyph-name="four" unicode="4" horiz-adv-x="680" 
d="M482 728q29 0 49.5 -2t30.5 -8.5t9 -18t-14 -29.5l-282 -395h104l-1 52q-1 22 0.5 35t12.5 19.5t34.5 8t67.5 1.5q34 0 52.5 -2t27.5 -12t11 -31t1 -59v-7l23 2q14 1 22.5 -2.5t14.5 -15.5t11 -33.5t12 -55.5q6 -30 -6 -44t-37 -17q-10 -2 -20.5 -2.5t-22.5 -1.5
q0 -41 -3.5 -63t-15 -32.5t-34.5 -12.5t-62 -2q-29 0 -45.5 2.5t-24.5 13t-10 31.5t-2 59h-81q-75 0 -141.5 1.5t-108.5 6.5q-26 3 -36.5 17t-5.5 44q3 16 10.5 38.5t24.5 48.5l280 408q14 21 24.5 32.5t25.5 17t39 7t66 1.5z" />
    <glyph glyph-name="five" unicode="5" 
d="M253 562l-7 -73h40q17 0 46.5 -1.5t63.5 -8.5t68.5 -21.5t63 -40.5t46.5 -66.5t18 -98.5q0 -57 -16 -105t-54.5 -83t-101.5 -54.5t-156 -19.5q-24 0 -53 1.5t-57.5 4.5t-55.5 7.5t-48 10.5q-29 9 -36 34.5t-1 53t20.5 49.5t28.5 24q6 1 12 0t12 -3q38 -7 63 -11t43 -6
t32 -2.5t30 -0.5q35 0 58 8t36.5 21.5t18.5 30.5t5 36q0 45 -33.5 65t-107.5 20h-108q-21 0 -33 11.5t-18 28.5t-6.5 37t1.5 37l30 236q2 17 23.5 26.5t54.5 14t74 5.5t81 1q50 0 96 -1.5t80.5 -8t53 -20.5t13.5 -39q-6 -34 -11 -55t-11 -32t-15 -14.5t-24 -2.5
q-32 3 -78.5 4.5t-103.5 0.5h-77z" />
    <glyph glyph-name="six" unicode="6" horiz-adv-x="644" 
d="M20 270q0 117 39.5 203.5t107.5 143.5t160 85t199 28q12 0 23 -1.5t20 -7.5t14 -18.5t5 -34.5v-44q0 -20 -5.5 -31.5t-14 -16.5t-18 -6t-17.5 -1q-47 -1 -90 -10.5t-79 -30t-63.5 -53t-43.5 -77.5q34 39 75.5 58t86.5 19q49 0 87 -16.5t64.5 -46t40 -70.5t13.5 -90
q0 -71 -26.5 -120.5t-68.5 -80t-95.5 -44.5t-107.5 -14q-66 0 -122 19t-97 54.5t-64 86t-23 114.5v3zM322 145q43 0 64.5 27t21.5 65q0 37 -21.5 62t-64.5 25q-42 0 -64 -25t-22 -62q0 -38 22 -65t64 -27z" />
    <glyph glyph-name="seven" unicode="7" horiz-adv-x="637" 
d="M172 -10q-29 0 -49 2t-30.5 8.5t-10.5 18.5t11 32l269 504h-63q-68 0 -124 -2t-92 -5q-14 -1 -23 2.5t-15 15.5t-11 33.5t-12 55.5q-6 30 6 44t37 17q42 5 109.5 6.5t144.5 1.5q76 0 144 -1.5t110 -6.5q27 -3 36.5 -17t4.5 -44q-3 -16 -10 -38t-21 -51l-260 -515
q-12 -23 -21 -35.5t-24 -18t-39.5 -6.5t-66.5 -1z" />
    <glyph glyph-name="eight" unicode="8" horiz-adv-x="667" 
d="M647 210q0 -44 -14.5 -83.5t-50.5 -70t-96.5 -48.5t-151.5 -18q-92 0 -152.5 18t-96.5 48.5t-50.5 70t-14.5 83.5q0 33 7.5 61.5t23.5 51t39.5 37.5t56.5 19q-26 11 -42.5 27.5t-26.5 34.5t-13.5 36.5t-3.5 34.5q0 57 20.5 98t56.5 67.5t86 39.5t110 13t110 -13t86 -39.5
t56.5 -67.5t20.5 -98q0 -16 -4 -34.5t-13.5 -36.5t-26.5 -34.5t-42 -27.5q32 -4 56 -19t39.5 -37.5t23 -51t7.5 -61.5zM440 219q0 33 -22.5 56t-83.5 23q-31 0 -51.5 -6t-32.5 -17t-17 -25.5t-5 -30.5t5 -29.5t17 -24t32.5 -16.5t51.5 -6q62 0 84 22t22 54zM334 446
q42 0 59 19.5t17 42.5q0 11 -4 23t-13 21.5t-23.5 16t-35.5 6.5t-35.5 -6.5t-23.5 -16t-13 -21.5t-4 -23q0 -23 17 -42.5t59 -19.5z" />
    <glyph glyph-name="nine" unicode="9" horiz-adv-x="644" 
d="M624 453q-1 -117 -40 -203.5t-107 -143.5t-160.5 -85t-198.5 -28q-12 0 -23 1t-20 7t-14 18.5t-5 35.5v44q0 20 5.5 31t14 16.5t18 6.5t17.5 1q47 0 89.5 10t78.5 30t63.5 52.5t43.5 77.5q-33 -38 -74.5 -57t-86.5 -19q-49 0 -87 16.5t-64.5 46t-40 70.5t-13.5 90
q0 71 26.5 120.5t68.5 80t95.5 44.5t107.5 14q66 0 122 -19t97 -54.5t64 -86t23 -114.5v-3zM322 578q-43 0 -64.5 -27t-21.5 -65q0 -37 21.5 -62t64.5 -25q42 0 64 25t22 62q0 38 -22 65t-64 27z" />
    <glyph glyph-name="colon" unicode=":" horiz-adv-x="251" 
d="M20 89q0 38 7 60t21 33.5t34.5 14.5t47.5 3q34 0 54 -2.5t30.5 -10t13.5 -22t3 -38.5v-26q0 -38 -7 -60t-21 -33.5t-34.5 -14.5t-47.5 -3q-34 0 -54 2.5t-30.5 10t-13.5 22t-3 38.5v26zM20 426q0 38 7 60t21 33.5t34.5 14.5t47.5 3q34 0 54 -2.5t30.5 -10t13.5 -22
t3 -38.5v-26q0 -38 -7 -60t-21 -33.5t-34.5 -14.5t-47.5 -3q-34 0 -54 2.5t-30.5 10t-13.5 22t-3 38.5v26z" />
    <glyph glyph-name="semicolon" unicode=";" horiz-adv-x="300" 
d="M45 73q6 37 14 62t21.5 41t35 23t55.5 7q82 0 95.5 -34t-48.5 -117l-107 -143q-13 -17 -28.5 -20.5t-32.5 0.5q-20 5 -25.5 15.5t-2.5 29.5zM69 426q0 38 7 60t21 33.5t34.5 14.5t47.5 3q34 0 54 -2.5t30.5 -10t13.5 -22t3 -38.5v-26q0 -38 -7 -60t-21 -33.5t-34.5 -14.5
t-47.5 -3q-34 0 -54 2.5t-30.5 10t-13.5 22t-3 38.5v26z" />
    <glyph glyph-name="less" unicode="&#x3c;" horiz-adv-x="576" 
d="M524 355l-237 -90l237 -91v-163l-456 180v148l456 180v-164z" />
    <glyph glyph-name="equal" unicode="=" horiz-adv-x="559" 
d="M441 441q10 0 20 -2t18 -8.5t13 -20t5 -35.5v-37q0 -20 -5.5 -32t-14 -18t-18 -7.5t-18.5 -1.5h-370q-9 0 -18.5 1.5t-18 7.5t-14 18t-5.5 32v37q0 22 5 35.5t13 20t18 8.5t20 2h370zM441 251q10 0 20 -2t18 -8.5t13 -20t5 -35.5v-37q0 -20 -5.5 -32t-14 -18t-18 -7.5
t-18.5 -1.5h-370q-9 0 -18.5 1.5t-18 7.5t-14 18t-5.5 32v37q0 22 5 35.5t13 20t18 8.5t20 2h370z" />
    <glyph glyph-name="greater" unicode="&#x3e;" horiz-adv-x="577" 
d="M68 519l456 -180v-148l-456 -180v163l237 91l-237 90v164z" />
    <glyph glyph-name="question" unicode="?" horiz-adv-x="583" 
d="M243 218q-55 0 -74 14.5t-18 45.5q1 46 16.5 76t38.5 49.5t49.5 31.5t49.5 22.5t38 23t15 32.5q0 8 -3 16.5t-14 16t-32 12.5t-58 5q-34 0 -71 -5.5t-82 -19.5q-9 -3 -19 -3.5t-19 4t-16.5 16t-12.5 32.5l-5 20q-6 24 -5 40t6.5 25.5t14.5 15t19 8.5q19 7 44 13t52 10.5
t55 7.5t52 3q54 0 107 -7.5t96 -29.5t69.5 -63t26.5 -107q0 -49 -16.5 -80t-41 -50.5t-53.5 -31t-53.5 -22.5t-41 -24.5t-16.5 -37.5q0 -29 -23.5 -44t-74.5 -15zM132 89q0 38 7 60t21 33.5t34.5 14.5t47.5 3q34 0 54 -2.5t30.5 -10t13.5 -22t3 -38.5v-26q0 -38 -7 -60
t-21 -33.5t-34.5 -14.5t-47.5 -3q-34 0 -54 2.5t-30.5 10t-13.5 22t-3 38.5v26z" />
    <glyph glyph-name="at" unicode="@" horiz-adv-x="904" 
d="M483 70q19 -1 33 -2.5t23.5 -8t14 -20t4.5 -38.5q0 -24 -4 -37.5t-13 -20.5t-22.5 -8.5t-32.5 -1.5q-89 0 -168.5 18.5t-139.5 61.5t-95 113.5t-35 174.5q0 111 38.5 191.5t100.5 133t139 77.5t154 25q79 0 148 -24.5t119.5 -68t79.5 -103t29 -129.5q0 -48 -14.5 -99
t-42 -92.5t-68.5 -68t-94 -26.5q-29 0 -59 9.5t-54 31.5q-29 -18 -53 -26.5t-54 -8.5q-38 0 -69.5 12.5t-54 35.5t-35.5 55.5t-13 72.5t14 83.5t43.5 78.5t74.5 58t107 23q46 0 79 -13t54 -34t31 -47.5t10 -54.5q0 -27 -7 -50t-13 -38q-3 -8 -6 -16.5t-4.5 -16.5t0.5 -13
t10 -5q11 0 23.5 11t22.5 30t16.5 44.5t6.5 54.5q0 48 -18 85t-49 62.5t-73 38.5t-89 13q-55 0 -105.5 -18t-89.5 -54t-62 -91.5t-23 -130.5q0 -77 24.5 -121.5t64 -68t91 -30.5t105.5 -9zM433 258q18 0 33.5 10t26 26t16.5 34t6 35q0 31 -17.5 39.5t-39.5 2.5
q-17 -5 -30 -16t-22 -24.5t-13.5 -28.5t-4.5 -28q0 -23 12 -36.5t33 -13.5z" />
    <glyph glyph-name="A" unicode="A" horiz-adv-x="710" 
d="M487 78q0 19 -1 37t-3 37h-254q-2 -19 -3 -37t-1 -37q0 -27 -2 -43t-12 -23.5t-31.5 -9.5t-61.5 -2q-34 0 -53.5 1.5t-29.5 9.5t-12.5 23.5t-2.5 44.5q0 96 19 183t50 162t68.5 135.5t75.5 103.5q16 19 28.5 30.5t25 17.5t27.5 7.5t38 1.5q24 0 40.5 -1.5t30 -7.5
t26.5 -18t30 -32q36 -42 73.5 -102.5t68 -134.5t50 -161.5t19.5 -183.5q0 -29 -3 -44.5t-14.5 -23.5t-34 -9.5t-62.5 -1.5q-33 0 -50.5 1.5t-26 9t-10.5 23t-2 44.5zM355 519q-4 0 -15 -16t-24.5 -45t-29 -69t-28.5 -88h196q-14 48 -29.5 88t-29.5 69t-25 45t-15 16z" />
    <glyph glyph-name="B" unicode="B" horiz-adv-x="675" 
d="M316 730q65 0 118.5 -12.5t91.5 -39t59 -67.5t21 -98q0 -51 -18.5 -82.5t-66.5 -50.5q63 -8 96 -50.5t33 -119.5q0 -47 -15 -87.5t-52.5 -70t-100 -46t-157.5 -16.5q-22 0 -50.5 1t-59.5 4.5t-61 9t-54 15t-38.5 22.5t-14.5 31v312q0 23 -1 62.5t-2.5 78.5t-2.5 69.5
t-1 36.5q0 29 29 48t71.5 30t90.5 15.5t85 4.5zM348 142q56 0 76.5 23.5t20.5 56.5q0 16 -4.5 30.5t-16 25t-30.5 16.5t-47 6h-115v-153q15 -1 32.5 -2t34 -1.5t29.5 -1t20 -0.5zM233 566v-34v-28.5v-27.5t-1 -31h87q30 0 48 5.5t28 14.5t13.5 21.5t3.5 26.5t-3 25.5
t-13.5 20t-29.5 13t-51 4.5q-17 0 -37 -2t-45 -8z" />
    <glyph glyph-name="C" unicode="C" horiz-adv-x="634" 
d="M253 359q0 -104 41 -155.5t128 -51.5q31 0 57 5.5t48 11.5q25 7 40.5 2t21.5 -36l12 -58q7 -32 -3 -43t-25 -16q-41 -15 -81.5 -21.5t-89.5 -6.5q-187 0 -278 90t-91 279t91 280t279 91q48 0 88.5 -6.5t81.5 -21.5q15 -5 25 -16t3 -43l-12 -58q-6 -31 -21.5 -36t-40.5 2
q-22 6 -48 11.5t-57 5.5q-87 0 -128 -52t-41 -157z" />
    <glyph glyph-name="D" unicode="D" horiz-adv-x="743" 
d="M328 -10q-21 0 -50 1t-60 4t-61.5 8.5t-55 14t-39.5 20.5t-15 28v319q0 15 -0.5 38t-1.5 48.5t-1.5 52t-1.5 49t-1.5 37.5t-0.5 19q0 20 15 35.5t40 26.5t57 18.5t66 12t66.5 6.5t59.5 2q188 0 278.5 -90t90.5 -282q0 -189 -92 -278.5t-293 -89.5zM248 568q-1 -26 -2 -45
t-1.5 -37.5t-0.5 -42v-58.5v-239q23 -2 48 -3.5t40 -1.5q88 0 126.5 52t38.5 166q0 116 -40.5 167.5t-131.5 51.5q-16 0 -35.5 -2t-41.5 -8z" />
    <glyph glyph-name="E" unicode="E" horiz-adv-x="584" 
d="M132 0q-30 0 -47 2.5t-25.5 14t-10.5 35t-2 64.5v269q0 24 -1 64.5t-2.5 82.5t-2.5 77t-1 47q0 22 2 34.5t11.5 19t30 8.5t58.5 2h349q18 0 29.5 -1.5t18 -8t8.5 -18.5t0 -33l-4 -42q-2 -18 -7.5 -29t-13.5 -16t-18 -6.5t-20 -1.5h-234l-3 -125h214q18 0 29.5 -1.5t18 -8
t8.5 -18.5t0 -33l-4 -42q-2 -18 -7.5 -29t-13.5 -16t-18 -6.5t-20 -1.5h-207v-127h244q18 0 29.5 -1.5t18 -8t8.5 -18.5t0 -33l-4 -42q-2 -18 -7.5 -29t-13.5 -16t-18 -6.5t-20 -1.5h-352z" />
    <glyph glyph-name="F" unicode="F" horiz-adv-x="574" 
d="M247 273v-157q0 -43 -3 -66.5t-14.5 -34.5t-34.5 -13t-63 -2q-30 0 -47 2.5t-25.5 14t-10.5 35t-2 64.5v269q0 24 -1 64.5t-2.5 82.5t-2.5 77t-1 47q0 22 2 35t12.5 19.5t33 8t64.5 1.5h349q18 0 29.5 -1.5t18 -8t8.5 -18.5t0 -33l-4 -42q-2 -18 -7.5 -29t-13.5 -16
t-18 -6.5t-20 -1.5h-244q-1 -35 -2 -67.5t-1 -67.5h214q18 0 29.5 -1.5t18 -8t8.5 -18.5t0 -33l-4 -42q-2 -18 -7.5 -29t-13.5 -16t-18 -6.5t-20 -1.5h-207z" />
    <glyph glyph-name="G" unicode="G" horiz-adv-x="693" 
d="M249 359q0 -206 196 -206h13q-2 44 -3 83t-1 53q0 22 2 34.5t12 19t31.5 8t60.5 1.5q33 0 51.5 -2t27.5 -11.5t11 -30.5t2 -58q0 -53 -2 -98.5t-2 -97.5q0 -13 -4.5 -19.5t-18.5 -10.5q-18 -5 -42 -11t-52.5 -11t-59 -8.5t-61.5 -3.5q-185 0 -281 91t-96 278
q0 183 98 277t294 94q66 0 116 -9.5t93 -27.5q23 -10 29 -22t-2 -37q-10 -31 -16.5 -51.5t-14.5 -31t-19 -12t-29 4.5q-28 9 -60 18t-72 9q-103 0 -152 -53.5t-49 -158.5z" />
    <glyph glyph-name="H" unicode="H" horiz-adv-x="736" 
d="M696 616q0 -31 -0.5 -59t-1.5 -56t-1.5 -56.5t-0.5 -59.5v-269q0 -43 -3 -66.5t-14.5 -34.5t-34.5 -13t-63 -2q-30 0 -47 2.5t-25.5 14t-11 35t-2.5 64.5v165h-243v-165q0 -43 -3 -66.5t-15 -34.5t-35 -13t-63 -2q-30 0 -47 2.5t-25.5 14t-10.5 35t-2 64.5v269
q0 24 -1 64.5t-2.5 82.5t-2.5 77t-1 47q0 23 2 36t13 19t34.5 7.5t67.5 1.5q34 0 53 -2t28.5 -12t11.5 -31t2 -59q0 -48 -1.5 -91t-2.5 -88h242q-1 29 -2 63.5t-2 65.5t-1.5 55.5t-0.5 34.5q0 23 2 36t13.5 19t35 7.5t67.5 1.5q34 0 53 -2t28 -12t11 -31t2 -59z" />
    <glyph glyph-name="I" unicode="I" horiz-adv-x="291" 
d="M251 616q0 -31 -0.5 -59t-1.5 -56t-1.5 -56.5t-0.5 -59.5v-269q0 -43 -3 -66.5t-14.5 -34.5t-34.5 -13t-63 -2q-30 0 -47 2.5t-25.5 14t-10.5 35t-2 64.5v269q0 24 -1 64.5t-2.5 82.5t-2.5 77t-1 47q0 23 2 36t13 19t34.5 7.5t67.5 1.5q34 0 53 -2t28 -12t11 -31t2 -59z
" />
    <glyph glyph-name="J" unicode="J" horiz-adv-x="513" 
d="M284 385q0 24 -1 64.5t-2.5 82.5t-2.5 77t-1 47q0 22 2 35t12 19.5t31 8t60 1.5t60 -2t31.5 -11.5t12.5 -29t2 -53.5q0 -40 -0.5 -71.5t-1.5 -61t-1.5 -59.5t-0.5 -66v-48q0 -91 -18 -153.5t-52.5 -101.5t-85 -56t-115.5 -17q-31 0 -58.5 3t-50 7t-38 8.5t-22.5 6.5
q-18 6 -26.5 14t-11.5 16.5t-1.5 17t3.5 16.5l18 64q12 42 59 29q20 -5 46 -10.5t53 -5.5q51 0 75.5 39.5t24.5 122.5v67z" />
    <glyph glyph-name="K" unicode="K" horiz-adv-x="670" 
d="M251 616q0 -58 -2 -108t-2 -107l176 257q16 23 27.5 36t28.5 19t43.5 7.5t71.5 1.5q31 0 47.5 -3t18.5 -13t-9.5 -30.5t-37.5 -54.5l-187 -250l187 -268q24 -35 35.5 -55.5t9.5 -31t-18 -13.5t-47 -3q-55 0 -84.5 1t-46 7t-26 19t-24.5 38l-165 268v-217q0 -43 -3 -66.5
t-14.5 -34.5t-34.5 -13t-63 -2q-30 0 -47 2.5t-25.5 14t-10.5 35t-2 64.5v269q0 24 -1 64.5t-2.5 82.5t-2.5 77t-1 47q0 23 2 36t13 19t34.5 7.5t67.5 1.5q34 0 53 -2t28 -12t11 -31t2 -59z" />
    <glyph glyph-name="L" unicode="L" horiz-adv-x="552" 
d="M132 0q-30 0 -47 2.5t-25.5 14t-10.5 35t-2 64.5v269q0 24 -1 64.5t-2.5 82.5t-2.5 77t-1 47q0 23 2 36t13 19t34.5 7.5t67.5 1.5q34 0 53 -2t28 -12t11 -31t2 -59q0 -31 -0.5 -59t-1.5 -56t-1.5 -56.5t-0.5 -59.5v-229h238q18 0 29.5 -1.5t18 -8t8.5 -18.5t0 -33l-4 -42
q-2 -18 -7.5 -29t-13.5 -16t-18 -6.5t-20 -1.5h-346z" />
    <glyph glyph-name="M" unicode="M" horiz-adv-x="1019" 
d="M509 283q15 56 34 113t40.5 110.5t44 100.5t42.5 83q5 8 10.5 14t14.5 9.5t23 5t37 1.5q25 0 40 -2t24 -6t13.5 -11t8.5 -16q19 -48 40.5 -112t42 -139.5t39.5 -161t34 -175.5q6 -35 8.5 -54.5t-5.5 -29t-29.5 -11.5t-62.5 -2q-30 0 -47.5 0.5t-26.5 5t-12.5 14
t-6.5 27.5q-5 25 -12 61.5t-15 77t-16 80.5t-15 72.5t-12.5 52.5t-8.5 20q-4 0 -13 -21t-21.5 -54t-27 -74t-28.5 -81.5t-26 -75.5t-19 -57q-6 -17 -11.5 -26.5t-15 -14t-25 -6t-40.5 -1.5q-26 0 -41 1.5t-24.5 6t-15 14t-11.5 26.5q-8 22 -19.5 57t-25.5 75.5t-28.5 81.5
t-27 74t-22 54t-12.5 21t-8.5 -20t-12.5 -52.5t-15 -72.5t-16 -80.5t-15 -77t-12 -61.5q-3 -18 -7 -27.5t-13 -14t-26 -5t-47 -0.5q-41 0 -62.5 2t-29.5 11.5t-5.5 29t8.5 54.5q15 90 34 175.5t39.5 161t41.5 139.5t41 112q4 9 8.5 16t13.5 11t24 6t40 2q22 0 36.5 -1.5
t23.5 -5t14.5 -9t10.5 -14.5q20 -35 42.5 -82t44 -100.5t40.5 -111t34 -113.5z" />
    <glyph glyph-name="N" unicode="N" horiz-adv-x="745" 
d="M705 621q0 -63 -1.5 -117.5t-1.5 -118.5v-275q0 -41 -3 -63t-14 -32.5t-33 -12.5t-60 -2q-33 0 -49.5 3.5t-24.5 20.5l-281 399v-313q0 -41 -3 -63t-14 -32.5t-33 -12.5t-60 -2q-28 0 -44 2.5t-24 13.5t-10 33t-2 61v275q0 24 -1 65t-2.5 83.5t-2.5 78t-1 47.5q0 22 2 34
t12.5 18t33 7.5t63.5 1.5q35 0 53.5 -2.5t26.5 -13.5l280 -392v73q0 24 -1 65t-2.5 83.5t-2.5 78t-1 47.5q0 22 2 34t12.5 18t33 7.5t63.5 1.5q33 0 51 -2t26.5 -11.5t10.5 -29.5t2 -56z" />
    <glyph glyph-name="O" unicode="O" horiz-adv-x="808" 
d="M33 368q0 99 29.5 168t80 112t118 62.5t143.5 19.5t144 -19.5t118 -62.5t79.5 -112t29.5 -168t-29.5 -170.5t-80 -117.5t-118 -68t-143.5 -22t-143.5 22t-118 68t-80 117.5t-29.5 170.5zM404 137q34 0 62 13t48 40t31 69t11 100t-11 98t-31 64.5t-48 35t-62 10.5
t-61.5 -10.5t-47.5 -35t-31 -64.5t-11 -98q0 -116 41.5 -169t109.5 -53z" />
    <glyph glyph-name="P" unicode="P" horiz-adv-x="648" 
d="M40 655q0 24 25 39t65 23t89 10.5t97 2.5q90 0 151 -19t97.5 -52.5t52.5 -79.5t16 -100t-16 -100.5t-52.5 -80t-97.5 -52.5t-151 -19h-39.5t-39.5 1v-114q0 -42 -3 -65t-14 -34t-34 -13t-62 -2q-29 0 -46 2.5t-25.5 14t-10.5 34t-2 63.5v541zM237 391q20 -2 43 -3t49 -1
q27 0 44 8t27 21t13.5 29.5t3.5 33.5t-3.5 33.5t-13.5 29.5t-27 21t-44 8q-26 0 -49 -1t-43 -4v-175z" />
    <glyph glyph-name="Q" unicode="Q" horiz-adv-x="808" 
d="M33 368q0 99 29.5 168t80 112t118 62.5t143.5 19.5t144 -19.5t118 -62.5t79.5 -112t29.5 -168q0 -84 -21 -147.5t-58.5 -109t-88 -73t-110.5 -39.5q12 -28 47 -28q15 0 25 2.5t24 7.5q11 4 19 0t10 -17l25 -106q3 -14 -1.5 -20.5t-17.5 -9.5q-26 -9 -62 -17t-71 -8
q-37 0 -70.5 7.5t-60.5 29t-45.5 61t-26.5 102.5q-56 13 -103.5 42t-82 74t-54 107t-19.5 142zM404 137q34 0 62 13t48 40t31 69t11 100t-11 98t-31 64.5t-48 35t-62 10.5t-61.5 -10.5t-47.5 -35t-31 -64.5t-11 -98q0 -116 41.5 -169t109.5 -53z" />
    <glyph glyph-name="R" unicode="R" horiz-adv-x="661" 
d="M338 228h-19q-22 0 -43 1t-42 5v-122q0 -41 -3 -63.5t-13.5 -33t-31 -13t-56.5 -2.5q-32 0 -50 2t-27 13t-11 33.5t-2 63.5v514q0 27 25 46.5t64.5 32t88.5 19t98 6.5q88 0 148 -19t97 -52.5t52.5 -79.5t15.5 -99q0 -77 -27.5 -128.5t-78.5 -80.5l91 -172
q16 -31 22 -50.5t0 -30t-25.5 -14.5t-55.5 -4q-45 0 -70.5 4.5t-40 13t-21 20t-12.5 25.5zM234 390q18 -8 38.5 -11t37.5 -3q33 0 53.5 8.5t32 23t15.5 33t4 39.5q0 20 -4 38.5t-15 33t-31 23t-51 8.5q-20 0 -41 -3.5t-39 -11.5v-178z" />
    <glyph glyph-name="S" unicode="S" horiz-adv-x="579" 
d="M267 144q15 0 32 2t30.5 8t22.5 17.5t9 31.5q0 24 -14 38.5t-37 24.5t-52.5 17t-60.5 16.5t-60.5 23.5t-52.5 37t-37 58t-14 87q0 72 27.5 116t69.5 68.5t93 32.5t98 8q62 0 107.5 -9t87.5 -23q12 -4 20.5 -7.5t13 -10t5 -17t-4.5 -27.5l-17 -63q-4 -15 -10.5 -22.5
t-14 -10t-16 -1.5t-16.5 3q-32 7 -54.5 11.5t-39.5 7.5t-30.5 4t-26.5 1q-31 0 -49.5 -4.5t-28 -12t-12.5 -16t-3 -15.5q0 -22 14 -35t37 -22t52.5 -16t60.5 -17t60.5 -25t52.5 -39t37 -59.5t14 -86.5q0 -73 -29.5 -118t-74.5 -69.5t-98.5 -32.5t-101.5 -8q-27 0 -56 2.5
t-56.5 7t-51 10t-39.5 11.5q-21 8 -32.5 21.5t-3.5 41.5l14 47q4 14 7.5 23.5t9.5 14.5t17 5t31 -5q12 -3 31.5 -7.5t42.5 -8t48 -6.5t49 -3z" />
    <glyph glyph-name="T" unicode="T" horiz-adv-x="627" 
d="M419 564q-1 -45 -2 -87.5t-1 -91.5v-269q0 -43 -3 -66.5t-14.5 -34.5t-34.5 -13t-63 -2q-30 0 -47 2.5t-25.5 14t-10.5 35t-2 64.5v269q0 14 -0.5 35t-1.5 45t-1.5 49.5t-1.5 49.5h-137q-10 0 -20 1.5t-18 6.5t-13.5 16t-7.5 29l-4 42q-2 21 0 33t8.5 18.5t18 8t29.5 1.5
h493q18 0 29.5 -1.5t18 -8t8.5 -18.5t0 -33l-4 -42q-2 -18 -7.5 -29t-13.5 -16t-18 -6.5t-20 -1.5h-134z" />
    <glyph glyph-name="U" unicode="U" horiz-adv-x="700" 
d="M242 267q0 -59 27.5 -89.5t81.5 -30.5t80.5 30.5t26.5 89.5q0 49 -0.5 91.5t-1 83.5t-1 82.5t-0.5 89.5q0 39 1.5 60.5t10 31.5t26.5 12t50 2q46 0 70.5 -1.5t36 -7.5t13.5 -19t2 -36q0 -2 -0.5 -28.5t-1 -65t-1.5 -84.5t-2 -88.5t-1.5 -76t-0.5 -46.5q-1 -60 -19.5 -111
t-55.5 -88t-94 -57.5t-136 -20.5q-65 0 -121 15.5t-97.5 48.5t-66.5 85.5t-26 127.5q0 14 -0.5 50t-1.5 82.5t-2 96.5t-1.5 92t-1 70.5t-0.5 31.5q0 20 30 25t94 5q31 0 49 -2t26 -12.5t10 -32.5t2 -61q0 -45 -0.5 -86.5t-1.5 -82.5t-1.5 -84t-0.5 -92z" />
    <glyph glyph-name="V" unicode="V" horiz-adv-x="672" 
d="M336 206q6 0 23 35t35 94.5t32 138.5t16 167q0 29 2 45t10.5 23.5t27 9t51.5 1.5q41 0 64.5 -1.5t35.5 -9t15.5 -23.5t3.5 -44q0 -95 -18 -184t-46 -165t-60.5 -136t-62.5 -97q-17 -21 -32 -33t-30 -18t-31.5 -7.5t-35.5 -1.5t-35 1.5t-31 7t-29.5 17t-31.5 31.5
q-29 34 -62 94t-61 137t-47 167.5t-19 186.5q0 28 3 44t12.5 23.5t28 9t50.5 1.5q42 0 65 -2t34 -10t13.5 -23.5t3.5 -43.5q3 -96 18 -175.5t32.5 -137.5t33.5 -90t22 -32z" />
    <glyph glyph-name="W" unicode="W" horiz-adv-x="1039" 
d="M718 204q6 0 15.5 18t20 49t21 71.5t18.5 86t13 92.5t5 91q0 39 2 61t11 32.5t28 12.5t53 2q43 0 66 -1.5t33.5 -10t12.5 -26.5t2 -51q0 -102 -15 -189t-39 -158.5t-54.5 -126.5t-60.5 -94q-17 -21 -31 -33.5t-28 -19t-29 -8.5t-34 -2q-26 0 -44 2t-31 9t-24 18.5
t-24 31.5q-24 37 -48.5 81.5t-36.5 101.5q-15 -57 -41.5 -101t-52.5 -80q-14 -19 -25.5 -31.5t-25 -19.5t-30.5 -9.5t-41 -2.5q-21 0 -37 2t-30 8.5t-27.5 18.5t-28.5 32q-29 38 -57.5 93.5t-51.5 127t-37.5 159t-14.5 190.5q0 32 2 50t12.5 26.5t34 10.5t66.5 2
q33 0 52 -2.5t28.5 -13t11.5 -32t2 -60.5q0 -44 5 -91t13.5 -92.5t18.5 -86t20.5 -71.5t20 -49t16.5 -18q10 0 25.5 39t30.5 99t25.5 131.5t10.5 137.5q0 39 2 61t13 32.5t34.5 13t65.5 2.5q31 0 49.5 -2t28.5 -10.5t13 -26t3 -49.5q0 -44 4.5 -93t12.5 -96.5t18 -90.5
t20.5 -76t20.5 -52.5t18 -19.5z" />
    <glyph glyph-name="X" unicode="X" horiz-adv-x="671" 
d="M442 101q0 42 -8.5 74t-23 54.5t-34 34t-40.5 11.5t-40.5 -11.5t-34.5 -34t-23.5 -54.5t-8.5 -74q0 -37 -2 -57.5t-11 -30t-28 -11.5t-52 -2q-45 0 -70 1.5t-36 10t-13 25t-2 46.5q0 44 11 87t33.5 80t56 65.5t79.5 45.5q-46 16 -79.5 45t-56 65.5t-33.5 79t-11 86.5
q0 30 2 46.5t13 25t36 10t70 1.5q34 0 53 -2.5t28 -13t11 -31t2 -57.5q0 -80 31.5 -123t74.5 -43t74.5 43t31.5 123q0 37 2 57.5t11 31t27.5 13t52.5 2.5q45 0 70 -1.5t36 -10t13 -25t2 -46.5q0 -44 -11 -86.5t-33 -79t-56 -65.5t-79 -45q45 -17 79 -45.5t56 -65.5t33 -80
t11 -87q0 -30 -2 -46.5t-13.5 -25t-36 -10t-70.5 -1.5q-33 0 -51.5 2t-27.5 11.5t-11 30t-2 57.5z" />
    <glyph glyph-name="Y" unicode="Y" horiz-adv-x="692" 
d="M346 381q11 0 31.5 15t40.5 44.5t34.5 72t14.5 96.5q0 40 2 62.5t11.5 33.5t29.5 13t55 2q43 0 67 -2t35 -10.5t13 -27t2 -51.5q0 -81 -21.5 -146.5t-56 -116t-76.5 -85t-83 -54.5v-109q0 -43 -3 -66.5t-14.5 -34.5t-34.5 -13t-63 -2q-30 0 -47 2.5t-25.5 14t-10.5 35
t-2 64.5v110q-41 20 -83 54.5t-75.5 84.5t-55 115.5t-21.5 146.5q0 33 2 51.5t13 27t34.5 10.5t67.5 2q35 0 55 -2t29.5 -13t11.5 -33.5t2 -62.5q0 -54 14.5 -96.5t34.5 -72t40.5 -44.5t31.5 -15z" />
    <glyph glyph-name="Z" unicode="Z" horiz-adv-x="604" 
d="M260 156h270q15 0 25.5 -2.5t18 -12t12 -28.5t7.5 -52q1 -21 -0.5 -33t-8 -18.5t-18 -8t-29.5 -1.5h-470q-18 0 -29.5 1.5t-18 8t-8.5 18.5t0 33q2 28 5.5 50t14.5 33l303 420h-243q-15 0 -25.5 2.5t-18 12t-11.5 28.5t-7 52q-2 21 0 33t8 18.5t17.5 8t29.5 1.5h441
q18 0 29.5 -1.5t18 -8t8 -18.5t0.5 -33q-2 -19 -3 -40.5t-12 -37.5z" />
    <glyph glyph-name="bracketleft" unicode="[" horiz-adv-x="324" 
d="M20 722q0 20 4.5 24.5t29.5 4.5h222q14 0 20.5 -14t6.5 -30q0 -10 -0.5 -31t-2.5 -42t-7.5 -36.5t-15.5 -15.5h-70v-557h71q10 0 15 -16.5t7 -38t2.5 -43.5t0.5 -33q0 -14 -8 -26t-22 -12h-227q-18 0 -22 5t-4 28v833z" />
    <glyph glyph-name="backslash" unicode="\" horiz-adv-x="513" 
d="M466 -101q-42 0 -61 8t-27 27l-359 791q-5 11 -1 19t13.5 13.5t24.5 8t32 2.5q42 0 61 -8t27 -27l359 -791q5 -11 1 -19t-13.5 -13.5t-24.5 -8t-32 -2.5z" />
    <glyph glyph-name="bracketright" unicode="]" horiz-adv-x="324" 
d="M304 -111q0 -23 -4 -28t-22 -5h-227q-14 0 -22 12t-8 26v33t2.5 43.5t7.5 38t15 16.5h71v557h-70q-10 0 -15.5 15.5t-7.5 36.5t-2.5 42t-0.5 31q0 16 6.5 30t20.5 14h222q25 0 29.5 -4.5t4.5 -24.5v-833z" />
    <glyph glyph-name="asciicircum" unicode="^" horiz-adv-x="646" 
d="M461 295l-138 163l-138 -163l-121 96l259 284l259 -284z" />
    <glyph glyph-name="underscore" unicode="_" horiz-adv-x="530" 
d="M43 -158q-11 0 -18 13.5t-7 27.5v29.5t2.5 39t7.5 34.5t15 15h443q12 0 18.5 -13t6.5 -27q0 -10 -0.5 -29.5t-2.5 -39.5t-7 -35t-15 -15h-443z" />
    <glyph glyph-name="grave" unicode="`" horiz-adv-x="383" 
d="M231 685q13 -33 -3 -42.5t-44 13.5l-162 131q-10 8 -14.5 22t-2.5 29.5t11.5 30.5t27.5 26q17 11 34 14t32 -0.5t26.5 -12t17.5 -20.5z" />
    <glyph glyph-name="a" unicode="a" horiz-adv-x="569" 
d="M18 142q0 41 13.5 71.5t37 50.5t55.5 30t69 10q45 0 82 -14t59 -49v29q0 29 -7 47.5t-20 29.5t-30 15.5t-38 4.5q-32 0 -62 -7t-48 -12q-23 -8 -39 -2t-27 36l-18 49q-11 32 -1.5 47.5t35.5 25.5q42 16 88 24.5t108 8.5q48 0 94 -8.5t83 -34t59.5 -72t22.5 -123.5v-187
q0 -41 -3 -63.5t-14.5 -33t-34.5 -13t-63 -2.5q-23 0 -38 1t-24.5 6.5t-14 16t-6.5 28.5q-22 -36 -61 -49t-87 -13q-78 0 -124 37.5t-46 114.5zM280 201q-25 0 -38 -14.5t-13 -40.5q0 -52 51 -52q25 0 39 13t14 39t-14 40.5t-39 14.5z" />
    <glyph glyph-name="b" unicode="b" horiz-adv-x="632" 
d="M42 385q0 16 -0.5 42t-1.5 56t-1.5 61.5t-1.5 59t-1.5 48.5t-0.5 29q0 23 2 36t13 19t34.5 7.5t67.5 1.5q34 0 53 -2t28 -12t11 -31t2 -59q0 -50 -1.5 -101.5t-2.5 -103.5q20 51 57 76t96 25q97 0 154.5 -68t57.5 -206q0 -134 -55 -203.5t-159 -69.5q-113 0 -151 97
q-1 -32 -5 -49.5t-16.5 -26t-34.5 -10t-59 -1.5q-30 0 -47 2.5t-25.5 14t-10.5 35t-2 64.5v269zM326 138q35 0 56 31.5t21 85.5q0 53 -21 84.5t-56 31.5q-32 0 -56.5 -27.5t-24.5 -86.5q0 -55 23.5 -87t57.5 -32z" />
    <glyph glyph-name="c" unicode="c" horiz-adv-x="485" 
d="M233 257q0 -57 25 -83.5t79 -26.5q16 0 29.5 2.5t30.5 5.5q23 5 35.5 -1t17.5 -29l13 -61q5 -23 -2.5 -35t-31.5 -20q-26 -10 -64 -14.5t-76 -4.5q-131 0 -197.5 68t-66.5 206q0 274 265 274q42 0 80 -5.5t59 -13.5q24 -8 31 -20.5t3 -33.5l-13 -76q-5 -23 -17.5 -29
t-35.5 -1q-17 3 -30.5 5.5t-29.5 2.5q-54 0 -79 -26.5t-25 -83.5z" />
    <glyph glyph-name="d" unicode="d" horiz-adv-x="629" 
d="M25 263q0 138 57.5 206t154.5 68q59 0 95.5 -24.5t56.5 -75.5q-1 32 -2 70t-2 73.5t-1.5 63t-0.5 37.5q0 23 2 36t13 19t34.5 7.5t67.5 1.5q34 0 53 -2t28 -12t11 -31t2 -59q0 -62 -2 -127.5t-2 -128.5v-273q0 -41 -3 -63.5t-14.5 -33t-34.5 -13t-63 -2.5q-27 0 -43.5 2
t-25.5 10.5t-12.5 26t-3.5 48.5q-38 -97 -151 -97q-104 0 -159 69.5t-55 203.5zM306 138q34 0 57.5 32t23.5 87q0 59 -24.5 86.5t-56.5 27.5q-35 0 -56 -31.5t-21 -84.5q0 -54 21 -85.5t56 -31.5z" />
    <glyph glyph-name="e" unicode="e" horiz-adv-x="572" 
d="M235 189q14 -32 40 -41t61 -9q18 0 32 1t26.5 4t26.5 7.5t33 10.5q23 8 35 3.5t21 -30.5l20 -56q6 -21 -1 -31t-31 -21q-37 -17 -81.5 -27t-102.5 -10q-137 0 -213 70t-76 209q0 138 73.5 203t202.5 65q114 0 180 -57t66 -178q0 -54 -23.5 -83.5t-80.5 -29.5h-208z
M300 392q-31 0 -50 -19.5t-25 -62.5h152q-2 44 -22 63t-55 19z" />
    <glyph glyph-name="f" unicode="f" horiz-adv-x="464" 
d="M105 527v12q0 120 56.5 175.5t181.5 55.5q24 0 53 -3.5t59 -13.5q15 -5 23.5 -9.5t12 -10.5t3 -15t-3.5 -22l-14 -74q-6 -32 -17 -38t-40 0q-18 5 -31.5 5.5t-25.5 0.5q-20 0 -31 -4.5t-17 -11t-7.5 -14.5t-1.5 -14v-19h81q10 0 20 -2t18 -8.5t13 -20t5 -35.5v-37
q0 -20 -5.5 -32t-14 -18t-18 -7.5t-18.5 -1.5h-81v-253q0 -41 -3 -63.5t-14.5 -33t-34.5 -13t-63 -2.5q-29 0 -46 2.5t-25.5 13.5t-11 33.5t-2.5 62.5v253h-36q-9 0 -18.5 1.5t-18 7.5t-14 18t-5.5 32v37q0 22 5 35.5t13 20t18 8.5t20 2h36z" />
    <glyph glyph-name="g" unicode="g" horiz-adv-x="618" 
d="M21 317q0 65 27.5 107.5t71 67.5t98.5 35t109 10q42 0 83.5 -4.5t77.5 -11t63 -14t39 -12.5q24 -11 26 -24t-2 -28l-17 -64q-2 -5 -4.5 -12.5t-8 -13.5t-14 -9t-21.5 0l-78 18q42 -9 62 -29.5t20 -58.5q0 -41 -21.5 -71t-57.5 -50t-84.5 -30t-102.5 -10h-4
q-23 -2 -23 -12q0 -11 24 -13.5t60.5 -5t79 -8t79 -22t60.5 -47t24 -82.5q0 -47 -21 -80.5t-59.5 -54.5t-93.5 -31t-123 -10q-57 0 -107 7t-87.5 23t-59 40t-21.5 59q0 44 39.5 70.5t131.5 31.5q-28 4 -54 9.5t-45.5 15.5t-31 25.5t-11.5 39.5q0 32 20 50.5t53 29.5
q-45 23 -70.5 64.5t-25.5 104.5zM287 222q24 0 38 23t14 77q0 53 -14 72.5t-38 19.5q-23 0 -37.5 -19.5t-14.5 -72.5q0 -54 14.5 -77t37.5 -23zM288 -138q50 0 72.5 14.5t22.5 36.5q0 17 -12 27.5t-32.5 16.5t-47 9.5t-54.5 6.5q-23 -13 -33.5 -27.5t-10.5 -30.5
q0 -23 23 -38t72 -15z" />
    <glyph glyph-name="h" unicode="h" horiz-adv-x="601" 
d="M246 641q0 -62 -2 -127.5t-2 -128.5v-10q9 41 29 71.5t46 50.5t56 30t59 10q27 0 52.5 -7t44.5 -27.5t30.5 -58t11.5 -98.5q0 -51 -3 -101t-3 -101v-32q0 -41 -3 -63.5t-14.5 -33t-34.5 -13t-63 -2.5q-29 0 -46 2.5t-25.5 13.5t-11 33.5t-2.5 62.5v184q0 52 -42 52
q-32 0 -55.5 -31.5t-25.5 -94.5v-106q0 -42 -3 -65.5t-14 -35t-34.5 -13.5t-63.5 -2q-30 0 -47 2.5t-25.5 14t-10.5 35t-2 64.5v269q0 16 -0.5 42t-1.5 56t-1.5 61.5t-1.5 59t-1.5 48.5t-0.5 29q0 23 2 36t13 19t34.5 7.5t67.5 1.5q34 0 53 -2t28 -12t11 -31t2 -59z" />
    <glyph glyph-name="i" unicode="i" horiz-adv-x="284" 
d="M42 167q0 16 -0.5 42t-1.5 56t-1.5 61.5t-1.5 59t-1.5 48.5t-0.5 29q0 23 2 36t13 19t34.5 7.5t67.5 1.5q34 0 53 -2t28 -12t11 -31t2 -59q0 -62 -2 -127.5t-2 -128.5v-55q0 -41 -3 -63.5t-14.5 -33t-34.5 -13t-63 -2.5q-29 0 -46 2.5t-25.5 13.5t-11 33.5t-2.5 62.5v55z
M38 659q0 38 7 60t21 33.5t34.5 14.5t47.5 3q34 0 54 -2.5t30.5 -10t13.5 -22t3 -38.5v-26q0 -38 -7 -60t-21 -33.5t-34.5 -14.5t-47.5 -3q-34 0 -54 2.5t-30.5 10t-13.5 22t-3 38.5v26z" />
    <glyph glyph-name="j" unicode="j" horiz-adv-x="286" 
d="M247 423q0 -62 -2 -127.5t-2 -128.5v-71q0 -103 -16.5 -166t-45 -97t-66 -45t-80.5 -11q-32 0 -66 7.5t-57 17.5q-19 10 -28 22t0 38l20 56q8 26 21 32.5t28 1.5q9 -3 16.5 -5t16.5 -2q37 0 47 36t10 115v71q0 16 -0.5 42t-1.5 56t-1.5 61.5t-1.5 59t-1.5 48.5t-0.5 29
q0 23 2 36t13 19t34.5 7.5t67.5 1.5q34 0 53 -2t28 -12t11 -31t2 -59zM40 659q0 38 7 60t21 33.5t34.5 14.5t47.5 3q34 0 54 -2.5t30.5 -10t13.5 -22t3 -38.5v-26q0 -38 -7 -60t-21 -33.5t-34.5 -14.5t-47.5 -3q-34 0 -54 2.5t-30.5 10t-13.5 22t-3 38.5v26z" />
    <glyph glyph-name="k" unicode="k" horiz-adv-x="588" 
d="M246 641q0 -62 -2 -127.5t-2 -128.5v-85l86 160q13 24 23 37.5t27.5 20t48 8t84.5 1.5q31 0 47.5 -2.5t18.5 -13t-9.5 -31.5t-36.5 -57l-110 -159l110 -160q25 -36 36.5 -57t9.5 -31.5t-18.5 -13t-47.5 -2.5q-54 0 -84.5 1.5t-48 8t-27.5 20t-23 37.5l-86 159v-110
q0 -42 -3 -65.5t-14 -35t-34.5 -13.5t-63.5 -2q-30 0 -47 2.5t-25.5 14t-10.5 35t-2 64.5v269q0 16 -0.5 42t-1.5 56t-1.5 61.5t-1.5 59t-1.5 48.5t-0.5 29q0 23 2 36t13 19t34.5 7.5t67.5 1.5q34 0 53 -2t28 -12t11 -31t2 -59z" />
    <glyph glyph-name="l" unicode="l" horiz-adv-x="281" 
d="M246 641q0 -62 -2 -127.5t-2 -128.5v-273q0 -41 -3 -63.5t-14.5 -33t-34.5 -13t-63 -2.5q-29 0 -46 2.5t-25.5 13.5t-11 33.5t-2.5 62.5v273q0 16 -0.5 42t-1.5 56t-1.5 61.5t-1.5 59t-1.5 48.5t-0.5 29q0 23 2 36t13 19t34.5 7.5t67.5 1.5q34 0 53 -2t28 -12t11 -31
t2 -59z" />
    <glyph glyph-name="m" unicode="m" horiz-adv-x="871" 
d="M43 167q0 16 -0.5 42t-1.5 56t-1.5 61.5t-1.5 59t-1.5 48.5t-0.5 29q0 23 2 36t13 19t34.5 7.5t67.5 1.5q34 0 53 -2t28 -12t11 -31t2 -59v-21q9 34 26.5 59.5t38.5 42.5t44.5 25t46.5 8t44.5 -5t39.5 -19.5t30.5 -40.5t18.5 -67q8 34 25 58.5t39.5 41t47.5 24.5t49 8
q28 0 53 -7.5t44 -29.5t30 -61t11 -103q0 -47 -2.5 -96.5t-2.5 -115.5v-12q0 -41 -3 -63.5t-14.5 -33t-34.5 -13t-63 -2.5q-29 0 -46 2.5t-25.5 13.5t-11 33.5t-2.5 62.5v184q0 52 -33 52q-20 0 -36 -21t-22 -63q-1 -31 -2 -65t-1 -75v-8q0 -42 -3 -65.5t-14 -35
t-34.5 -13.5t-63.5 -2q-30 0 -47 2.5t-25.5 14t-10.5 35t-2 64.5v180q0 52 -33 52q-22 0 -38.5 -25t-20.5 -74q-1 -29 -1 -59.5v-65.5v-8q0 -42 -3 -65.5t-14 -35t-34.5 -13.5t-63.5 -2q-30 0 -47 2.5t-25.5 14t-10.5 35t-2 64.5v51v0z" />
    <glyph glyph-name="n" unicode="n" horiz-adv-x="606" 
d="M565 112q0 -41 -3 -63.5t-14.5 -33t-34.5 -13t-63 -2.5q-29 0 -46 2.5t-25.5 13.5t-11 33.5t-2.5 62.5v184q0 52 -42 52q-29 0 -52 -27t-28 -82q-1 -26 -1 -54.5v-60.5v-12q0 -41 -3 -63.5t-14.5 -33t-34.5 -13t-63 -2.5q-29 0 -46 2.5t-25.5 13.5t-11 33.5t-2.5 62.5v55
q0 16 -0.5 42t-1.5 56t-1.5 61.5t-1.5 59t-1.5 48.5t-0.5 29q0 23 2 36t13 19t34.5 7.5t67.5 1.5q34 0 53 -2t28 -12t11 -31t2 -59v-32q10 37 30 64.5t45.5 45.5t54 27t56.5 9q27 0 52.5 -7t44.5 -27.5t30.5 -58t11.5 -98.5q0 -51 -3 -101t-3 -101v-32v0z" />
    <glyph glyph-name="o" unicode="o" horiz-adv-x="609" 
d="M304 -10q-130 0 -204.5 71.5t-74.5 207.5t74 202t205 66q65 0 117 -16.5t88 -49.5t55.5 -83.5t19.5 -118.5q0 -136 -75 -207.5t-205 -71.5zM304 134q36 0 54 34t18 90q0 57 -18 86.5t-54 29.5t-53.5 -29.5t-17.5 -86.5q0 -56 17.5 -90t53.5 -34z" />
    <glyph glyph-name="p" unicode="p" horiz-adv-x="632" 
d="M42 167q0 16 -0.5 42t-1.5 56t-1.5 61.5t-1.5 59t-1.5 48.5t-0.5 29q0 23 2 36t13 19t34.5 7.5t67.5 1.5q31 0 49.5 -1.5t28 -9.5t13 -24t3.5 -46q20 46 56 68.5t93 22.5q97 0 154.5 -68t57.5 -206q0 -134 -55 -203.5t-159 -69.5q-58 0 -94.5 23t-56.5 74v-181
q0 -42 -3 -65.5t-14 -35t-34.5 -13.5t-63.5 -2q-30 0 -47 2.5t-25.5 14t-10.5 35t-2 64.5v261zM326 138q35 0 56 31.5t21 85.5q0 53 -21 84.5t-56 31.5q-32 0 -56.5 -27.5t-24.5 -86.5q0 -55 23.5 -87t57.5 -32z" />
    <glyph glyph-name="q" unicode="q" horiz-adv-x="632" 
d="M597 423q0 -60 -3.5 -123.5t-3.5 -125.5v-281q0 -37 -3.5 -58t-15.5 -31t-34.5 -12t-61.5 -2q-29 0 -45.5 2.5t-25.5 12.5t-11.5 31t-2.5 57v194q-20 -51 -56.5 -74t-94.5 -23q-104 0 -159 69.5t-55 203.5q0 138 57.5 206t154.5 68q55 0 91 -21.5t56 -65.5q0 28 4 43.5
t16.5 23t36 9t62.5 1.5q34 0 53 -2t28 -12t11 -31t2 -59zM306 138q34 0 57.5 32t23.5 87q0 59 -24.5 86.5t-56.5 27.5q-35 0 -56 -31.5t-21 -84.5q0 -54 21 -85.5t56 -31.5z" />
    <glyph glyph-name="r" unicode="r" horiz-adv-x="488" 
d="M246 394q10 36 27 63t38 45t44.5 26.5t46.5 8.5q14 0 28 -0.5t25 -4.5q21 -8 25.5 -20t-0.5 -35l-15 -77q-5 -23 -14.5 -31t-37.5 -3q-12 2 -24.5 4t-23.5 2q-25 0 -46 -8t-37 -27.5t-26.5 -53.5t-13.5 -85v-82q0 -42 -3 -65.5t-14 -35t-34.5 -13.5t-63.5 -2
q-30 0 -47 2.5t-25.5 14t-10.5 35t-2 64.5v51q0 16 -0.5 42t-1.5 56t-1.5 61.5t-1.5 59t-1.5 48.5t-0.5 29q0 23 2 36t13 19t34.5 7.5t67.5 1.5q34 0 53 -2t28 -12t11 -31t2 -59v-29z" />
    <glyph glyph-name="s" unicode="s" horiz-adv-x="504" 
d="M223 133q40 0 51 9t11 20q0 16 -19 22.5t-47 10.5t-61 10.5t-61 23t-47 46t-19 81.5q0 58 23.5 93.5t59 55t77 26t78.5 6.5q54 0 98.5 -6t73.5 -16q25 -8 33.5 -20t0.5 -38l-14 -50q-4 -14 -11 -21t-15 -9.5t-17.5 -1t-18.5 3.5q-23 5 -52 10t-64 5q-19 0 -30.5 -2.5
t-18 -6t-9 -8.5t-2.5 -10q0 -15 19 -20.5t47.5 -9t61.5 -10t61.5 -23t47.5 -47.5t19 -84q0 -59 -23 -95t-57.5 -55.5t-75 -26t-76.5 -6.5q-21 0 -49 1.5t-56 4.5t-52.5 6.5t-39.5 8.5q-20 6 -29 19t-3 39l11 47q6 26 20 32t32 3q7 -1 22.5 -4t35 -6t41.5 -5.5t43 -2.5z" />
    <glyph glyph-name="t" unicode="t" horiz-adv-x="453" 
d="M76 527q6 49 22 78t38 44t47.5 19t49.5 4q19 0 29 -3t14 -14.5t4 -34v-62.5v-31h98q10 0 20 -2t18 -8.5t13 -20t5 -35.5v-37q0 -20 -5.5 -32t-14 -18t-18 -7.5t-18.5 -1.5h-101q-1 -39 -1 -78.5v-80.5q0 -58 52 -58q24 0 44 4q22 5 36.5 0t20.5 -33l12 -54q5 -27 -4 -39
t-35 -20q-25 -8 -61.5 -12t-71.5 -4q-92 0 -140.5 42.5t-48.5 124.5q0 59 -1 109.5t-3 98.5h-15q-9 0 -18.5 1.5t-18 7.5t-14 18t-5.5 32v37q0 22 5 35.5t13 20t18 8.5t20 2h15z" />
    <glyph glyph-name="u" unicode="u" 
d="M577 423q0 -62 -3.5 -132.5t-3.5 -166.5v-12q0 -41 -3 -63.5t-14.5 -33t-34.5 -13t-63 -2.5q-29 0 -46 2.5t-25.5 13.5t-11 33.5t-2.5 62.5v11q-7 -34 -25 -59t-42 -41.5t-52 -24.5t-54 -8q-31 0 -60 7t-51 27.5t-35 58t-13 98.5q0 19 0.5 37.5t1.5 38.5q-1 28 -3 55.5
t-3.5 52t-2.5 44.5t-1 34q0 30 2 47t13.5 25.5t35.5 10t69 1.5q34 0 53 -2t28 -12t11 -31t2 -59v-232q0 -52 42 -52q30 0 54 32.5t27 99.5q-1 42 -2 79t-1 73q0 38 2.5 59t14 31t35.5 12t67 2q34 0 53 -2t28 -12t11 -31t2 -59z" />
    <glyph glyph-name="v" unicode="v" horiz-adv-x="560" 
d="M280 179q2 0 11 26.5t18.5 67.5t17.5 92t8 99q0 23 1.5 36t10 19t26.5 7t51 1q40 0 63.5 -1.5t35 -9t14.5 -22t3 -41.5q0 -60 -13.5 -118t-33.5 -109.5t-43.5 -94t-44.5 -71.5q-15 -21 -26.5 -33t-25 -18t-31.5 -7.5t-46 -1.5q-23 0 -39 1.5t-29 7.5t-24.5 17.5
t-26.5 32.5q-22 31 -46 74t-44.5 94.5t-33.5 109t-13 116.5q0 27 2.5 41.5t12.5 22t30 9t55 1.5q39 0 60.5 -1.5t31.5 -7.5t12 -18.5t2 -35.5q0 -48 7.5 -99t17 -92t18.5 -67.5t11 -26.5z" />
    <glyph glyph-name="w" unicode="w" horiz-adv-x="875" 
d="M594 179q3 0 11.5 23.5t18.5 62.5t17.5 90.5t8.5 108.5q0 23 1.5 36t8.5 19t21.5 7t40.5 1q45 0 71.5 -1.5t40 -8t17.5 -19.5t4 -37q0 -60 -13.5 -120t-33.5 -113.5t-43 -97t-43 -71.5q-15 -21 -29 -33t-28.5 -17.5t-31.5 -7t-38 -1.5q-22 0 -39 1.5t-31.5 7.5t-26.5 18
t-24 33q-10 19 -18 42.5t-18 58.5q-2 -4 -5.5 -16t-8 -27t-10 -30.5t-11.5 -26.5q-11 -22 -24 -34.5t-27.5 -18.5t-31 -7t-34.5 -1q-23 0 -40.5 1.5t-32.5 7t-29 17t-29 32.5q-19 25 -42.5 67.5t-44 96.5t-34.5 116.5t-14 126.5q0 22 3 34.5t15 18.5t35 7.5t63 1.5
q33 0 51 -1.5t26.5 -7.5t10.5 -18.5t2 -35.5q1 -60 9 -112.5t17 -90.5t17.5 -60t10.5 -22t10.5 23.5t18.5 63t17.5 91t8.5 107.5q0 23 1.5 36t8.5 19t22.5 7t43.5 1q49 0 75 -1.5t37.5 -9t13 -22t3.5 -41.5q3 -68 11.5 -119t17 -85.5t16 -52t9.5 -17.5z" />
    <glyph glyph-name="x" unicode="x" horiz-adv-x="572" 
d="M330 102q0 36 -13 55.5t-32 19.5t-32 -19.5t-13 -55.5q0 -38 -2 -58.5t-11 -30t-27.5 -11.5t-51.5 -2q-46 0 -71 1.5t-36.5 10t-13.5 25t-2 46.5q0 55 31 104.5t96 75.5q-65 26 -96 76t-31 105q0 30 2 46.5t13.5 25t36.5 10t71 1.5q33 0 51.5 -2t27.5 -11.5t11 -30.5
t2 -58q0 -36 13 -55t32 -19t32 19t13 55q0 37 2 58t11 30.5t27.5 11.5t51.5 2q46 0 71 -1.5t36.5 -10t13.5 -25t2 -46.5q0 -55 -31 -105t-96 -76q65 -26 96 -75.5t31 -104.5q0 -30 -2 -46.5t-13.5 -25t-36.5 -10t-71 -1.5q-33 0 -51.5 2t-27.5 11.5t-11 30t-2 58.5z" />
    <glyph glyph-name="y" unicode="y" horiz-adv-x="581" 
d="M346 425q0 37 2 58t11 30.5t28 11.5t53 2q42 0 64.5 -1.5t33 -10t12 -25t1.5 -46.5q0 -62 -3.5 -126t-11.5 -128q-12 -89 -35 -171t-64.5 -144.5t-106 -99.5t-158.5 -37q-37 0 -73 5.5t-68 14.5q-28 8 -36 18t-1 38l17 67q8 29 23.5 32t29.5 0q15 -3 39 -7t47 -4
q40 0 66.5 11t43 32.5t26.5 52.5t18 72q-18 -28 -34 -44t-30 -24t-26 -10t-21 -2q-41 0 -69.5 20t-47 54.5t-28.5 80t-14.5 96t-5.5 102.5t-1 101q0 30 1.5 46.5t12 25t33 10t64.5 1.5q34 0 53.5 -2t28.5 -11.5t11 -30.5t2 -58v-32q0 -29 1.5 -69t7.5 -77t16.5 -62.5
t28.5 -25.5q17 0 28.5 24t18 59.5t9.5 76.5t3 74v32z" />
    <glyph glyph-name="z" unicode="z" horiz-adv-x="514" 
d="M254 151h50q38 0 72 0.5t55 1.5q19 1 30 -2t17 -14.5t8.5 -34t6.5 -60.5q2 -20 -5.5 -31t-30.5 -14q-15 -2 -38.5 -3.5t-51 -2.5t-57.5 -1h-59q-57 0 -109 1t-84 6q-43 6 -37 47q1 12 2.5 27t3.5 29t5 25.5t8 16.5l215 234h-48q-35 0 -64.5 -0.5t-50.5 -1.5
q-20 -1 -30.5 1.5t-16 14t-8.5 34t-8 61.5q-3 20 5.5 31t31.5 14q32 5 84 6t108 1t108.5 -1t83.5 -6q23 -3 31 -15t5 -32q-1 -8 -1.5 -21.5t-2.5 -28.5t-6.5 -29.5t-14.5 -24.5z" />
    <glyph glyph-name="braceleft" unicode="{" horiz-adv-x="384" 
d="M248 -138q-38 0 -63.5 13t-41.5 34t-23 48t-7 54v152q0 11 -1.5 24t-8.5 24.5t-22.5 19.5t-42.5 8q-7 0 -10.5 14t-5 32.5t-1.5 36v24.5q0 14 4 25t15 11q27 0 42 8.5t22 20.5t8.5 25t1.5 22v153q0 27 7.5 53.5t23.5 47.5t42 34t63 13q12 0 33 -1t41.5 -5t35 -12
t14.5 -23q0 -22 -3 -48t-8 -48.5t-11 -37.5t-12 -15q-7 0 -11.5 0.5t-7.5 -2.5t-4 -11t-1 -24v-16t0.5 -11.5t0.5 -13v-20.5q0 -34 -5.5 -59.5t-16.5 -45t-28.5 -34.5t-41.5 -27q24 -8 41 -20t28 -30t16 -43.5t5 -61.5v-17t-0.5 -12t-0.5 -12.5v-18.5q0 -16 1 -24t4 -11
t8 -3h12q6 0 12 -15t11 -37.5t8 -48.5t3 -48q0 -15 -15 -23t-35 -12t-41 -5t-34 -1z" />
    <glyph glyph-name="bar" unicode="|" horiz-adv-x="289" 
d="M227 653q0 -36 -0.5 -65t-1.5 -57t-1.5 -55.5t-0.5 -60.5v-570q0 -35 -2 -54t-11 -28.5t-26.5 -11.5t-48.5 -2q-26 0 -40 2t-21.5 11t-9 28.5t-1.5 54.5v570q0 24 -1 64.5t-2.5 82.5t-2.5 77t-1 47q0 23 1.5 36t10.5 19t28 7.5t54 1.5q27 0 42.5 -2t23 -11t9.5 -28.5
t2 -55.5z" />
    <glyph glyph-name="braceright" unicode="}" horiz-adv-x="384" 
d="M136 -138q-13 0 -34 1t-41.5 5t-35 12t-14.5 23q0 22 3 48t8 48.5t11 37.5t12 15h12t8 3t4 11t1 24v18.5t-0.5 12.5t-0.5 12v17q0 36 5 61.5t16 43.5t28 30t41 20q-24 12 -41.5 27t-28.5 34.5t-16.5 45t-5.5 59.5v20.5t0.5 13t0.5 11.5v16q0 16 -1 24t-4 11t-7.5 2.5
t-11.5 -0.5q-6 0 -12 15t-11 37.5t-8 48.5t-3 48q0 15 14.5 23t35 12t41.5 5t33 1q37 0 63 -13t42 -34t23.5 -47.5t7.5 -53.5v-153q0 -9 1.5 -22t8.5 -25t22 -20.5t42 -8.5q11 0 15 -11t4 -25v-24.5t-1.5 -36t-5 -32.5t-10.5 -14q-27 0 -42.5 -8t-22.5 -19.5t-8.5 -24.5
t-1.5 -24v-152q0 -27 -7 -54t-23 -48t-42 -34t-63 -13z" />
    <glyph glyph-name="asciitilde" unicode="~" horiz-adv-x="674" 
d="M420 142q-32 0 -61 13.5t-55 25t-48 12t-40 -26.5q-11 -15 -20.5 -16.5t-29.5 8.5l-74 36q-19 9 -17 19.5t8 21.5q34 62 77.5 93t91.5 31q27 0 49 -8t43 -18t41 -18t42 -8q7 0 15 5.5t14 19.5q6 12 11.5 16.5t13 4t17 -5t21.5 -10.5l53 -25q14 -6 19.5 -13t5.5 -13.5
t-3.5 -14t-8.5 -15.5q-35 -56 -77 -85t-88 -29z" />
    <glyph glyph-name="exclamdown" unicode="&#xa1;" horiz-adv-x="289" 
d="M239 438q0 -38 -7 -60t-21 -33.5t-34.5 -14.5t-47.5 -3q-34 0 -54 2.5t-30.5 10t-13.5 22t-3 38.5v26q0 38 7 60t21 33.5t34.5 14.5t47.5 3q34 0 54 -2.5t30.5 -10t13.5 -22t3 -38.5v-26zM28 -89q0 61 2 114.5t2 116.5v49q0 43 3 66.5t14.5 34.5t34.5 13t63 2
q30 0 47 -2.5t25.5 -14t10.5 -35t2 -64.5v-49q0 -24 1 -64.5t2.5 -82.5t2.5 -77t1 -47q0 -23 -2 -36t-13 -19t-35 -7.5t-67 -1.5q-34 0 -53 2t-28 12t-11 31t-2 59z" />
    <glyph glyph-name="cent" unicode="&#xa2;" horiz-adv-x="487" 
d="M275 -121q-26 0 -40.5 2t-21.5 11t-8.5 26t-1.5 47v35q-177 39 -177 264q0 221 173 263q-1 22 -2 40t-1 29q0 22 1.5 35t10.5 19.5t28 8t54 1.5q27 0 42.5 -2t23 -11t9.5 -28.5t2 -55.5v-30q39 -6 63 -14t31 -20.5t3 -33.5l-13 -76q-5 -23 -17.5 -29t-35.5 -1
q-17 3 -30.5 5.5t-29.5 2.5q-54 0 -79 -26.5t-25 -83.5t25 -83.5t79 -26.5q16 0 29.5 2.5t30.5 5.5q23 5 35.5 -1t17.5 -29l13 -61q5 -23 -2.5 -35t-31.5 -20q-14 -5 -31 -9t-36 -6v-19q0 -35 -2 -54t-11 -28.5t-26.5 -11.5t-48.5 -2z" />
    <glyph glyph-name="sterling" unicode="&#xa3;" horiz-adv-x="617" 
d="M126 425q-11 26 -20 53t-11 52q-2 40 8.5 75t40 60t81 39.5t131.5 14.5q34 0 73.5 -2t72.5 -11t54 -28.5t18 -54.5q-7 -39 -16.5 -60t-19.5 -29q-8 -7 -17.5 -7t-23.5 5q-29 10 -47 12.5t-40 2.5q-47 0 -68.5 -16t-26.5 -39q-3 -14 1 -31t10 -36h59q10 0 20 -2t18 -8.5
t13 -20t5 -35.5v-37q0 -20 -5.5 -32t-14 -18t-18 -7.5t-18.5 -1.5h-49q-16 -42 -49 -63.5t-69 -37.5h23t27 0.5t28 0.5h26q62 0 114 2t94 4q16 1 26 -3.5t16.5 -16.5t11 -33.5t11.5 -54.5q1 -5 1.5 -9.5t0.5 -9.5q-1 -18 -14 -31t-34 -13q-39 -5 -99 -6.5t-128 -1.5h-71.5
t-79.5 1t-71 2.5t-46 4.5q-20 5 -29 25t-12 58q-2 14 -2 31.5v38.5q0 12 8.5 24.5t21.5 26.5t28.5 29t30.5 32h-42q-9 0 -18.5 1.5t-18 7.5t-14 18t-5.5 32v37q0 22 5 35.5t13 20t18 8.5t20 2h68z" />
    <glyph glyph-name="currency" unicode="&#xa4;" horiz-adv-x="496" 
d="M465 58q-19 -19 -30.5 -27.5t-22.5 -7.5t-23.5 11.5t-33.5 30.5l-18 17q-41 -11 -86 -11q-52 0 -92 12l-17 -17q-22 -21 -35 -32t-23.5 -11.5t-22 8.5t-29.5 27q-21 21 -32.5 34.5t-12 26.5t10.5 27t35 37q-19 39 -19 94q0 49 16 85q-23 23 -33.5 37.5t-10.5 26.5
t11.5 25t32.5 33q18 19 29.5 28t22 8t23.5 -11.5t35 -31.5l14 -14q21 6 45 9.5t52 3.5q51 0 92 -12l14 13q22 21 35 31.5t23.5 11.5t22 -8t29.5 -28q21 -20 32 -33t11.5 -25t-9.5 -26t-32 -36q17 -39 17 -87q0 -54 -21 -96q22 -23 32.5 -37t10.5 -26t-11 -25.5t-32 -34.5z
M252 199q18 0 30 7t20 17.5t11.5 22.5t3.5 23q0 10 -3.5 21t-11 20t-20 14.5t-30.5 5.5q-20 0 -33 -5.5t-21 -14.5t-11.5 -20t-3.5 -21q0 -11 3.5 -23t11.5 -22.5t21 -17.5t33 -7z" />
    <glyph glyph-name="yen" unicode="&#xa5;" horiz-adv-x="692" 
d="M245 175v13h-113q-11 0 -22 5.5t-11 29.5v22q0 26 10.5 32.5t22.5 6.5h29q-30 26 -57.5 60.5t-48.5 77.5t-33 95t-12 112q0 33 2 51.5t13 27t34.5 10.5t67.5 2q35 0 55 -2t29.5 -13t11.5 -33.5t2 -62.5q0 -54 14.5 -96.5t34.5 -72t40.5 -44.5t31.5 -15t31.5 15t40.5 44.5
t34.5 72t14.5 96.5q0 40 2 62.5t11.5 33.5t29.5 13t55 2q43 0 67 -2t35 -10.5t13 -27t2 -51.5q0 -60 -12 -112t-33 -95t-48.5 -77.5t-57.5 -60.5h26q12 0 22.5 -6.5t10.5 -32.5v-22q0 -24 -11 -29.5t-22 -5.5h-112v-13h112q12 0 22.5 -6.5t10.5 -33.5v-22q0 -24 -11 -29
t-22 -5h-113q-1 -28 -6 -43.5t-17.5 -23t-34 -9t-56.5 -1.5q-26 0 -42 2t-25 9.5t-13 23t-5 42.5h-113q-11 0 -22 5t-11 29v22q0 27 10.5 33.5t22.5 6.5h113z" />
    <glyph glyph-name="brokenbar" unicode="&#xa6;" horiz-adv-x="281" 
d="M223 417q0 -35 -2 -54t-11 -28.5t-26.5 -11.5t-48.5 -2q-26 0 -40 2t-21.5 11t-9 28.5t-1.5 54.5l-7 259q0 23 1.5 36t10.5 19t28 7.5t54 1.5q27 0 42.5 -2t23 -11t9.5 -28.5t2 -55.5zM223 -87q0 -35 -2 -54t-11 -28.5t-26.5 -11.5t-48.5 -2q-26 0 -40 2t-21.5 11
t-9 28.5t-1.5 54.5l-7 259q0 23 1.5 36t10.5 19t28 7.5t54 1.5q27 0 42.5 -2t23 -11t9.5 -28.5t2 -55.5z" />
    <glyph glyph-name="section" unicode="&#xa7;" horiz-adv-x="519" 
d="M237 76q35 0 47 9t12 18q0 15 -19.5 20.5t-48 9.5t-62.5 11t-62.5 23.5t-48 46.5t-19.5 82q0 42 13 72t34 50q-8 15 -12 34t-4 43q0 58 23.5 93.5t59.5 55t78 26t79 6.5q19 0 43.5 -1.5t49 -4t47 -6.5t39.5 -10q26 -8 34.5 -21t0.5 -39l-16 -56q-4 -14 -11 -21t-15 -9.5
t-17.5 -1t-18.5 3.5q-29 8 -55.5 14t-66.5 6q-34 0 -45.5 -8.5t-11.5 -17.5q0 -14 19.5 -18.5t48 -7.5t62.5 -9.5t62.5 -23.5t48 -48.5t19.5 -86.5q0 -42 -12.5 -72t-33.5 -50q7 -16 11 -35t4 -42q0 -58 -23.5 -93.5t-58.5 -55t-76.5 -26t-77.5 -6.5q-21 0 -50 1.5t-58 4.5
t-54 6.5t-40 8.5q-20 6 -29 19.5t-3 39.5l11 48q6 26 20.5 33t31.5 3q7 -2 24 -5t38 -6t44.5 -5t44.5 -2zM327 302q0 13 -15.5 18.5t-38.5 9.5q-23 -2 -31.5 -9.5t-8.5 -15.5q0 -14 20 -18.5t50 -7.5q14 4 19 10.5t5 12.5z" />
    <glyph glyph-name="dieresis" unicode="&#xa8;" horiz-adv-x="527" 
d="M18 732q0 38 7 60t21 33.5t34.5 14.5t47.5 3q34 0 54 -2.5t30.5 -10t13.5 -22t3 -38.5v-26q0 -38 -7 -60t-21 -33.5t-34.5 -14.5t-47.5 -3q-34 0 -54 2.5t-30.5 10t-13.5 22t-3 38.5v26zM294 732q0 38 7 60t21 33.5t34.5 14.5t47.5 3q34 0 54 -2.5t30.5 -10t13.5 -22
t3 -38.5v-26q0 -38 -7 -60t-21 -33.5t-34.5 -14.5t-47.5 -3q-34 0 -54 2.5t-30.5 10t-13.5 22t-3 38.5v26z" />
    <glyph glyph-name="copyright" unicode="&#xa9;" horiz-adv-x="824" 
d="M411 -13q-95 0 -166 30.5t-117.5 81t-69 114.5t-22.5 131q0 69 24 134.5t71.5 117.5t117.5 83.5t163 31.5q94 0 164 -30.5t116.5 -80.5t70 -114t23.5 -131q0 -69 -23.5 -135t-70.5 -117.5t-117.5 -83.5t-163.5 -32zM411 50q76 0 132.5 26.5t94 69t56 97t17.5 111.5
q-1 55 -19.5 108.5t-56 94.5t-93 66.5t-130.5 25.5q-74 0 -130 -26t-93.5 -69t-57 -97t-19.5 -111q0 -56 18 -109t55 -94.5t93.5 -67t132.5 -25.5zM392 348q0 -45 16 -67.5t53 -22.5q12 0 21.5 2.5t23.5 6.5q16 5 26.5 1.5t14.5 -25.5l9 -42q5 -23 -2 -30t-16 -11
q-27 -11 -47.5 -13.5t-43.5 -2.5q-108 0 -158.5 49t-50.5 155t50.5 156.5t158.5 50.5q23 0 43.5 -2.5t47.5 -13.5q9 -4 16 -11t2 -30l-9 -42q-3 -22 -14 -25.5t-27 1.5q-14 4 -24 6t-21 2q-37 0 -53 -22t-16 -70z" />
    <glyph glyph-name="ordfeminine" unicode="&#xaa;" horiz-adv-x="446" 
d="M7 414q0 34 11 58.5t30.5 40.5t46 23.5t56.5 6.5h17t16 -2q23 -5 42 -16t32 -30v13q0 43 -19.5 58.5t-51.5 15.5q-26 0 -49 -5t-38 -10q-13 -4 -21.5 -4t-15.5 6t-13.5 17.5t-13.5 31.5l-8 21q-11 27 -2 41.5t31 22.5q36 14 72.5 20.5t87.5 6.5q36 0 70 -5.5t62.5 -20.5
t49 -43t28.5 -73q4 -20 4 -48v-150v-23t-1 -17q-3 -33 -23 -43q-11 -5 -29 -6.5t-46 -2.5q-20 -1 -33 -0.5t-21 5t-12.5 13t-6.5 24.5q-13 -20 -32 -30.5t-44 -14.5q-18 -3 -37 -3q-64 -2 -101.5 28t-37.5 94zM223 454q-15 0 -24 -9.5t-9 -27.5t9 -26.5t24 -8.5q34 0 34 35
q0 37 -34 37z" />
    <glyph glyph-name="guillemotleft" unicode="&#xab;" horiz-adv-x="698" 
d="M605 164q15 -21 14 -41t-12.5 -37t-30.5 -28.5t-40.5 -14.5t-43 3.5t-36.5 26.5l-164 207l164 206q15 20 36.5 26.5t43 3.5t40.5 -14.5t30.5 -28.5t12.5 -37t-14 -41l-84 -115zM344 164q15 -21 14.5 -41t-12 -36.5t-31 -28t-41 -15t-43 3t-36.5 26.5l-164 207l164 207
q15 19 36.5 26t43 3.5t40.5 -15t30.5 -28.5t12.5 -37t-14 -41l-84 -115z" />
    <glyph glyph-name="logicalnot" unicode="&#xac;" horiz-adv-x="654" 
d="M599 421v-311h-159v159h-385v152h544z" />
    <glyph glyph-name="registered" unicode="&#xae;" horiz-adv-x="824" 
d="M411 -13q-93 0 -161.5 30.5t-114 81t-67.5 114.5t-22 131q0 69 23.5 134.5t69.5 117.5t114.5 83.5t158.5 31.5q91 0 159.5 -30.5t113.5 -80.5t68 -114t23 -131q0 -69 -23 -135t-68.5 -117.5t-114 -83.5t-159.5 -32zM411 70q68 0 119 24.5t85 64.5t50.5 91t15.5 104
q-1 52 -18 101.5t-50.5 88t-83.5 62t-117 23.5q-66 0 -116.5 -24.5t-84.5 -64t-51.5 -90.5t-17.5 -104q0 -52 16 -101.5t49.5 -88.5t84.5 -62.5t119 -23.5zM245 492q0 18 14.5 31.5t38 22.5t53.5 13.5t61 4.5q52 0 87 -11.5t56 -31.5t29.5 -47t8.5 -58q0 -50 -17.5 -80
t-49.5 -46l45 -63q16 -23 23.5 -37t4.5 -21.5t-16.5 -10t-39.5 -2.5q-32 0 -50 3.5t-28 9.5t-15 14.5t-11 18.5l-41 67h-8t-8 1v-33q0 -30 -2 -46t-9.5 -24t-22 -9.5t-40.5 -1.5q-22 0 -34.5 1.5t-19 9t-8 24t-1.5 45.5v256zM382 381q9 -5 15.5 -5.5t10.5 -0.5q23 0 28.5 12
t5.5 29q0 16 -5 28.5t-28 12.5q-5 0 -12 -1t-15 -5v-70z" />
    <glyph glyph-name="macron" unicode="&#xaf;" horiz-adv-x="354" 
d="M29 633q-14 0 -22 11t-8 23t0.5 28.5t3.5 31.5t9 25.5t16 10.5h295q14 0 22.5 -11t8.5 -23t-1.5 -28.5t-5.5 -31.5t-10.5 -25.5t-16.5 -10.5h-291z" />
    <glyph glyph-name="degree" unicode="&#xb0;" horiz-adv-x="347" 
d="M173 634q-41 0 -70.5 11.5t-48 30.5t-27.5 42.5t-9 47.5t9 48t28 43t48.5 30.5t69.5 11.5t69.5 -11.5t49 -30.5t28.5 -43t9 -49q0 -24 -9.5 -47.5t-29 -42t-48.5 -30t-69 -11.5zM173 732q22 0 31 12t9 24t-9 24.5t-31 12.5q-21 0 -30 -12.5t-9 -24.5q0 -13 9 -24.5
t30 -11.5z" />
    <glyph glyph-name="plusminus" unicode="&#xb1;" horiz-adv-x="662" 
d="M262 298h-163q-11 0 -18 13.5t-7 27.5v29.5t2.5 39t7.5 34.5t15 15h163v162q0 11 13.5 18t27.5 7q10 0 29.5 -0.5t39 -2.5t34.5 -7t15 -15v-162h162q12 0 18.5 -13t6.5 -27q0 -10 -0.5 -29.5t-2.5 -39.5t-7 -35t-15 -15h-162v-163q0 -12 -13 -18.5t-27 -6.5h-29.5
t-39.5 2.5t-35 7.5t-15 15v163zM82 -98q-11 0 -18 13.5t-7 27.5v29.5t2.5 39t7.5 34.5t15 15h502q12 0 18.5 -13t6.5 -27q0 -10 -0.5 -29.5t-2.5 -39.5t-7 -35t-15 -15h-502z" />
    <glyph glyph-name="uni00B2" unicode="&#xb2;" horiz-adv-x="499" 
d="M266 512q-65 0 -123.5 1t-95.5 6q-25 3 -36 17.5t-6 45.5q12 76 36.5 124t54.5 75.5t61.5 40.5t57.5 20t42.5 13t16.5 21q0 -6 1.5 -4t-3 7.5t-17.5 10.5t-43 5h-22t-22 -1.5t-28.5 -5.5t-41.5 -11q-8 -3 -17.5 -3t-18.5 4.5t-16.5 16.5t-12.5 33l-5 22q-6 25 -4.5 41.5
t7.5 26.5t14.5 15t17.5 8q36 12 81.5 19.5t82.5 7.5q47 0 93 -7.5t83 -29t59.5 -61.5t22.5 -106q0 -42 -16.5 -68t-41.5 -41.5t-55.5 -23.5t-58.5 -13.5t-50 -12.5t-30 -21q11 1 18 1.5t15 0.5q47 1 83.5 1.5t62.5 2.5q28 2 42 -6t21 -41l12 -61q6 -30 -7 -44.5t-38 -18.5
q-31 -5 -77 -6t-99 -1z" />
    <glyph glyph-name="uni00B3" unicode="&#xb3;" horiz-adv-x="495" 
d="M224 873q16 0 25 5t9 9q0 1 -6.5 8.5t-26.5 7.5h-26t-20 -1.5t-30 -6t-55 -13.5q-7 -2 -16 -2.5t-18 4t-17 16t-13 32.5l-5 21q-6 25 -5 41t6.5 25t14 13.5t17.5 7.5q35 13 83 20.5t93 7.5t87 -9t74.5 -29t51.5 -52.5t19 -79.5q0 -29 -10 -52.5t-47 -42.5q45 -6 65 -37
t20 -73q0 -38 -15.5 -71t-47.5 -57.5t-82.5 -38.5t-119.5 -14q-24 0 -50.5 1.5t-52 5t-48.5 8t-40 10.5q-9 3 -17.5 7.5t-14 14t-6.5 25t5 39.5l5 21q5 21 12.5 32.5t15.5 16t16.5 4.5t16.5 -2q37 -9 57.5 -13t32 -5.5t17 -1.5h11.5q28 0 44.5 2t25 5t11 7t2.5 8
q0 13 -11 17t-25 4h-55q-8 0 -17.5 1t-17.5 6t-13.5 16.5t-5.5 31.5v37q0 23 5 35.5t12.5 18.5t17.5 7.5t19 1.5h43z" />
    <glyph glyph-name="acute" unicode="&#xb4;" horiz-adv-x="399" 
d="M131 896q6 12 17.5 20.5t26.5 12t32 0.5t34 -14q18 -11 27.5 -26t11.5 -30.5t-2.5 -29.5t-14.5 -22l-162 -131q-14 -11 -25.5 -14t-18.5 1t-8.5 14.5t5.5 27.5z" />
    <glyph glyph-name="mu" unicode="&#xb5;" 
d="M244 -86q0 -38 -2 -59t-11 -31t-28 -12t-53 -2q-45 0 -69 1.5t-35.5 10t-13.5 25.5t-2 47q0 14 1 41t2.5 60.5t3.5 70.5t3 72q-2 10 -2 20.5v22.5q0 19 0.5 37.5t1.5 38.5q-1 28 -3 55.5t-3.5 52t-2.5 44.5t-1 34q0 30 2 47t13.5 25.5t35.5 10t69 1.5q34 0 53 -2t28 -12
t11 -31t2 -59v-232q0 -52 42 -52q32 0 56.5 37.5t24.5 114.5q-3 66 -3 132q0 38 2.5 59t14 31t35.5 12t67 2q34 0 53 -2t28 -12t11 -31t2 -59q0 -62 -3.5 -127.5t-3.5 -128.5v-55q0 -41 -3 -63.5t-14.5 -33t-34.5 -13t-63 -2.5q-29 0 -46 2.5t-25.5 13.5t-11 33.5t-2.5 62.5
v16q-10 -56 -46.5 -88.5t-80.5 -43.5q1 -23 1 -44v-38z" />
    <glyph glyph-name="mu" unicode="&#x3bc;" 
d="M244 -86q0 -38 -2 -59t-11 -31t-28 -12t-53 -2q-45 0 -69 1.5t-35.5 10t-13.5 25.5t-2 47q0 14 1 41t2.5 60.5t3.5 70.5t3 72q-2 10 -2 20.5v22.5q0 19 0.5 37.5t1.5 38.5q-1 28 -3 55.5t-3.5 52t-2.5 44.5t-1 34q0 30 2 47t13.5 25.5t35.5 10t69 1.5q34 0 53 -2t28 -12
t11 -31t2 -59v-232q0 -52 42 -52q32 0 56.5 37.5t24.5 114.5q-3 66 -3 132q0 38 2.5 59t14 31t35.5 12t67 2q34 0 53 -2t28 -12t11 -31t2 -59q0 -62 -3.5 -127.5t-3.5 -128.5v-55q0 -41 -3 -63.5t-14.5 -33t-34.5 -13t-63 -2.5q-29 0 -46 2.5t-25.5 13.5t-11 33.5t-2.5 62.5
v16q-10 -56 -46.5 -88.5t-80.5 -43.5q1 -23 1 -44v-38z" />
    <glyph glyph-name="paragraph" unicode="&#xb6;" horiz-adv-x="657" 
d="M424 16q0 -13 -14.5 -20.5t-29.5 -7.5q-11 0 -33.5 0.5t-45 3.5t-40 8.5t-17.5 15.5v288q-65 0 -108 32t-64.5 79t-22.5 102.5t19 102.5t59.5 78.5t98.5 31.5h362q15 0 29.5 -7.5t14.5 -20.5v-686q0 -13 -14.5 -20.5t-29.5 -7.5q-11 0 -33.5 0.5t-45 3.5t-40 8.5
t-17.5 15.5v482h-28v-482v0z" />
    <glyph glyph-name="periodcentered" unicode="&#xb7;" horiz-adv-x="326" 
d="M56 268q0 38 7 60t21 33.5t34.5 14.5t47.5 3q34 0 54 -2.5t30.5 -10t13.5 -22t3 -38.5v-26q0 -38 -7 -60t-21 -33.5t-34.5 -14.5t-47.5 -3q-34 0 -54 2.5t-30.5 10t-13.5 22t-3 38.5v26z" />
    <glyph glyph-name="cedilla" unicode="&#xb8;" horiz-adv-x="330" 
d="M171 31h38l-28 -50q82 -1 123 -30t41 -90q0 -35 -12.5 -59t-33.5 -39t-49.5 -21.5t-59.5 -6.5q-28 0 -53.5 4.5t-46.5 12t-36.5 16.5t-24.5 18q-11 12 -7 19.5t20 1.5q17 -7 38 -13.5t48 -6.5q44 0 64 18t20 42q0 25 -17 36t-35.5 18t-31.5 13.5t-5 22.5z" />
    <glyph glyph-name="uni00B9" unicode="&#xb9;" horiz-adv-x="290" 
d="M174 1060q27 0 44.5 -1t28 -6t15 -16t6.5 -31q1 -10 1 -22.5v-27.5q0 -41 -2 -73t-2 -74v-171q0 -35 -2 -57t-8 -35q-5 -10 -13 -15t-20.5 -7.5t-30.5 -3t-42 -0.5q-35 0 -53 3.5t-25 23.5q-5 13 -6 34.5t-1 55.5v103v31.5v30t-0.5 35t-1.5 45.5h-10q-23 0 -35.5 2
t-18.5 12t-7.5 29t-1.5 54q0 29 2 45.5t11.5 24.5t30.5 9.5t60 1.5h81v0z" />
    <glyph glyph-name="ordmasculine" unicode="&#xba;" horiz-adv-x="494" 
d="M246 293q-115 0 -175.5 60t-60.5 164q0 102 60.5 158t175.5 56q116 0 177 -56t61 -158q0 -104 -61.5 -164t-176.5 -60zM246 432q11 0 18 6.5t11 17t5.5 23.5t1.5 26q0 26 -7 46.5t-29 20.5q-21 0 -27.5 -20.5t-6.5 -46.5q0 -13 1.5 -26t5 -23.5t10 -17t17.5 -6.5z" />
    <glyph glyph-name="guillemotright" unicode="&#xbb;" horiz-adv-x="659" 
d="M175 280l-84 115q-15 21 -14 41t12.5 37t30.5 28.5t40.5 14.5t42.5 -3.5t37 -26.5l164 -206l-164 -207q-15 -20 -36.5 -26.5t-43 -3.5t-40.5 14.5t-30.5 28.5t-12.5 37t14 41zM436 280l-84 115q-15 21 -14 41t12.5 37t30.5 28.5t40.5 15t42.5 -3.5t37 -26l164 -207
l-164 -207q-16 -20 -37 -26.5t-42.5 -3t-41 15t-31 28t-12 36.5t14.5 41z" />
    <glyph glyph-name="onequarter" unicode="&#xbc;" horiz-adv-x="1210" 
d="M1034 533q29 0 50 -2t31.5 -7t10.5 -15.5t-12 -26.5l-198 -263h13q0 12 4.5 19t17 11t34.5 5t58 1q45 0 65 -4t25 -27q11 -1 17.5 -6t12 -17t10 -33t10.5 -52q6 -29 -6 -43t-36 -17q-3 -1 -9 -1q-2 -25 -7.5 -38.5t-18 -20t-34 -7.5t-54.5 -1q-24 0 -39 1.5t-24 7.5
t-13 18.5t-5 34.5h-59h-49.5t-50.5 0.5t-47.5 2t-40.5 3.5q-24 3 -34.5 17t-4.5 45q3 15 10 37.5t24 47.5l196 276q14 19 24 30t24.5 16.5t38.5 6.5t66 1zM344 -101q-17 0 -32 2.5t-24.5 8t-13.5 13.5t1 19l359 791q8 19 27 27t61 8q17 0 32 -2.5t24.5 -8t13.5 -13.5t-1 -19
l-359 -791q-8 -19 -27 -27t-61 -8zM210 720q27 0 44.5 -1t28 -6t15 -16t6.5 -31q1 -10 1 -22.5v-27.5q0 -41 -2 -73t-2 -74v-171q0 -35 -2 -57t-8 -35q-5 -10 -13 -15t-20.5 -7.5t-30.5 -3t-42 -0.5q-35 0 -53 3.5t-25 23.5q-5 13 -6 34.5t-1 55.5v103v31.5v30t-0.5 35
t-1.5 45.5h-10q-23 0 -35.5 2t-18.5 12t-7.5 29t-1.5 54q0 29 2 45.5t11.5 24.5t30.5 9.5t60 1.5h81z" />
    <glyph glyph-name="onehalf" unicode="&#xbd;" horiz-adv-x="1175" 
d="M927 -9q-65 0 -123.5 1t-95.5 6q-25 3 -36 17.5t-6 45.5q12 76 36.5 124t54.5 75.5t61.5 40.5t57.5 20t42.5 13t16.5 21q0 -6 1.5 -4t-3 7.5t-17.5 10.5t-43 5h-22t-22 -1.5t-28.5 -5.5t-41.5 -11q-8 -3 -17.5 -3t-18.5 4.5t-16.5 16.5t-12.5 33l-5 22q-6 25 -4.5 41.5
t7.5 26.5t14.5 15t17.5 8q36 12 81.5 19.5t82.5 7.5q47 0 93 -7.5t83 -29t59.5 -61.5t22.5 -106q0 -42 -16.5 -68t-41.5 -41.5t-55.5 -23.5t-58.5 -13.5t-50 -12.5t-30 -21q11 1 18 1.5t15 0.5q47 1 83.5 1.5t62.5 2.5q28 2 42 -6t21 -41l12 -61q6 -30 -7 -44.5t-38 -18.5
q-31 -5 -77 -6t-99 -1zM734 713q11 -6 20.5 -18t7.5 -23l-43 -76l-342 -612q-5 -8 -21 -9.5t-28 2.5q-7 2 -23.5 9t-33 16t-28 19t-6.5 18l390 700q4 9 18.5 7.5t32 -7.5t34 -14t22.5 -12zM210 719q27 0 44.5 -1t28 -6t15 -16t6.5 -31q1 -10 1 -22.5v-27.5q0 -41 -2 -73
t-2 -74v-171q0 -35 -2 -57t-8 -35q-5 -10 -13 -15t-20.5 -7.5t-30.5 -3t-42 -0.5q-35 0 -53 3.5t-25 23.5q-5 13 -6 34.5t-1 55.5v103v31.5v30t-0.5 35t-1.5 45.5h-10q-23 0 -35.5 2t-18.5 12t-7.5 29t-1.5 54q0 29 2 45.5t11.5 24.5t30.5 9.5t60 1.5h81z" />
    <glyph glyph-name="threequarters" unicode="&#xbe;" horiz-adv-x="1304" 
d="M249 534q16 0 25 5t9 9q0 1 -6.5 8.5t-26.5 7.5h-26t-20 -1.5t-30 -6t-55 -13.5q-7 -2 -16 -2.5t-18 4t-17 16t-13 32.5l-5 21q-6 25 -5 41t6.5 25t14 13.5t17.5 7.5q35 13 83 20.5t93 7.5t87 -9t74.5 -29t51.5 -52.5t19 -79.5q0 -29 -10 -52.5t-47 -42.5q45 -6 65 -37
t20 -73q0 -38 -15.5 -71t-47.5 -57.5t-82.5 -38.5t-119.5 -14q-24 0 -50.5 1.5t-52 5t-48.5 8t-40 10.5q-9 3 -17.5 7.5t-14 14t-6.5 25t5 39.5l5 21q5 21 12.5 32.5t15.5 16t16.5 4.5t16.5 -2q37 -9 57.5 -13t32 -5.5t17 -1.5h11.5q28 0 44.5 2t25 5t11 7t2.5 8
q0 13 -11 17t-25 4h-55q-8 0 -17.5 1t-17.5 6t-13.5 16.5t-5.5 31.5v37q0 23 5 35.5t12.5 18.5t17.5 7.5t19 1.5h43zM1128 544q29 0 50 -2t31.5 -7t10.5 -15.5t-12 -26.5l-198 -263h13q0 12 4.5 19t17 11t34.5 5t58 1q45 0 65 -4t25 -27q11 -1 17.5 -6t12 -17t10 -33
t10.5 -52q6 -29 -6 -43t-36 -17q-3 -1 -9 -1q-2 -25 -7.5 -38.5t-18 -20t-34 -7.5t-54.5 -1q-24 0 -39 1.5t-24 7.5t-13 18.5t-5 34.5h-59h-49.5t-50.5 0.5t-47.5 2t-40.5 3.5q-24 3 -34.5 17t-4.5 45q3 15 10 37.5t24 47.5l196 276q14 19 24 30t24.5 16.5t38.5 6.5t66 1z
M486 -101q-17 0 -32 2.5t-24.5 8t-13.5 13.5t1 19l359 791q8 19 27 27t61 8q17 0 32 -2.5t24.5 -8t13.5 -13.5t-1 -19l-359 -791q-8 -19 -27 -27t-61 -8z" />
    <glyph glyph-name="questiondown" unicode="&#xbf;" horiz-adv-x="551" 
d="M357 317q55 0 74 -14.5t18 -45.5q-1 -47 -16.5 -76.5t-38.5 -49t-49.5 -31.5t-49.5 -22.5t-38 -23t-15 -32.5q0 -8 3 -16.5t14 -16t32 -12.5t58 -5q34 0 71 5.5t82 19.5q9 3 19 3.5t19 -4t16.5 -16t12.5 -32.5l5 -20q6 -24 5 -40t-6.5 -25.5t-14.5 -15t-19 -8.5
q-19 -7 -44 -13t-52 -10.5t-55 -7.5t-52 -3q-54 0 -107 7.5t-96 29.5t-69.5 63t-26.5 107q0 49 16.5 80t41 50.5t53.5 31t53.5 22.5t41 24.5t16.5 37.5q0 29 23.5 44t74.5 15zM468 446q0 -38 -7 -60t-21 -33.5t-34.5 -14.5t-47.5 -3q-34 0 -54 2.5t-30.5 10t-13.5 22
t-3 38.5v26q0 38 7 60t21 33.5t34.5 14.5t47.5 3q34 0 54 -2.5t30.5 -10t13.5 -22t3 -38.5v-26z" />
    <glyph glyph-name="Agrave" unicode="&#xc0;" horiz-adv-x="779" 
d="M497 78q0 19 -1 37t-3 37h-254q-2 -19 -3 -37t-1 -37q0 -27 -2 -43t-12 -23.5t-31.5 -9.5t-61.5 -2q-34 0 -53.5 1.5t-29.5 9.5t-12.5 23.5t-2.5 44.5q0 96 19 183t50 162t68.5 135.5t75.5 103.5q16 19 28.5 30.5t25 17.5t27.5 7.5t38 1.5q24 0 40.5 -1.5t30 -7.5
t26.5 -18t30 -32q36 -42 73.5 -102.5t68 -134.5t50 -161.5t19.5 -183.5q0 -29 -3 -44.5t-14.5 -23.5t-34 -9.5t-62.5 -1.5q-33 0 -50.5 1.5t-26 9t-10.5 23t-2 44.5zM391 817q13 -33 -3 -42.5t-44 13.5l-162 131q-10 8 -14.5 22t-2.5 29.5t11.5 30.5t27.5 26q17 11 34 14
t32 -0.5t26.5 -12t17.5 -20.5zM365 519q-4 0 -15 -16t-24.5 -45t-29 -69t-28.5 -88h196q-14 48 -29.5 88t-29.5 69t-25 45t-15 16z" />
    <glyph glyph-name="Aacute" unicode="&#xc1;" horiz-adv-x="779" 
d="M497 78q0 19 -1 37t-3 37h-254q-2 -19 -3 -37t-1 -37q0 -27 -2 -43t-12 -23.5t-31.5 -9.5t-61.5 -2q-34 0 -53.5 1.5t-29.5 9.5t-12.5 23.5t-2.5 44.5q0 96 19 183t50 162t68.5 135.5t75.5 103.5q16 19 28.5 30.5t25 17.5t27.5 7.5t38 1.5q24 0 40.5 -1.5t30 -7.5
t26.5 -18t30 -32q36 -42 73.5 -102.5t68 -134.5t50 -161.5t19.5 -183.5q0 -29 -3 -44.5t-14.5 -23.5t-34 -9.5t-62.5 -1.5q-33 0 -50.5 1.5t-26 9t-10.5 23t-2 44.5zM414 999q6 12 17.5 20.5t26.5 12t32 0.5t34 -14q18 -11 27.5 -26t11.5 -30.5t-2.5 -29.5t-14.5 -22
l-162 -131q-14 -11 -25.5 -14t-18.5 1t-8.5 14.5t5.5 27.5zM365 519q-4 0 -15 -16t-24.5 -45t-29 -69t-28.5 -88h196q-14 48 -29.5 88t-29.5 69t-25 45t-15 16z" />
    <glyph glyph-name="Acircumflex" unicode="&#xc2;" horiz-adv-x="779" 
d="M497 78q0 19 -1 37t-3 37h-254q-2 -19 -3 -37t-1 -37q0 -27 -2 -43t-12 -23.5t-31.5 -9.5t-61.5 -2q-34 0 -53.5 1.5t-29.5 9.5t-12.5 23.5t-2.5 44.5q0 96 19 183t50 162t68.5 135.5t75.5 103.5q16 19 28.5 30.5t25 17.5t27.5 7.5t38 1.5q24 0 40.5 -1.5t30 -7.5
t26.5 -18t30 -32q36 -42 73.5 -102.5t68 -134.5t50 -161.5t19.5 -183.5q0 -29 -3 -44.5t-14.5 -23.5t-34 -9.5t-62.5 -1.5q-33 0 -50.5 1.5t-26 9t-10.5 23t-2 44.5zM267 772q-25 -12 -35.5 -6t-21.5 22q-6 9 -9 15t-2 12.5t7.5 14.5t19.5 19l123 124q2 2 7.5 4.5t11.5 2.5
t11.5 -2.5t7.5 -4.5l123 -124q25 -23 26.5 -33.5t-10.5 -27.5q-11 -17 -21.5 -22.5t-35.5 6.5l-101 50zM365 519q-4 0 -15 -16t-24.5 -45t-29 -69t-28.5 -88h196q-14 48 -29.5 88t-29.5 69t-25 45t-15 16z" />
    <glyph glyph-name="Atilde" unicode="&#xc3;" horiz-adv-x="779" 
d="M497 78q0 19 -1 37t-3 37h-254q-2 -19 -3 -37t-1 -37q0 -27 -2 -43t-12 -23.5t-31.5 -9.5t-61.5 -2q-34 0 -53.5 1.5t-29.5 9.5t-12.5 23.5t-2.5 44.5q0 96 19 183t50 162t68.5 135.5t75.5 103.5q16 19 28.5 30.5t25 17.5t27.5 7.5t38 1.5q24 0 40.5 -1.5t30 -7.5
t26.5 -18t30 -32q36 -42 73.5 -102.5t68 -134.5t50 -161.5t19.5 -183.5q0 -29 -3 -44.5t-14.5 -23.5t-34 -9.5t-62.5 -1.5q-33 0 -50.5 1.5t-26 9t-10.5 23t-2 44.5zM404 766q-10 0 -29 6.5t-39 12t-37 5t-23 -13.5q0 -2 -3 -5t-11.5 -4t-24 2t-41.5 14q-23 10 -18 33
q10 55 43.5 87t77.5 30q15 -1 38.5 -9t46.5 -13.5t42 -5t26 17.5q0 2 3 5t11.5 4t24 -2t41.5 -14q22 -11 18 -33q-6 -32 -20 -55t-34 -37t-43.5 -20.5t-48.5 -4.5zM365 519q-4 0 -15 -16t-24.5 -45t-29 -69t-28.5 -88h196q-14 48 -29.5 88t-29.5 69t-25 45t-15 16z" />
    <glyph glyph-name="Adieresis" unicode="&#xc4;" horiz-adv-x="779" 
d="M497 78q0 19 -1 37t-3 37h-254q-2 -19 -3 -37t-1 -37q0 -27 -2 -43t-12 -23.5t-31.5 -9.5t-61.5 -2q-34 0 -53.5 1.5t-29.5 9.5t-12.5 23.5t-2.5 44.5q0 96 19 183t50 162t68.5 135.5t75.5 103.5q16 19 28.5 30.5t25 17.5t27.5 7.5t38 1.5q24 0 40.5 -1.5t30 -7.5
t26.5 -18t30 -32q36 -42 73.5 -102.5t68 -134.5t50 -161.5t19.5 -183.5q0 -29 -3 -44.5t-14.5 -23.5t-34 -9.5t-62.5 -1.5q-33 0 -50.5 1.5t-26 9t-10.5 23t-2 44.5zM121 869q0 38 7 60t21 33.5t34.5 14.5t47.5 3q34 0 54 -2.5t30.5 -10t13.5 -22t3 -38.5v-26q0 -38 -7 -60
t-21 -33.5t-34.5 -14.5t-47.5 -3q-34 0 -54 2.5t-30.5 10t-13.5 22t-3 38.5v26zM397 869q0 38 7 60t21 33.5t34.5 14.5t47.5 3q34 0 54 -2.5t30.5 -10t13.5 -22t3 -38.5v-26q0 -38 -7 -60t-21 -33.5t-34.5 -14.5t-47.5 -3q-34 0 -54 2.5t-30.5 10t-13.5 22t-3 38.5v26z
M365 519q-4 0 -15 -16t-24.5 -45t-29 -69t-28.5 -88h196q-14 48 -29.5 88t-29.5 69t-25 45t-15 16z" />
    <glyph glyph-name="Aring" unicode="&#xc5;" horiz-adv-x="779" 
d="M497 78q0 19 -1 37t-3 37h-254q-2 -19 -3 -37t-1 -37q0 -27 -2 -43t-12 -23.5t-31.5 -9.5t-61.5 -2q-34 0 -53.5 1.5t-29.5 9.5t-12.5 23.5t-2.5 44.5q0 96 19 183t50 162t68.5 135.5t75.5 103.5q16 19 28.5 30.5t25 17.5t27.5 7.5t38 1.5q24 0 40.5 -1.5t30 -7.5
t26.5 -18t30 -32q36 -42 73.5 -102.5t68 -134.5t50 -161.5t19.5 -183.5q0 -29 -3 -44.5t-14.5 -23.5t-34 -9.5t-62.5 -1.5q-33 0 -50.5 1.5t-26 9t-10.5 23t-2 44.5zM362 771q-41 0 -70.5 11.5t-48 30.5t-27.5 42.5t-9 47.5t9 48t28 43t48.5 30.5t69.5 11.5t69.5 -11.5
t49 -30.5t28.5 -43t9 -49q0 -24 -9.5 -47.5t-29 -42t-48.5 -30t-69 -11.5zM365 519q-4 0 -15 -16t-24.5 -45t-29 -69t-28.5 -88h196q-14 48 -29.5 88t-29.5 69t-25 45t-15 16zM362 869q22 0 31 12t9 24t-9 24.5t-31 12.5q-21 0 -30 -12.5t-9 -24.5q0 -13 9 -24.5t30 -11.5z
" />
    <glyph glyph-name="AE" unicode="&#xc6;" horiz-adv-x="1140" 
d="M741 564q10 -29 16.5 -62.5t8.5 -72.5h247q18 0 29.5 -1.5t18 -8t8.5 -18.5t0 -33l-4 -42q-2 -18 -7.5 -29t-13.5 -16t-18 -6.5t-20 -1.5h-249q-5 -28 -11.5 -57t-14.5 -60h292q18 0 29.5 -1.5t18 -8t8.5 -18.5t0 -33l-4 -42q-2 -18 -7.5 -29t-13.5 -16t-18 -6.5
t-20 -1.5h-443q-35 0 -54 2t-25 13t-1 33t19 63q4 11 7.5 22.5t6.5 22.5h-270l-16 -45q-14 -41 -23.5 -63t-22.5 -33t-33.5 -13t-55.5 -2q-39 0 -60 2t-28 10.5t-2.5 27t15.5 51.5q36 108 83.5 196.5t100.5 158.5t107 121.5t103.5 85.5t90.5 50.5t67 16.5h471
q18 0 29.5 -1.5t18 -8t8.5 -18.5t0 -33l-4 -42q-2 -18 -7.5 -29t-13.5 -16t-18 -6.5t-20 -1.5h-305zM519 529q-9 0 -28 -14.5t-44.5 -42.5t-55.5 -68.5t-60 -91.5h227q6 51 3.5 91.5t-9 68.5t-16 42.5t-17.5 14.5z" />
    <glyph glyph-name="Ccedilla" unicode="&#xc7;" horiz-adv-x="634" 
d="M376 -9q-173 6 -258 96t-85 272q0 189 91 280t279 91q48 0 88.5 -6.5t81.5 -21.5q15 -5 25 -16t3 -43l-12 -58q-6 -31 -21.5 -36t-40.5 2q-22 6 -48 11.5t-57 5.5q-87 0 -128 -52t-41 -157q0 -104 41 -155.5t128 -51.5q31 0 57 5.5t48 11.5q25 7 40.5 2t21.5 -36l12 -58
q7 -32 -3 -43t-25 -16q-38 -14 -77 -20.5t-84 -7.5l-15 -28q82 -1 123 -30t41 -90q0 -35 -12.5 -59t-33.5 -39t-49.5 -21.5t-59.5 -6.5q-28 0 -53.5 4.5t-46.5 12t-36.5 16.5t-24.5 18q-11 12 -7 19.5t20 1.5q17 -7 38 -13.5t48 -6.5q44 0 64 18t20 42q0 25 -17 36t-35.5 18
t-31.5 13.5t-5 22.5z" />
    <glyph glyph-name="Egrave" unicode="&#xc8;" horiz-adv-x="584" 
d="M132 0q-30 0 -47 2.5t-25.5 14t-10.5 35t-2 64.5v269q0 24 -1 64.5t-2.5 82.5t-2.5 77t-1 47q0 22 2 34.5t11.5 19t30 8.5t58.5 2h349q18 0 29.5 -1.5t18 -8t8.5 -18.5t0 -33l-4 -42q-2 -18 -7.5 -29t-13.5 -16t-18 -6.5t-20 -1.5h-234l-3 -125h214q18 0 29.5 -1.5t18 -8
t8.5 -18.5t0 -33l-4 -42q-2 -18 -7.5 -29t-13.5 -16t-18 -6.5t-20 -1.5h-207v-127h244q18 0 29.5 -1.5t18 -8t8.5 -18.5t0 -33l-4 -42q-2 -18 -7.5 -29t-13.5 -16t-18 -6.5t-20 -1.5h-352zM340 817q13 -33 -3 -42.5t-44 13.5l-162 131q-10 8 -14.5 22t-2.5 29.5t11.5 30.5
t27.5 26q17 11 34 14t32 -0.5t26.5 -12t17.5 -20.5z" />
    <glyph glyph-name="Eacute" unicode="&#xc9;" horiz-adv-x="584" 
d="M132 0q-30 0 -47 2.5t-25.5 14t-10.5 35t-2 64.5v269q0 24 -1 64.5t-2.5 82.5t-2.5 77t-1 47q0 22 2 34.5t11.5 19t30 8.5t58.5 2h349q18 0 29.5 -1.5t18 -8t8.5 -18.5t0 -33l-4 -42q-2 -18 -7.5 -29t-13.5 -16t-18 -6.5t-20 -1.5h-234l-3 -125h214q18 0 29.5 -1.5t18 -8
t8.5 -18.5t0 -33l-4 -42q-2 -18 -7.5 -29t-13.5 -16t-18 -6.5t-20 -1.5h-207v-127h244q18 0 29.5 -1.5t18 -8t8.5 -18.5t0 -33l-4 -42q-2 -18 -7.5 -29t-13.5 -16t-18 -6.5t-20 -1.5h-352zM363 999q6 12 17.5 20.5t26.5 12t32 0.5t34 -14q18 -11 27.5 -26t11.5 -30.5
t-2.5 -29.5t-14.5 -22l-162 -131q-14 -11 -25.5 -14t-18.5 1t-8.5 14.5t5.5 27.5z" />
    <glyph glyph-name="Ecircumflex" unicode="&#xca;" horiz-adv-x="584" 
d="M132 0q-30 0 -47 2.5t-25.5 14t-10.5 35t-2 64.5v269q0 24 -1 64.5t-2.5 82.5t-2.5 77t-1 47q0 23 2 36t13 19t34.5 7.5t67.5 1.5h334q18 0 29.5 -1.5t18 -8t8.5 -18.5t0 -33l-4 -42q-2 -18 -7.5 -29t-13.5 -16t-18 -6.5t-20 -1.5h-234l-3 -125h214q18 0 29.5 -1.5t18 -8
t8.5 -18.5t0 -33l-4 -42q-2 -18 -7.5 -29t-13.5 -16t-18 -6.5t-20 -1.5h-207v-127h244q18 0 29.5 -1.5t18 -8t8.5 -18.5t0 -33l-4 -42q-2 -18 -7.5 -29t-13.5 -16t-18 -6.5t-20 -1.5h-352zM216 772q-25 -12 -35.5 -6t-21.5 22q-6 9 -9 15t-2 12.5t7.5 14.5t19.5 19l123 124
q2 2 7.5 4.5t11.5 2.5t11.5 -2.5t7.5 -4.5l123 -124q25 -23 26.5 -33.5t-10.5 -27.5q-11 -17 -21.5 -22.5t-35.5 6.5l-101 50z" />
    <glyph glyph-name="Edieresis" unicode="&#xcb;" horiz-adv-x="584" 
d="M132 0q-30 0 -47 2.5t-25.5 14t-10.5 35t-2 64.5v269q0 24 -1 64.5t-2.5 82.5t-2.5 77t-1 47q0 23 2 36t13 19t34.5 7.5t67.5 1.5h334q18 0 29.5 -1.5t18 -8t8.5 -18.5t0 -33l-4 -42q-2 -18 -7.5 -29t-13.5 -16t-18 -6.5t-20 -1.5h-234l-3 -125h214q18 0 29.5 -1.5t18 -8
t8.5 -18.5t0 -33l-4 -42q-2 -18 -7.5 -29t-13.5 -16t-18 -6.5t-20 -1.5h-207v-127h244q18 0 29.5 -1.5t18 -8t8.5 -18.5t0 -33l-4 -42q-2 -18 -7.5 -29t-13.5 -16t-18 -6.5t-20 -1.5h-352zM346 869q0 38 7 60t21 33.5t34.5 14.5t47.5 3q34 0 54 -2.5t30.5 -10t13.5 -22
t3 -38.5v-26q0 -38 -7 -60t-21 -33.5t-34.5 -14.5t-47.5 -3q-34 0 -54 2.5t-30.5 10t-13.5 22t-3 38.5v26zM70 869q0 38 7 60t21 33.5t34.5 14.5t47.5 3q34 0 54 -2.5t30.5 -10t13.5 -22t3 -38.5v-26q0 -38 -7 -60t-21 -33.5t-34.5 -14.5t-47.5 -3q-34 0 -54 2.5t-30.5 10
t-13.5 22t-3 38.5v26z" />
    <glyph glyph-name="Igrave" unicode="&#xcc;" horiz-adv-x="289" 
d="M247 616q0 -31 -0.5 -59t-1.5 -56t-1.5 -56.5t-0.5 -59.5v-269q0 -43 -3 -66.5t-14.5 -34.5t-34.5 -13t-63 -2q-30 0 -47 2.5t-25.5 14t-10.5 35t-2 64.5v269q0 24 -1 64.5t-2.5 82.5t-2.5 77t-1 47q0 23 2 36t13 19t34.5 7.5t67.5 1.5q34 0 53 -2t28 -12t11 -31t2 -59z
M168 817q13 -33 -3 -42.5t-44 13.5l-162 131q-10 8 -14.5 22t-2.5 29.5t11.5 30.5t27.5 26q17 11 34 14t32 -0.5t26.5 -12t17.5 -20.5z" />
    <glyph glyph-name="Iacute" unicode="&#xcd;" horiz-adv-x="289" 
d="M247 616q0 -31 -0.5 -59t-1.5 -56t-1.5 -56.5t-0.5 -59.5v-269q0 -43 -3 -66.5t-14.5 -34.5t-34.5 -13t-63 -2q-30 0 -47 2.5t-25.5 14t-10.5 35t-2 64.5v269q0 24 -1 64.5t-2.5 82.5t-2.5 77t-1 47q0 23 2 36t13 19t34.5 7.5t67.5 1.5q34 0 53 -2t28 -12t11 -31t2 -59z
M191 999q6 12 17.5 20.5t26.5 12t32 0.5t34 -14q18 -11 27.5 -26t11.5 -30.5t-2.5 -29.5t-14.5 -22l-162 -131q-14 -11 -25.5 -14t-18.5 1t-8.5 14.5t5.5 27.5z" />
    <glyph glyph-name="Icircumflex" unicode="&#xce;" horiz-adv-x="289" 
d="M247 616q0 -31 -0.5 -59t-1.5 -56t-1.5 -56.5t-0.5 -59.5v-269q0 -43 -3 -66.5t-14.5 -34.5t-34.5 -13t-63 -2q-30 0 -47 2.5t-25.5 14t-10.5 35t-2 64.5v269q0 24 -1 64.5t-2.5 82.5t-2.5 77t-1 47q0 23 2 36t13 19t34.5 7.5t67.5 1.5q34 0 53 -2t28 -12t11 -31t2 -59z
M44 772q-25 -12 -35.5 -6t-21.5 22q-6 9 -9 15t-2 12.5t7.5 14.5t19.5 19l123 124q2 2 7.5 4.5t11.5 2.5t11.5 -2.5t7.5 -4.5l123 -124q25 -23 26.5 -33.5t-10.5 -27.5q-11 -17 -21.5 -22.5t-35.5 6.5l-101 50z" />
    <glyph glyph-name="Idieresis" unicode="&#xcf;" horiz-adv-x="289" 
d="M247 616q0 -31 -0.5 -59t-1.5 -56t-1.5 -56.5t-0.5 -59.5v-269q0 -43 -3 -66.5t-14.5 -34.5t-34.5 -13t-63 -2q-30 0 -47 2.5t-25.5 14t-10.5 35t-2 64.5v269q0 24 -1 64.5t-2.5 82.5t-2.5 77t-1 47q0 23 2 36t13 19t34.5 7.5t67.5 1.5q34 0 53 -2t28 -12t11 -31t2 -59z
M-102 869q0 38 7 60t21 33.5t34.5 14.5t47.5 3q34 0 54 -2.5t30.5 -10t13.5 -22t3 -38.5v-26q0 -38 -7 -60t-21 -33.5t-34.5 -14.5t-47.5 -3q-34 0 -54 2.5t-30.5 10t-13.5 22t-3 38.5v26zM174 869q0 38 7 60t21 33.5t34.5 14.5t47.5 3q34 0 54 -2.5t30.5 -10t13.5 -22
t3 -38.5v-26q0 -38 -7 -60t-21 -33.5t-34.5 -14.5t-47.5 -3q-34 0 -54 2.5t-30.5 10t-13.5 22t-3 38.5v26z" />
    <glyph glyph-name="Eth" unicode="&#xd0;" horiz-adv-x="802" 
d="M105 431q-1 28 -2 60.5t-2 61.5t-1.5 50t-0.5 26q0 20 15 35.5t40 26.5t57 18.5t66 12t66.5 6.5t59.5 2q188 0 278.5 -90t90.5 -282q0 -189 -92 -278.5t-293 -89.5q-21 0 -50 1t-60 4t-61.5 8.5t-55 14t-39.5 20.5t-15 28v203h-27q-9 0 -18.5 1.5t-18 7.5t-14 18t-5.5 32
v37q0 22 5 35.5t13 20t18 8.5t20 2h26zM307 568q-1 -21 -2 -37.5t-1.5 -31.5t-0.5 -31v-37h43q10 0 20 -2t18 -8.5t13 -20t5 -35.5v-37q0 -20 -5.5 -32t-14 -18t-18 -7.5t-18.5 -1.5h-43v-123q23 -2 48 -3.5t40 -1.5q88 0 126.5 52t38.5 166q0 116 -40.5 167.5t-131.5 51.5
q-16 0 -35.5 -2t-41.5 -8z" />
    <glyph glyph-name="Ntilde" unicode="&#xd1;" horiz-adv-x="745" 
d="M705 621q0 -63 -1.5 -117.5t-1.5 -118.5v-275q0 -41 -3 -63t-14 -32.5t-33 -12.5t-60 -2q-33 0 -49.5 3.5t-24.5 20.5l-281 399v-313q0 -41 -3 -63t-14 -32.5t-33 -12.5t-60 -2q-28 0 -44 2.5t-24 13.5t-10 33t-2 61v275q0 24 -1 65t-2.5 83.5t-2.5 78t-1 47.5q0 22 2 34
t12.5 18t33 7.5t63.5 1.5q35 0 53.5 -2.5t26.5 -13.5l280 -392v73q0 24 -1 65t-2.5 83.5t-2.5 78t-1 47.5q0 22 2 34t12.5 18t33 7.5t63.5 1.5q33 0 51 -2t26.5 -11.5t10.5 -29.5t2 -56zM410 766q-10 0 -29 6.5t-39 12t-37 5t-23 -13.5q0 -2 -3 -5t-11.5 -4t-24 2t-41.5 14
q-23 10 -18 33q10 55 43.5 87t77.5 30q15 -1 38.5 -9t46.5 -13.5t42 -5t26 17.5q0 2 3 5t11.5 4t24 -2t41.5 -14q22 -11 18 -33q-6 -32 -20 -55t-34 -37t-43.5 -20.5t-48.5 -4.5z" />
    <glyph glyph-name="Ograve" unicode="&#xd2;" horiz-adv-x="808" 
d="M33 368q0 99 29.5 168t80 112t118 62.5t143.5 19.5t144 -19.5t118 -62.5t79.5 -112t29.5 -168t-29.5 -170.5t-80 -117.5t-118 -68t-143.5 -22t-143.5 22t-118 68t-80 117.5t-29.5 170.5zM404 137q34 0 62 13t48 40t31 69t11 100t-11 98t-31 64.5t-48 35t-62 10.5
t-61.5 -10.5t-47.5 -35t-31 -64.5t-11 -98q0 -116 41.5 -169t109.5 -53zM430 817q13 -33 -3 -42.5t-44 13.5l-162 131q-10 8 -14.5 22t-2.5 29.5t11.5 30.5t27.5 26q17 11 34 14t32 -0.5t26.5 -12t17.5 -20.5z" />
    <glyph glyph-name="Oacute" unicode="&#xd3;" horiz-adv-x="808" 
d="M33 368q0 99 29.5 168t80 112t118 62.5t143.5 19.5t144 -19.5t118 -62.5t79.5 -112t29.5 -168t-29.5 -170.5t-80 -117.5t-118 -68t-143.5 -22t-143.5 22t-118 68t-80 117.5t-29.5 170.5zM404 137q34 0 62 13t48 40t31 69t11 100t-11 98t-31 64.5t-48 35t-62 10.5
t-61.5 -10.5t-47.5 -35t-31 -64.5t-11 -98q0 -116 41.5 -169t109.5 -53zM453 999q6 12 17.5 20.5t26.5 12t32 0.5t34 -14q18 -11 27.5 -26t11.5 -30.5t-2.5 -29.5t-14.5 -22l-162 -131q-14 -11 -25.5 -14t-18.5 1t-8.5 14.5t5.5 27.5z" />
    <glyph glyph-name="Ocircumflex" unicode="&#xd4;" horiz-adv-x="808" 
d="M33 368q0 99 29.5 168t80 112t118 62.5t143.5 19.5t144 -19.5t118 -62.5t79.5 -112t29.5 -168t-29.5 -170.5t-80 -117.5t-118 -68t-143.5 -22t-143.5 22t-118 68t-80 117.5t-29.5 170.5zM404 137q34 0 62 13t48 40t31 69t11 100t-11 98t-31 64.5t-48 35t-62 10.5
t-61.5 -10.5t-47.5 -35t-31 -64.5t-11 -98q0 -116 41.5 -169t109.5 -53zM306 772q-25 -12 -35.5 -6t-21.5 22q-6 9 -9 15t-2 12.5t7.5 14.5t19.5 19l123 124q2 2 7.5 4.5t11.5 2.5t11.5 -2.5t7.5 -4.5l123 -124q25 -23 26.5 -33.5t-10.5 -27.5q-11 -17 -21.5 -22.5
t-35.5 6.5l-101 50z" />
    <glyph glyph-name="Otilde" unicode="&#xd5;" horiz-adv-x="808" 
d="M33 368q0 99 29.5 168t80 112t118 62.5t143.5 19.5t144 -19.5t118 -62.5t79.5 -112t29.5 -168t-29.5 -170.5t-80 -117.5t-118 -68t-143.5 -22t-143.5 22t-118 68t-80 117.5t-29.5 170.5zM404 137q34 0 62 13t48 40t31 69t11 100t-11 98t-31 64.5t-48 35t-62 10.5
t-61.5 -10.5t-47.5 -35t-31 -64.5t-11 -98q0 -116 41.5 -169t109.5 -53zM443 766q-10 0 -29 6.5t-39 12t-37 5t-23 -13.5q0 -2 -3 -5t-11.5 -4t-24 2t-41.5 14q-23 10 -18 33q10 55 43.5 87t77.5 30q15 -1 38.5 -9t46.5 -13.5t42 -5t26 17.5q0 2 3 5t11.5 4t24 -2t41.5 -14
q22 -11 18 -33q-6 -32 -20 -55t-34 -37t-43.5 -20.5t-48.5 -4.5z" />
    <glyph glyph-name="Odieresis" unicode="&#xd6;" horiz-adv-x="808" 
d="M33 368q0 99 29.5 168t80 112t118 62.5t143.5 19.5t144 -19.5t118 -62.5t79.5 -112t29.5 -168t-29.5 -170.5t-80 -117.5t-118 -68t-143.5 -22t-143.5 22t-118 68t-80 117.5t-29.5 170.5zM404 137q34 0 62 13t48 40t31 69t11 100t-11 98t-31 64.5t-48 35t-62 10.5
t-61.5 -10.5t-47.5 -35t-31 -64.5t-11 -98q0 -116 41.5 -169t109.5 -53zM160 869q0 38 7 60t21 33.5t34.5 14.5t47.5 3q34 0 54 -2.5t30.5 -10t13.5 -22t3 -38.5v-26q0 -38 -7 -60t-21 -33.5t-34.5 -14.5t-47.5 -3q-34 0 -54 2.5t-30.5 10t-13.5 22t-3 38.5v26zM436 869
q0 38 7 60t21 33.5t34.5 14.5t47.5 3q34 0 54 -2.5t30.5 -10t13.5 -22t3 -38.5v-26q0 -38 -7 -60t-21 -33.5t-34.5 -14.5t-47.5 -3q-34 0 -54 2.5t-30.5 10t-13.5 22t-3 38.5v26z" />
    <glyph glyph-name="multiply" unicode="&#xd7;" horiz-adv-x="651" 
d="M212 265l-115 115q-8 8 -3.5 22t14.5 25q7 7 21 20.5t29.5 26t29.5 19.5t21 0l116 -116l114 115q8 8 22 3.5t25 -14.5q7 -7 20.5 -21t26 -29.5t19.5 -29.5t0 -21l-115 -115l115 -115q8 -8 4 -21.5t-15 -24.5q-7 -7 -21 -20.5t-29.5 -26t-30 -19.5t-21.5 0l-114 115
l-116 -116q-8 -8 -21.5 -4t-24.5 15q-7 7 -20.5 21t-26 29.5t-19.5 30t0 21.5z" />
    <glyph glyph-name="Oslash" unicode="&#xd8;" horiz-adv-x="808" 
d="M215 -71q-17 0 -32 2.5t-24.5 8t-13.5 13.5t1 19l35 77q-67 45 -107.5 123t-40.5 196q0 99 29.5 168t80 112t118 62.5t143.5 19.5q42 0 83 -6l18 39q8 19 27 27t61 8q17 0 32 -2.5t24.5 -8t13.5 -13.5t-1 -19l-36 -79q34 -20 61.5 -49t47 -67t30 -86t10.5 -106
q0 -99 -29.5 -170.5t-80 -117.5t-118 -68t-143.5 -22q-43 0 -86 8l-15 -34q-8 -19 -27 -27t-61 -8zM404 137q34 0 62 13t48 40t31 69t11 100q0 38 -5 68t-14 53l-155 -342q5 -1 10.5 -1h11.5zM253 359q0 -71 15 -117l148 324q-3 0 -6 0.5t-6 0.5q-34 0 -61.5 -10.5
t-47.5 -35t-31 -64.5t-11 -98z" />
    <glyph glyph-name="Ugrave" unicode="&#xd9;" horiz-adv-x="700" 
d="M242 267q0 -59 27.5 -89.5t81.5 -30.5t80.5 30.5t26.5 89.5q0 49 -0.5 91.5t-1 83.5t-1 82.5t-0.5 89.5q0 39 1.5 60.5t10 31.5t26.5 12t50 2q46 0 70.5 -1.5t36 -7.5t13.5 -19t2 -36q0 -2 -0.5 -28.5t-1 -65t-1.5 -84.5t-2 -88.5t-1.5 -76t-0.5 -46.5q-1 -60 -19.5 -111
t-55.5 -88t-94 -57.5t-136 -20.5q-65 0 -121 15.5t-97.5 48.5t-66.5 85.5t-26 127.5q0 14 -0.5 50t-1.5 82.5t-2 96.5t-1.5 92t-1 70.5t-0.5 31.5q0 20 30 25t94 5q31 0 49 -2t26 -12.5t10 -32.5t2 -61q0 -45 -0.5 -86.5t-1.5 -82.5t-1.5 -84t-0.5 -92zM377 817
q13 -33 -3 -42.5t-44 13.5l-162 131q-10 8 -14.5 22t-2.5 29.5t11.5 30.5t27.5 26q17 11 34 14t32 -0.5t26.5 -12t17.5 -20.5z" />
    <glyph glyph-name="Uacute" unicode="&#xda;" horiz-adv-x="700" 
d="M242 267q0 -59 27.5 -89.5t81.5 -30.5t80.5 30.5t26.5 89.5q0 49 -0.5 91.5t-1 83.5t-1 82.5t-0.5 89.5q0 39 1.5 60.5t10 31.5t26.5 12t50 2q46 0 70.5 -1.5t36 -7.5t13.5 -19t2 -36q0 -2 -0.5 -28.5t-1 -65t-1.5 -84.5t-2 -88.5t-1.5 -76t-0.5 -46.5q-1 -60 -19.5 -111
t-55.5 -88t-94 -57.5t-136 -20.5q-65 0 -121 15.5t-97.5 48.5t-66.5 85.5t-26 127.5q0 14 -0.5 50t-1.5 82.5t-2 96.5t-1.5 92t-1 70.5t-0.5 31.5q0 20 30 25t94 5q31 0 49 -2t26 -12.5t10 -32.5t2 -61q0 -45 -0.5 -86.5t-1.5 -82.5t-1.5 -84t-0.5 -92zM400 999
q6 12 17.5 20.5t26.5 12t32 0.5t34 -14q18 -11 27.5 -26t11.5 -30.5t-2.5 -29.5t-14.5 -22l-162 -131q-14 -11 -25.5 -14t-18.5 1t-8.5 14.5t5.5 27.5z" />
    <glyph glyph-name="Ucircumflex" unicode="&#xdb;" horiz-adv-x="700" 
d="M242 267q0 -59 27.5 -89.5t81.5 -30.5t80.5 30.5t26.5 89.5q0 49 -0.5 91.5t-1 83.5t-1 82.5t-0.5 89.5q0 39 1.5 60.5t10 31.5t26.5 12t50 2q46 0 70.5 -1.5t36 -7.5t13.5 -19t2 -36q0 -2 -0.5 -28.5t-1 -65t-1.5 -84.5t-2 -88.5t-1.5 -76t-0.5 -46.5q-1 -60 -19.5 -111
t-55.5 -88t-94 -57.5t-136 -20.5q-65 0 -121 15.5t-97.5 48.5t-66.5 85.5t-26 127.5q0 14 -0.5 50t-1.5 82.5t-2 96.5t-1.5 92t-1 70.5t-0.5 31.5q0 20 30 25t94 5q31 0 49 -2t26 -12.5t10 -32.5t2 -61q0 -45 -0.5 -86.5t-1.5 -82.5t-1.5 -84t-0.5 -92zM253 772
q-25 -12 -35.5 -6t-21.5 22q-6 9 -9 15t-2 12.5t7.5 14.5t19.5 19l123 124q2 2 7.5 4.5t11.5 2.5t11.5 -2.5t7.5 -4.5l123 -124q25 -23 26.5 -33.5t-10.5 -27.5q-11 -17 -21.5 -22.5t-35.5 6.5l-101 50z" />
    <glyph glyph-name="Udieresis" unicode="&#xdc;" horiz-adv-x="700" 
d="M242 267q0 -59 27.5 -89.5t81.5 -30.5t80.5 30.5t26.5 89.5q0 49 -0.5 91.5t-1 83.5t-1 82.5t-0.5 89.5q0 39 1.5 60.5t10 31.5t26.5 12t50 2q46 0 70.5 -1.5t36 -7.5t13.5 -19t2 -36q0 -2 -0.5 -28.5t-1 -65t-1.5 -84.5t-2 -88.5t-1.5 -76t-0.5 -46.5q-1 -60 -19.5 -111
t-55.5 -88t-94 -57.5t-136 -20.5q-65 0 -121 15.5t-97.5 48.5t-66.5 85.5t-26 127.5q0 14 -0.5 50t-1.5 82.5t-2 96.5t-1.5 92t-1 70.5t-0.5 31.5q0 20 30 25t94 5q31 0 49 -2t26 -12.5t10 -32.5t2 -61q0 -45 -0.5 -86.5t-1.5 -82.5t-1.5 -84t-0.5 -92zM107 869q0 38 7 60
t21 33.5t34.5 14.5t47.5 3q34 0 54 -2.5t30.5 -10t13.5 -22t3 -38.5v-26q0 -38 -7 -60t-21 -33.5t-34.5 -14.5t-47.5 -3q-34 0 -54 2.5t-30.5 10t-13.5 22t-3 38.5v26zM383 869q0 38 7 60t21 33.5t34.5 14.5t47.5 3q34 0 54 -2.5t30.5 -10t13.5 -22t3 -38.5v-26
q0 -38 -7 -60t-21 -33.5t-34.5 -14.5t-47.5 -3q-34 0 -54 2.5t-30.5 10t-13.5 22t-3 38.5v26z" />
    <glyph glyph-name="Yacute" unicode="&#xdd;" horiz-adv-x="692" 
d="M346 381q11 0 31.5 15t40.5 44.5t34.5 72t14.5 96.5q0 40 2 62.5t11.5 33.5t29.5 13t55 2q43 0 67 -2t35 -10.5t13 -27t2 -51.5q0 -81 -21.5 -146.5t-56 -116t-76.5 -85t-83 -54.5v-109q0 -43 -3 -66.5t-14.5 -34.5t-34.5 -13t-63 -2q-30 0 -47 2.5t-25.5 14t-10.5 35
t-2 64.5v110q-41 20 -83 54.5t-75.5 84.5t-55 115.5t-21.5 146.5q0 33 2 51.5t13 27t34.5 10.5t67.5 2q35 0 55 -2t29.5 -13t11.5 -33.5t2 -62.5q0 -54 14.5 -96.5t34.5 -72t40.5 -44.5t31.5 -15zM379 999q6 12 17.5 20.5t26.5 12t32 0.5t34 -14q18 -11 27.5 -26t11.5 -30.5
t-2.5 -29.5t-14.5 -22l-162 -131q-14 -11 -25.5 -14t-18.5 1t-8.5 14.5t5.5 27.5z" />
    <glyph glyph-name="Thorn" unicode="&#xde;" horiz-adv-x="654" 
d="M251 609q17 1 35 1h36q90 0 151 -19t97.5 -52.5t52.5 -79.5t16 -100t-16 -100.5t-52.5 -80t-97.5 -52.5t-151 -19h-38t-37 1q0 -40 -3.5 -61.5t-15.5 -32t-34.5 -12.5t-61.5 -2q-30 0 -47 2.5t-25.5 14t-10.5 35t-2 64.5v269q0 24 -1 64.5t-2.5 82.5t-2.5 77t-1 47
q0 23 2 36t13 19t34.5 7.5t67.5 1.5q34 0 53 -2t28 -12t11 -31t2 -59v-7zM335 451q-24 0 -46 -1t-42 -3v-177q39 -3 88 -3q27 0 44 8t27 21t13.5 29.5t3.5 33.5t-3.5 33.5t-13.5 29.5t-27 21t-44 8z" />
    <glyph glyph-name="germandbls" unicode="&#xdf;" horiz-adv-x="745" 
d="M40 489q0 142 76 211.5t241 69.5q86 0 143.5 -17.5t91.5 -46.5t48 -66t14 -75q0 -32 -8.5 -62t-25 -54t-40.5 -39t-55 -17q-29 -2 -44 -6t-15 -18q0 -16 19 -21.5t47 -9t61.5 -10t61.5 -23t47 -47.5t19 -85q0 -66 -28 -103.5t-72 -55.5t-97 -21t-103 0q-42 3 -77 6.5
t-57 12.5q-18 8 -25.5 21t-2.5 36q7 28 12 45.5t11 26.5t15.5 11t24.5 0q7 -1 23 -4t35.5 -6t41.5 -5.5t42 -2.5q40 0 51 9t11 19q0 18 -19 23.5t-47 9t-61 9t-61 23t-47 51t-19 93.5q0 55 16 87t39 49t48.5 22.5t45.5 7.5q12 2 20 7t8 15q0 5 -3.5 11t-12.5 11t-25 8t-42 3
q-67 0 -96.5 -23.5t-29.5 -72.5v-384q0 -40 -3 -62.5t-14 -33.5t-33 -13.5t-60 -2.5q-31 0 -49 2.5t-27 13t-11.5 33t-2.5 63.5v377v0z" />
    <glyph glyph-name="agrave" unicode="&#xe0;" horiz-adv-x="571" 
d="M20 142q0 41 13.5 71.5t37 50.5t55.5 30t69 10q45 0 82 -14t59 -49v29q0 29 -7 47.5t-20 29.5t-30 15.5t-38 4.5q-32 0 -62 -7t-48 -12q-23 -8 -39 -2t-27 36l-18 49q-11 32 -1.5 47.5t35.5 25.5q42 16 88 24.5t108 8.5q48 0 94 -8.5t83 -34t59.5 -72t22.5 -123.5v-187
q0 -41 -3 -63.5t-14.5 -33t-34.5 -13t-63 -2.5q-23 0 -38 1t-24.5 6.5t-14 16t-6.5 28.5q-22 -36 -61 -49t-87 -13q-78 0 -124 37.5t-46 114.5zM302 606q13 -33 -3 -42.5t-44 13.5l-162 131q-10 8 -14.5 22t-2.5 29.5t11.5 30.5t27.5 26q17 11 34 14t32 -0.5t26.5 -12
t17.5 -20.5zM282 201q-25 0 -38 -14.5t-13 -40.5q0 -52 51 -52q25 0 39 13t14 39t-14 40.5t-39 14.5z" />
    <glyph glyph-name="aacute" unicode="&#xe1;" horiz-adv-x="571" 
d="M20 142q0 41 13.5 71.5t37 50.5t55.5 30t69 10q45 0 82 -14t59 -49v29q0 29 -7 47.5t-20 29.5t-30 15.5t-38 4.5q-32 0 -62 -7t-48 -12q-23 -8 -39 -2t-27 36l-18 49q-11 32 -1.5 47.5t35.5 25.5q42 16 88 24.5t108 8.5q48 0 94 -8.5t83 -34t59.5 -72t22.5 -123.5v-187
q0 -41 -3 -63.5t-14.5 -33t-34.5 -13t-63 -2.5q-23 0 -38 1t-24.5 6.5t-14 16t-6.5 28.5q-22 -36 -61 -49t-87 -13q-78 0 -124 37.5t-46 114.5zM325 788q6 12 17.5 20.5t26.5 12t32 0.5t34 -14q18 -11 27.5 -26t11.5 -30.5t-2.5 -29.5t-14.5 -22l-162 -131
q-14 -11 -25.5 -14t-18.5 1t-8.5 14.5t5.5 27.5zM282 201q-25 0 -38 -14.5t-13 -40.5q0 -52 51 -52q25 0 39 13t14 39t-14 40.5t-39 14.5z" />
    <glyph glyph-name="acircumflex" unicode="&#xe2;" horiz-adv-x="571" 
d="M20 142q0 41 13.5 71.5t37 50.5t55.5 30t69 10q45 0 82 -14t59 -49v29q0 29 -7 47.5t-20 29.5t-30 15.5t-38 4.5q-32 0 -62 -7t-48 -12q-23 -8 -39 -2t-27 36l-18 49q-11 32 -1.5 47.5t35.5 25.5q42 16 88 24.5t108 8.5q48 0 94 -8.5t83 -34t59.5 -72t22.5 -123.5v-187
q0 -41 -3 -63.5t-14.5 -33t-34.5 -13t-63 -2.5q-23 0 -38 1t-24.5 6.5t-14 16t-6.5 28.5q-22 -36 -61 -49t-87 -13q-78 0 -124 37.5t-46 114.5zM178 561q-25 -12 -35.5 -6t-21.5 22q-6 9 -9 15t-2 12.5t7.5 14.5t19.5 19l123 124q2 2 7.5 4.5t11.5 2.5t11.5 -2.5t7.5 -4.5
l123 -124q25 -23 26.5 -33.5t-10.5 -27.5q-11 -17 -21.5 -22.5t-35.5 6.5l-101 50zM282 201q-25 0 -38 -14.5t-13 -40.5q0 -52 51 -52q25 0 39 13t14 39t-14 40.5t-39 14.5z" />
    <glyph glyph-name="atilde" unicode="&#xe3;" horiz-adv-x="571" 
d="M20 142q0 41 13.5 71.5t37 50.5t55.5 30t69 10q45 0 82 -14t59 -49v29q0 29 -7 47.5t-20 29.5t-30 15.5t-38 4.5q-32 0 -62 -7t-48 -12q-23 -8 -39 -2t-27 36l-18 49q-11 32 -1.5 47.5t35.5 25.5q42 16 88 24.5t108 8.5q48 0 94 -8.5t83 -34t59.5 -72t22.5 -123.5v-187
q0 -41 -3 -63.5t-14.5 -33t-34.5 -13t-63 -2.5q-23 0 -38 1t-24.5 6.5t-14 16t-6.5 28.5q-22 -36 -61 -49t-87 -13q-78 0 -124 37.5t-46 114.5zM315 555q-10 0 -29 6.5t-39 12t-37 5t-23 -13.5q0 -2 -3 -5t-11.5 -4t-24 2t-41.5 14q-23 10 -18 33q10 55 43.5 87t77.5 30
q15 -1 38.5 -9t46.5 -13.5t42 -5t26 17.5q0 2 3 5t11.5 4t24 -2t41.5 -14q22 -11 18 -33q-6 -32 -20 -55t-34 -37t-43.5 -20.5t-48.5 -4.5zM282 201q-25 0 -38 -14.5t-13 -40.5q0 -52 51 -52q25 0 39 13t14 39t-14 40.5t-39 14.5z" />
    <glyph glyph-name="adieresis" unicode="&#xe4;" horiz-adv-x="571" 
d="M20 142q0 41 13.5 71.5t37 50.5t55.5 30t69 10q45 0 82 -14t59 -49v29q0 29 -7 47.5t-20 29.5t-30 15.5t-38 4.5q-32 0 -62 -7t-48 -12q-23 -8 -39 -2t-27 36l-18 49q-11 32 -1.5 47.5t35.5 25.5q42 16 88 24.5t108 8.5q48 0 94 -8.5t83 -34t59.5 -72t22.5 -123.5v-187
q0 -41 -3 -63.5t-14.5 -33t-34.5 -13t-63 -2.5q-23 0 -38 1t-24.5 6.5t-14 16t-6.5 28.5q-22 -36 -61 -49t-87 -13q-78 0 -124 37.5t-46 114.5zM308 658q0 38 7 60t21 33.5t34.5 14.5t47.5 3q34 0 54 -2.5t30.5 -10t13.5 -22t3 -38.5v-26q0 -38 -7 -60t-21 -33.5
t-34.5 -14.5t-47.5 -3q-34 0 -54 2.5t-30.5 10t-13.5 22t-3 38.5v26zM32 658q0 38 7 60t21 33.5t34.5 14.5t47.5 3q34 0 54 -2.5t30.5 -10t13.5 -22t3 -38.5v-26q0 -38 -7 -60t-21 -33.5t-34.5 -14.5t-47.5 -3q-34 0 -54 2.5t-30.5 10t-13.5 22t-3 38.5v26zM282 201
q-25 0 -38 -14.5t-13 -40.5q0 -52 51 -52q25 0 39 13t14 39t-14 40.5t-39 14.5z" />
    <glyph glyph-name="aring" unicode="&#xe5;" horiz-adv-x="571" 
d="M20 142q0 41 13.5 71.5t37 50.5t55.5 30t69 10q45 0 82 -14t59 -49v29q0 29 -7 47.5t-20 29.5t-30 15.5t-38 4.5q-32 0 -62 -7t-48 -12q-23 -8 -39 -2t-27 36l-18 49q-11 32 -1.5 47.5t35.5 25.5q42 16 88 24.5t108 8.5q48 0 94 -8.5t83 -34t59.5 -72t22.5 -123.5v-187
q0 -41 -3 -63.5t-14.5 -33t-34.5 -13t-63 -2.5q-23 0 -38 1t-24.5 6.5t-14 16t-6.5 28.5q-22 -36 -61 -49t-87 -13q-78 0 -124 37.5t-46 114.5zM273 560q-41 0 -70.5 11.5t-48 30.5t-27.5 42.5t-9 47.5t9 48t28 43t48.5 30.5t69.5 11.5t69.5 -11.5t49 -30.5t28.5 -43t9 -49
q0 -24 -9.5 -47.5t-29 -42t-48.5 -30t-69 -11.5zM282 201q-25 0 -38 -14.5t-13 -40.5q0 -52 51 -52q25 0 39 13t14 39t-14 40.5t-39 14.5zM273 658q22 0 31 12t9 24t-9 24.5t-31 12.5q-21 0 -30 -12.5t-9 -24.5q0 -13 9 -24.5t30 -11.5z" />
    <glyph glyph-name="ae" unicode="&#xe6;" horiz-adv-x="900" 
d="M20 142q0 41 13.5 71.5t37 50.5t55.5 30t69 10q43 0 80 -13.5t61 -42.5v22q0 29 -7 47.5t-20 29.5t-30 15.5t-38 4.5q-32 0 -62 -7t-48 -12q-22 -7 -38 -2.5t-28 36.5l-18 49q-11 32 -1.5 47.5t35.5 25.5q42 16 88 24.5t108 8.5q47 0 91.5 -8t81.5 -32q65 40 168 40
q114 0 180 -57t66 -178q0 -54 -23.5 -83.5t-80.5 -29.5h-208q14 -32 40 -41t61 -9q18 0 32 1t26.5 4t26.5 7.5t33 10.5q23 8 35 3.5t21 -30.5l20 -56q6 -21 -1 -31t-31 -21q-37 -17 -81.5 -27t-102.5 -10q-97 0 -164 35t-99 105q-3 -37 -17.5 -63.5t-38 -43.5t-55 -25
t-67.5 -8q-78 0 -124 37.5t-46 114.5zM617 392q-31 0 -50 -19.5t-25 -62.5h152q-2 44 -22 63t-55 19zM282 203q-25 0 -38 -15.5t-13 -41.5t13 -40t38 -14t39 14t14 40t-14 41.5t-39 15.5z" />
    <glyph glyph-name="ccedilla" unicode="&#xe7;" horiz-adv-x="485" 
d="M254 -8q-229 17 -229 272q0 274 265 274q42 0 80 -5.5t59 -13.5q24 -8 31 -20.5t3 -33.5l-13 -76q-5 -23 -17.5 -29t-35.5 -1q-17 3 -30.5 5.5t-29.5 2.5q-54 0 -79 -26.5t-25 -83.5t25 -83.5t79 -26.5q16 0 29.5 2.5t30.5 5.5q23 5 35.5 -1t17.5 -29l13 -61
q5 -23 -2.5 -35t-31.5 -20q-26 -10 -64 -14.5t-76 -4.5l-5 -10q82 -1 123 -30t41 -90q0 -35 -12.5 -59t-33.5 -39t-49.5 -21.5t-59.5 -6.5q-28 0 -53.5 4.5t-46.5 12t-36.5 16.5t-24.5 18q-11 12 -7 19.5t20 1.5q17 -7 38 -13.5t48 -6.5q44 0 64 18t20 42q0 25 -17 36
t-35.5 18t-31.5 13.5t-5 22.5z" />
    <glyph glyph-name="egrave" unicode="&#xe8;" horiz-adv-x="583" 
d="M235 189q14 -32 40 -41t61 -9q18 0 32 1t26.5 4t26.5 7.5t33 10.5q23 8 35 3.5t21 -30.5l20 -56q6 -21 -1 -31t-31 -21q-37 -17 -81.5 -27t-102.5 -10q-137 0 -213 70t-76 209q0 138 73.5 203t202.5 65q114 0 180 -57t66 -178q0 -54 -23.5 -83.5t-80.5 -29.5h-208z
M330 606q13 -33 -3 -42.5t-44 13.5l-162 131q-10 8 -14.5 22t-2.5 29.5t11.5 30.5t27.5 26q17 11 34 14t32 -0.5t26.5 -12t17.5 -20.5zM300 392q-31 0 -50 -19.5t-25 -62.5h152q-2 44 -22 63t-55 19z" />
    <glyph glyph-name="eacute" unicode="&#xe9;" horiz-adv-x="583" 
d="M235 189q14 -32 40 -41t61 -9q18 0 32 1t26.5 4t26.5 7.5t33 10.5q23 8 35 3.5t21 -30.5l20 -56q6 -21 -1 -31t-31 -21q-37 -17 -81.5 -27t-102.5 -10q-137 0 -213 70t-76 209q0 138 73.5 203t202.5 65q114 0 180 -57t66 -178q0 -54 -23.5 -83.5t-80.5 -29.5h-208z
M353 788q6 12 17.5 20.5t26.5 12t32 0.5t34 -14q18 -11 27.5 -26t11.5 -30.5t-2.5 -29.5t-14.5 -22l-162 -131q-14 -11 -25.5 -14t-18.5 1t-8.5 14.5t5.5 27.5zM300 392q-31 0 -50 -19.5t-25 -62.5h152q-2 44 -22 63t-55 19z" />
    <glyph glyph-name="ecircumflex" unicode="&#xea;" horiz-adv-x="583" 
d="M235 189q14 -32 40 -41t61 -9q18 0 32 1t26.5 4t26.5 7.5t33 10.5q23 8 35 3.5t21 -30.5l20 -56q6 -21 -1 -31t-31 -21q-37 -17 -81.5 -27t-102.5 -10q-137 0 -213 70t-76 209q0 138 73.5 203t202.5 65q114 0 180 -57t66 -178q0 -54 -23.5 -83.5t-80.5 -29.5h-208z
M206 561q-25 -12 -35.5 -6t-21.5 22q-6 9 -9 15t-2 12.5t7.5 14.5t19.5 19l123 124q2 2 7.5 4.5t11.5 2.5t11.5 -2.5t7.5 -4.5l123 -124q25 -23 26.5 -33.5t-10.5 -27.5q-11 -17 -21.5 -22.5t-35.5 6.5l-101 50zM300 392q-31 0 -50 -19.5t-25 -62.5h152q-2 44 -22 63t-55 19
z" />
    <glyph glyph-name="edieresis" unicode="&#xeb;" horiz-adv-x="583" 
d="M235 189q14 -32 40 -41t61 -9q18 0 32 1t26.5 4t26.5 7.5t33 10.5q23 8 35 3.5t21 -30.5l20 -56q6 -21 -1 -31t-31 -21q-37 -17 -81.5 -27t-102.5 -10q-137 0 -213 70t-76 209q0 138 73.5 203t202.5 65q114 0 180 -57t66 -178q0 -54 -23.5 -83.5t-80.5 -29.5h-208z
M336 658q0 38 7 60t21 33.5t34.5 14.5t47.5 3q34 0 54 -2.5t30.5 -10t13.5 -22t3 -38.5v-26q0 -38 -7 -60t-21 -33.5t-34.5 -14.5t-47.5 -3q-34 0 -54 2.5t-30.5 10t-13.5 22t-3 38.5v26zM60 658q0 38 7 60t21 33.5t34.5 14.5t47.5 3q34 0 54 -2.5t30.5 -10t13.5 -22
t3 -38.5v-26q0 -38 -7 -60t-21 -33.5t-34.5 -14.5t-47.5 -3q-34 0 -54 2.5t-30.5 10t-13.5 22t-3 38.5v26zM300 392q-31 0 -50 -19.5t-25 -62.5h152q-2 44 -22 63t-55 19z" />
    <glyph glyph-name="igrave" unicode="&#xec;" horiz-adv-x="284" 
d="M246 423q0 -62 -2 -127.5t-2 -128.5v-55q0 -41 -3 -63.5t-14.5 -33t-34.5 -13t-63 -2.5q-29 0 -46 2.5t-25.5 13.5t-11 33.5t-2.5 62.5v55q0 16 -0.5 42t-1.5 56t-1.5 61.5t-1.5 59t-1.5 48.5t-0.5 29q0 23 2 36t13 19t34.5 7.5t67.5 1.5q34 0 53 -2t28 -12t11 -31t2 -59
zM168 606q13 -33 -3 -42.5t-44 13.5l-162 131q-10 8 -14.5 22t-2.5 29.5t11.5 30.5t27.5 26q17 11 34 14t32 -0.5t26.5 -12t17.5 -20.5z" />
    <glyph glyph-name="iacute" unicode="&#xed;" horiz-adv-x="284" 
d="M246 423q0 -62 -2 -127.5t-2 -128.5v-55q0 -41 -3 -63.5t-14.5 -33t-34.5 -13t-63 -2.5q-29 0 -46 2.5t-25.5 13.5t-11 33.5t-2.5 62.5v55q0 16 -0.5 42t-1.5 56t-1.5 61.5t-1.5 59t-1.5 48.5t-0.5 29q0 23 2 36t13 19t34.5 7.5t67.5 1.5q34 0 53 -2t28 -12t11 -31t2 -59
zM191 788q6 12 17.5 20.5t26.5 12t32 0.5t34 -14q18 -11 27.5 -26t11.5 -30.5t-2.5 -29.5t-14.5 -22l-162 -131q-14 -11 -25.5 -14t-18.5 1t-8.5 14.5t5.5 27.5z" />
    <glyph glyph-name="icircumflex" unicode="&#xee;" horiz-adv-x="284" 
d="M246 423q0 -62 -2 -127.5t-2 -128.5v-55q0 -41 -3 -63.5t-14.5 -33t-34.5 -13t-63 -2.5q-29 0 -46 2.5t-25.5 13.5t-11 33.5t-2.5 62.5v55q0 16 -0.5 42t-1.5 56t-1.5 61.5t-1.5 59t-1.5 48.5t-0.5 29q0 23 2 36t13 19t34.5 7.5t67.5 1.5q34 0 53 -2t28 -12t11 -31t2 -59
zM44 561q-25 -12 -35.5 -6t-21.5 22q-6 9 -9 15t-2 12.5t7.5 14.5t19.5 19l123 124q2 2 7.5 4.5t11.5 2.5t11.5 -2.5t7.5 -4.5l123 -124q25 -23 26.5 -33.5t-10.5 -27.5q-11 -17 -21.5 -22.5t-35.5 6.5l-101 50z" />
    <glyph glyph-name="idieresis" unicode="&#xef;" horiz-adv-x="284" 
d="M246 423q0 -62 -2 -127.5t-2 -128.5v-55q0 -41 -3 -63.5t-14.5 -33t-34.5 -13t-63 -2.5q-29 0 -46 2.5t-25.5 13.5t-11 33.5t-2.5 62.5v55q0 16 -0.5 42t-1.5 56t-1.5 61.5t-1.5 59t-1.5 48.5t-0.5 29q0 23 2 36t13 19t34.5 7.5t67.5 1.5q34 0 53 -2t28 -12t11 -31t2 -59
zM174 658q0 38 7 60t21 33.5t34.5 14.5t47.5 3q34 0 54 -2.5t30.5 -10t13.5 -22t3 -38.5v-26q0 -38 -7 -60t-21 -33.5t-34.5 -14.5t-47.5 -3q-34 0 -54 2.5t-30.5 10t-13.5 22t-3 38.5v26zM-102 658q0 38 7 60t21 33.5t34.5 14.5t47.5 3q34 0 54 -2.5t30.5 -10t13.5 -22
t3 -38.5v-26q0 -38 -7 -60t-21 -33.5t-34.5 -14.5t-47.5 -3q-34 0 -54 2.5t-30.5 10t-13.5 22t-3 38.5v26z" />
    <glyph glyph-name="eth" unicode="&#xf0;" horiz-adv-x="654" 
d="M629 267q0 -64 -23 -114.5t-64 -86t-97 -54.5t-122 -19q-54 0 -107.5 14t-95.5 44.5t-68.5 80t-26.5 120.5q0 49 13.5 90t40 70.5t64.5 46t87 16.5q48 0 92 -21.5t79 -66.5q-12 58 -34.5 100.5t-54.5 71.5l-61 -53q-6 -6 -14.5 -11t-19 -6t-22.5 4t-25 20l-24 28
q-15 16 -19.5 29.5t-3 24t7.5 18.5t13 14q-7 1 -14 1.5t-14 0.5q-8 0 -17.5 1t-18 6t-14 16.5t-5.5 31.5v44q0 22 5 34.5t14 18.5t20 7.5t23 1.5q48 0 92.5 -6t86.5 -19l67 58q8 7 17 12t19.5 5t22.5 -6.5t27 -24.5l24 -27q13 -15 16.5 -27.5t1.5 -22t-8.5 -17.5t-12.5 -14
l-19 -17q79 -64 125 -166.5t47 -248.5v-2zM327 145q42 0 64 27t22 65q0 37 -22 62t-64 25q-43 0 -64.5 -25t-21.5 -62q0 -38 21.5 -65t64.5 -27z" />
    <glyph glyph-name="ntilde" unicode="&#xf1;" horiz-adv-x="606" 
d="M565 112q0 -41 -3 -63.5t-14.5 -33t-34.5 -13t-63 -2.5q-29 0 -46 2.5t-25.5 13.5t-11 33.5t-2.5 62.5v184q0 52 -42 52q-29 0 -52 -27t-28 -82q-1 -26 -1 -54.5v-60.5v-12q0 -41 -3 -63.5t-14.5 -33t-34.5 -13t-63 -2.5q-29 0 -46 2.5t-25.5 13.5t-11 33.5t-2.5 62.5v55
q0 16 -0.5 42t-1.5 56t-1.5 61.5t-1.5 59t-1.5 48.5t-0.5 29q0 23 2 36t13 19t34.5 7.5t67.5 1.5q34 0 53 -2t28 -12t11 -31t2 -59v-32q10 37 30 64.5t45.5 45.5t54 27t56.5 9q27 0 52.5 -7t44.5 -27.5t30.5 -58t11.5 -98.5q0 -51 -3 -101t-3 -101v-32zM361 555
q-10 0 -29 6.5t-39 12t-37 5t-23 -13.5q0 -2 -3 -5t-11.5 -4t-24 2t-41.5 14q-23 10 -18 33q10 55 43.5 87t77.5 30q15 -1 38.5 -9t46.5 -13.5t42 -5t26 17.5q0 2 3 5t11.5 4t24 -2t41.5 -14q22 -11 18 -33q-6 -32 -20 -55t-34 -37t-43.5 -20.5t-48.5 -4.5z" />
    <glyph glyph-name="ograve" unicode="&#xf2;" horiz-adv-x="609" 
d="M304 -10q-130 0 -204.5 71.5t-74.5 207.5t74 202t205 66q65 0 117 -16.5t88 -49.5t55.5 -83.5t19.5 -118.5q0 -136 -75 -207.5t-205 -71.5zM304 134q36 0 54 34t18 90q0 57 -18 86.5t-54 29.5t-53.5 -29.5t-17.5 -86.5q0 -56 17.5 -90t53.5 -34zM331 606q13 -33 -3 -42.5
t-44 13.5l-162 131q-10 8 -14.5 22t-2.5 29.5t11.5 30.5t27.5 26q17 11 34 14t32 -0.5t26.5 -12t17.5 -20.5z" />
    <glyph glyph-name="oacute" unicode="&#xf3;" horiz-adv-x="609" 
d="M304 -10q-130 0 -204.5 71.5t-74.5 207.5t74 202t205 66q65 0 117 -16.5t88 -49.5t55.5 -83.5t19.5 -118.5q0 -136 -75 -207.5t-205 -71.5zM304 134q36 0 54 34t18 90q0 57 -18 86.5t-54 29.5t-53.5 -29.5t-17.5 -86.5q0 -56 17.5 -90t53.5 -34zM354 788q6 12 17.5 20.5
t26.5 12t32 0.5t34 -14q18 -11 27.5 -26t11.5 -30.5t-2.5 -29.5t-14.5 -22l-162 -131q-14 -11 -25.5 -14t-18.5 1t-8.5 14.5t5.5 27.5z" />
    <glyph glyph-name="ocircumflex" unicode="&#xf4;" horiz-adv-x="609" 
d="M304 -10q-130 0 -204.5 71.5t-74.5 207.5t74 202t205 66q65 0 117 -16.5t88 -49.5t55.5 -83.5t19.5 -118.5q0 -136 -75 -207.5t-205 -71.5zM304 134q36 0 54 34t18 90q0 57 -18 86.5t-54 29.5t-53.5 -29.5t-17.5 -86.5q0 -56 17.5 -90t53.5 -34zM207 561
q-25 -12 -35.5 -6t-21.5 22q-6 9 -9 15t-2 12.5t7.5 14.5t19.5 19l123 124q2 2 7.5 4.5t11.5 2.5t11.5 -2.5t7.5 -4.5l123 -124q25 -23 26.5 -33.5t-10.5 -27.5q-11 -17 -21.5 -22.5t-35.5 6.5l-101 50z" />
    <glyph glyph-name="otilde" unicode="&#xf5;" horiz-adv-x="609" 
d="M304 -10q-130 0 -204.5 71.5t-74.5 207.5t74 202t205 66q65 0 117 -16.5t88 -49.5t55.5 -83.5t19.5 -118.5q0 -136 -75 -207.5t-205 -71.5zM304 134q36 0 54 34t18 90q0 57 -18 86.5t-54 29.5t-53.5 -29.5t-17.5 -86.5q0 -56 17.5 -90t53.5 -34zM344 555q-10 0 -29 6.5
t-39 12t-37 5t-23 -13.5q0 -2 -3 -5t-11.5 -4t-24 2t-41.5 14q-23 10 -18 33q10 55 43.5 87t77.5 30q15 -1 38.5 -9t46.5 -13.5t42 -5t26 17.5q0 2 3 5t11.5 4t24 -2t41.5 -14q22 -11 18 -33q-6 -32 -20 -55t-34 -37t-43.5 -20.5t-48.5 -4.5z" />
    <glyph glyph-name="odieresis" unicode="&#xf6;" horiz-adv-x="609" 
d="M304 -10q-130 0 -204.5 71.5t-74.5 207.5t74 202t205 66q65 0 117 -16.5t88 -49.5t55.5 -83.5t19.5 -118.5q0 -136 -75 -207.5t-205 -71.5zM304 134q36 0 54 34t18 90q0 57 -18 86.5t-54 29.5t-53.5 -29.5t-17.5 -86.5q0 -56 17.5 -90t53.5 -34zM61 658q0 38 7 60
t21 33.5t34.5 14.5t47.5 3q34 0 54 -2.5t30.5 -10t13.5 -22t3 -38.5v-26q0 -38 -7 -60t-21 -33.5t-34.5 -14.5t-47.5 -3q-34 0 -54 2.5t-30.5 10t-13.5 22t-3 38.5v26zM337 658q0 38 7 60t21 33.5t34.5 14.5t47.5 3q34 0 54 -2.5t30.5 -10t13.5 -22t3 -38.5v-26
q0 -38 -7 -60t-21 -33.5t-34.5 -14.5t-47.5 -3q-34 0 -54 2.5t-30.5 10t-13.5 22t-3 38.5v26z" />
    <glyph glyph-name="divide" unicode="&#xf7;" horiz-adv-x="586" 
d="M507 376q10 0 20 -2t18 -8.5t13 -20t5 -35.5v-37q0 -20 -5.5 -32t-14 -18t-18 -7.5t-18.5 -1.5h-437q-9 0 -18.5 1.5t-18 7.5t-14 18t-5.5 32v37q0 22 5 35.5t13 20t18 8.5t20 2h437zM178 89q0 38 7 60t21 33.5t34.5 14.5t47.5 3q34 0 54 -2.5t30.5 -10t13.5 -22t3 -38.5
v-26q0 -38 -7 -60t-21 -33.5t-34.5 -14.5t-47.5 -3q-34 0 -54 2.5t-30.5 10t-13.5 22t-3 38.5v26zM178 496q0 38 7 60t21 33.5t34.5 14.5t47.5 3q34 0 54 -2.5t30.5 -10t13.5 -22t3 -38.5v-26q0 -38 -7 -60t-21 -33.5t-34.5 -14.5t-47.5 -3q-34 0 -54 2.5t-30.5 10t-13.5 22
t-3 38.5v26z" />
    <glyph glyph-name="oslash" unicode="&#xf8;" horiz-adv-x="609" 
d="M304 -10q-17 0 -32 1.5t-29 3.5l-16 -36q-6 -14 -20 -20t-46 -6q-26 0 -43.5 7.5t-9.5 24.5l30 66q-55 34 -84 93.5t-29 144.5q0 136 74 202t205 66q17 0 32.5 -1t29.5 -3l15 32q6 14 20 20.5t46 6.5q26 0 43.5 -8t9.5 -25l-28 -61q54 -32 83 -88.5t29 -140.5
q0 -136 -75 -207.5t-205 -71.5zM376 258q0 7 -0.5 13.5t-0.5 12.5l-69 -150q35 1 52.5 35t17.5 89zM233 240l61 133q-32 -4 -46.5 -33.5t-14.5 -81.5v-18z" />
    <glyph glyph-name="ugrave" unicode="&#xf9;" 
d="M577 423q0 -62 -3.5 -132.5t-3.5 -166.5v-12q0 -41 -3 -63.5t-14.5 -33t-34.5 -13t-63 -2.5q-29 0 -46 2.5t-25.5 13.5t-11 33.5t-2.5 62.5v11q-7 -34 -25 -59t-42 -41.5t-52 -24.5t-54 -8q-31 0 -60 7t-51 27.5t-35 58t-13 98.5q0 19 0.5 37.5t1.5 38.5q-1 28 -3 55.5
t-3.5 52t-2.5 44.5t-1 34q0 30 2 47t13.5 25.5t35.5 10t69 1.5q34 0 53 -2t28 -12t11 -31t2 -59v-232q0 -52 42 -52q30 0 54 32.5t27 99.5q-1 42 -2 79t-1 73q0 38 2.5 59t14 31t35.5 12t67 2q34 0 53 -2t28 -12t11 -31t2 -59zM334 606q13 -33 -3 -42.5t-44 13.5l-162 131
q-10 8 -14.5 22t-2.5 29.5t11.5 30.5t27.5 26q17 11 34 14t32 -0.5t26.5 -12t17.5 -20.5z" />
    <glyph glyph-name="uacute" unicode="&#xfa;" 
d="M577 423q0 -62 -3.5 -132.5t-3.5 -166.5v-12q0 -41 -3 -63.5t-14.5 -33t-34.5 -13t-63 -2.5q-29 0 -46 2.5t-25.5 13.5t-11 33.5t-2.5 62.5v11q-7 -34 -25 -59t-42 -41.5t-52 -24.5t-54 -8q-31 0 -60 7t-51 27.5t-35 58t-13 98.5q0 19 0.5 37.5t1.5 38.5q-1 28 -3 55.5
t-3.5 52t-2.5 44.5t-1 34q0 30 2 47t13.5 25.5t35.5 10t69 1.5q34 0 53 -2t28 -12t11 -31t2 -59v-232q0 -52 42 -52q30 0 54 32.5t27 99.5q-1 42 -2 79t-1 73q0 38 2.5 59t14 31t35.5 12t67 2q34 0 53 -2t28 -12t11 -31t2 -59zM357 788q6 12 17.5 20.5t26.5 12t32 0.5
t34 -14q18 -11 27.5 -26t11.5 -30.5t-2.5 -29.5t-14.5 -22l-162 -131q-14 -11 -25.5 -14t-18.5 1t-8.5 14.5t5.5 27.5z" />
    <glyph glyph-name="ucircumflex" unicode="&#xfb;" 
d="M577 423q0 -62 -3.5 -132.5t-3.5 -166.5v-12q0 -41 -3 -63.5t-14.5 -33t-34.5 -13t-63 -2.5q-29 0 -46 2.5t-25.5 13.5t-11 33.5t-2.5 62.5v11q-7 -34 -25 -59t-42 -41.5t-52 -24.5t-54 -8q-31 0 -60 7t-51 27.5t-35 58t-13 98.5q0 19 0.5 37.5t1.5 38.5q-1 28 -3 55.5
t-3.5 52t-2.5 44.5t-1 34q0 30 2 47t13.5 25.5t35.5 10t69 1.5q34 0 53 -2t28 -12t11 -31t2 -59v-232q0 -52 42 -52q30 0 54 32.5t27 99.5q-1 42 -2 79t-1 73q0 38 2.5 59t14 31t35.5 12t67 2q34 0 53 -2t28 -12t11 -31t2 -59zM210 561q-25 -12 -35.5 -6t-21.5 22
q-6 9 -9 15t-2 12.5t7.5 14.5t19.5 19l123 124q2 2 7.5 4.5t11.5 2.5t11.5 -2.5t7.5 -4.5l123 -124q25 -23 26.5 -33.5t-10.5 -27.5q-11 -17 -21.5 -22.5t-35.5 6.5l-101 50z" />
    <glyph glyph-name="udieresis" unicode="&#xfc;" 
d="M577 423q0 -62 -3.5 -132.5t-3.5 -166.5v-12q0 -41 -3 -63.5t-14.5 -33t-34.5 -13t-63 -2.5q-29 0 -46 2.5t-25.5 13.5t-11 33.5t-2.5 62.5v11q-7 -34 -25 -59t-42 -41.5t-52 -24.5t-54 -8q-31 0 -60 7t-51 27.5t-35 58t-13 98.5q0 19 0.5 37.5t1.5 38.5q-1 28 -3 55.5
t-3.5 52t-2.5 44.5t-1 34q0 30 2 47t13.5 25.5t35.5 10t69 1.5q34 0 53 -2t28 -12t11 -31t2 -59v-232q0 -52 42 -52q30 0 54 32.5t27 99.5q-1 42 -2 79t-1 73q0 38 2.5 59t14 31t35.5 12t67 2q34 0 53 -2t28 -12t11 -31t2 -59zM340 658q0 38 7 60t21 33.5t34.5 14.5t47.5 3
q34 0 54 -2.5t30.5 -10t13.5 -22t3 -38.5v-26q0 -38 -7 -60t-21 -33.5t-34.5 -14.5t-47.5 -3q-34 0 -54 2.5t-30.5 10t-13.5 22t-3 38.5v26zM64 658q0 38 7 60t21 33.5t34.5 14.5t47.5 3q34 0 54 -2.5t30.5 -10t13.5 -22t3 -38.5v-26q0 -38 -7 -60t-21 -33.5t-34.5 -14.5
t-47.5 -3q-34 0 -54 2.5t-30.5 10t-13.5 22t-3 38.5v26z" />
    <glyph glyph-name="yacute" unicode="&#xfd;" horiz-adv-x="581" 
d="M346 425q0 37 2 58t11 30.5t28 11.5t53 2q42 0 64.5 -1.5t33 -10t12 -25t1.5 -46.5q0 -62 -3.5 -126t-11.5 -128q-12 -89 -35 -171t-64.5 -144.5t-106 -99.5t-158.5 -37q-37 0 -73 5.5t-68 14.5q-28 8 -36 18t-1 38l17 67q8 29 23.5 32t29.5 0q15 -3 39 -7t47 -4
q40 0 66.5 11t43 32.5t26.5 52.5t18 72q-18 -28 -34 -44t-30 -24t-26 -10t-21 -2q-41 0 -69.5 20t-47 54.5t-28.5 80t-14.5 96t-5.5 102.5t-1 101q0 30 1.5 46.5t12 25t33 10t64.5 1.5q34 0 53.5 -2t28.5 -11.5t11 -30.5t2 -58v-32q0 -29 1.5 -69t7.5 -77t16.5 -62.5
t28.5 -25.5q17 0 28.5 24t18 59.5t9.5 76.5t3 74v32zM337 788q6 12 17.5 20.5t26.5 12t32 0.5t34 -14q18 -11 27.5 -26t11.5 -30.5t-2.5 -29.5t-14.5 -22l-162 -131q-14 -11 -25.5 -14t-18.5 1t-8.5 14.5t5.5 27.5z" />
    <glyph glyph-name="thorn" unicode="&#xfe;" horiz-adv-x="643" 
d="M618 262q0 -137 -57 -204.5t-162 -67.5q-30 0 -54 5t-42 17t-31 33t-20 54v-254q0 -35 -3 -54t-15 -28.5t-35.5 -11.5t-64.5 -2q-32 0 -50.5 2t-27.5 11t-11.5 28.5t-2.5 54.5v570q0 24 -1 64.5t-2.5 82.5t-2.5 77t-1 47q0 23 2 36t12.5 19t34 7.5t65.5 1.5q37 0 58.5 -2
t32.5 -11t13.5 -28.5t2.5 -55.5t-0.5 -65t-1.5 -57t-1.5 -55.5t-0.5 -60.5v-13q16 72 53 103.5t103 31.5q100 0 155 -70t55 -205zM333 368q-33 0 -56 -31.5t-23 -85.5q0 -57 24 -84t55 -27q35 0 55 31t20 82q0 53 -20.5 84t-54.5 31z" />
    <glyph glyph-name="ydieresis" unicode="&#xff;" horiz-adv-x="581" 
d="M346 425q0 37 2 58t11 30.5t28 11.5t53 2q42 0 64.5 -1.5t33 -10t12 -25t1.5 -46.5q0 -62 -3.5 -126t-11.5 -128q-12 -89 -35 -171t-64.5 -144.5t-106 -99.5t-158.5 -37q-37 0 -73 5.5t-68 14.5q-28 8 -36 18t-1 38l17 67q8 29 23.5 32t29.5 0q15 -3 39 -7t47 -4
q40 0 66.5 11t43 32.5t26.5 52.5t18 72q-18 -28 -34 -44t-30 -24t-26 -10t-21 -2q-41 0 -69.5 20t-47 54.5t-28.5 80t-14.5 96t-5.5 102.5t-1 101q0 30 1.5 46.5t12 25t33 10t64.5 1.5q34 0 53.5 -2t28.5 -11.5t11 -30.5t2 -58v-32q0 -29 1.5 -69t7.5 -77t16.5 -62.5
t28.5 -25.5q17 0 28.5 24t18 59.5t9.5 76.5t3 74v32zM44 658q0 38 7 60t21 33.5t34.5 14.5t47.5 3q34 0 54 -2.5t30.5 -10t13.5 -22t3 -38.5v-26q0 -38 -7 -60t-21 -33.5t-34.5 -14.5t-47.5 -3q-34 0 -54 2.5t-30.5 10t-13.5 22t-3 38.5v26zM320 658q0 38 7 60t21 33.5
t34.5 14.5t47.5 3q34 0 54 -2.5t30.5 -10t13.5 -22t3 -38.5v-26q0 -38 -7 -60t-21 -33.5t-34.5 -14.5t-47.5 -3q-34 0 -54 2.5t-30.5 10t-13.5 22t-3 38.5v26z" />
    <glyph glyph-name="Amacron" unicode="&#x100;" horiz-adv-x="779" 
d="M497 78q0 19 -1 37t-3 37h-254q-2 -19 -3 -37t-1 -37q0 -27 -2 -43t-12 -23.5t-31.5 -9.5t-61.5 -2q-34 0 -53.5 1.5t-29.5 9.5t-12.5 23.5t-2.5 44.5q0 96 19 183t50 162t68.5 135.5t75.5 103.5q16 19 28.5 30.5t25 17.5t27.5 7.5t38 1.5q24 0 40.5 -1.5t30 -7.5
t26.5 -18t30 -32q36 -42 73.5 -102.5t68 -134.5t50 -161.5t19.5 -183.5q0 -29 -3 -44.5t-14.5 -23.5t-34 -9.5t-62.5 -1.5q-33 0 -50.5 1.5t-26 9t-10.5 23t-2 44.5zM217 770q-14 0 -22 11t-8 23t0.5 28.5t3.5 31.5t9 25.5t16 10.5h295q14 0 22.5 -11t8.5 -23t-1.5 -28.5
t-5.5 -31.5t-10.5 -25.5t-16.5 -10.5h-291zM365 519q-4 0 -15 -16t-24.5 -45t-29 -69t-28.5 -88h196q-14 48 -29.5 88t-29.5 69t-25 45t-15 16z" />
    <glyph glyph-name="amacron" unicode="&#x101;" horiz-adv-x="571" 
d="M20 142q0 41 13.5 71.5t37 50.5t55.5 30t69 10q45 0 82 -14t59 -49v29q0 29 -7 47.5t-20 29.5t-30 15.5t-38 4.5q-32 0 -62 -7t-48 -12q-23 -8 -39 -2t-27 36l-18 49q-11 32 -1.5 47.5t35.5 25.5q42 16 88 24.5t108 8.5q48 0 94 -8.5t83 -34t59.5 -72t22.5 -123.5v-187
q0 -41 -3 -63.5t-14.5 -33t-34.5 -13t-63 -2.5q-23 0 -38 1t-24.5 6.5t-14 16t-6.5 28.5q-22 -36 -61 -49t-87 -13q-78 0 -124 37.5t-46 114.5zM128 559q-14 0 -22 11t-8 23t0.5 28.5t3.5 31.5t9 25.5t16 10.5h295q14 0 22.5 -11t8.5 -23t-1.5 -28.5t-5.5 -31.5t-10.5 -25.5
t-16.5 -10.5h-291zM282 201q-25 0 -38 -14.5t-13 -40.5q0 -52 51 -52q25 0 39 13t14 39t-14 40.5t-39 14.5z" />
    <glyph glyph-name="Abreve" unicode="&#x102;" horiz-adv-x="779" 
d="M497 78q0 19 -1 37t-3 37h-254q-2 -19 -3 -37t-1 -37q0 -27 -2 -43t-12 -23.5t-31.5 -9.5t-61.5 -2q-34 0 -53.5 1.5t-29.5 9.5t-12.5 23.5t-2.5 44.5q0 96 19 183t50 162t68.5 135.5t75.5 103.5q16 19 28.5 30.5t25 17.5t27.5 7.5t38 1.5q24 0 40.5 -1.5t30 -7.5
t26.5 -18t30 -32q36 -42 73.5 -102.5t68 -134.5t50 -161.5t19.5 -183.5q0 -29 -3 -44.5t-14.5 -23.5t-34 -9.5t-62.5 -1.5q-33 0 -50.5 1.5t-26 9t-10.5 23t-2 44.5zM364 760q-35 0 -68.5 10t-59.5 30.5t-41.5 51.5t-15.5 72q0 20 3 31t10.5 16t20.5 6t33 1t34.5 -0.5
t23.5 -4.5t13.5 -12.5t4.5 -24.5q0 -20 12.5 -30t29.5 -10t29.5 10t12.5 30q0 16 4.5 24.5t13.5 12.5t23.5 4.5t34.5 0.5t33 -1t20.5 -6t10.5 -16t3 -31q0 -41 -15.5 -72t-41.5 -51.5t-59.5 -30.5t-68.5 -10zM365 519q-4 0 -15 -16t-24.5 -45t-29 -69t-28.5 -88h196
q-14 48 -29.5 88t-29.5 69t-25 45t-15 16z" />
    <glyph glyph-name="abreve" unicode="&#x103;" horiz-adv-x="571" 
d="M20 142q0 41 13.5 71.5t37 50.5t55.5 30t69 10q45 0 82 -14t59 -49v29q0 29 -7 47.5t-20 29.5t-30 15.5t-38 4.5q-32 0 -62 -7t-48 -12q-23 -8 -39 -2t-27 36l-18 49q-11 32 -1.5 47.5t35.5 25.5q42 16 88 24.5t108 8.5q48 0 94 -8.5t83 -34t59.5 -72t22.5 -123.5v-187
q0 -41 -3 -63.5t-14.5 -33t-34.5 -13t-63 -2.5q-23 0 -38 1t-24.5 6.5t-14 16t-6.5 28.5q-22 -36 -61 -49t-87 -13q-78 0 -124 37.5t-46 114.5zM275 549q-35 0 -68.5 10t-59.5 30.5t-41.5 51.5t-15.5 72q0 20 3 31t10.5 16t20.5 6t33 1t34.5 -0.5t23.5 -4.5t13.5 -12.5
t4.5 -24.5q0 -20 12.5 -30t29.5 -10t29.5 10t12.5 30q0 16 4.5 24.5t13.5 12.5t23.5 4.5t34.5 0.5t33 -1t20.5 -6t10.5 -16t3 -31q0 -41 -15.5 -72t-41.5 -51.5t-59.5 -30.5t-68.5 -10zM282 201q-25 0 -38 -14.5t-13 -40.5q0 -52 51 -52q25 0 39 13t14 39t-14 40.5t-39 14.5
z" />
    <glyph glyph-name="Aogonek" unicode="&#x104;" horiz-adv-x="779" 
d="M734 -141q8 6 11.5 2t-1.5 -12q-32 -44 -74.5 -70t-102.5 -26q-66 0 -104 31t-38 79q0 18 6 36.5t21.5 36.5t41.5 34.5t66 29.5q-23 0 -35.5 3t-18.5 11t-7.5 23t-1.5 41q0 19 -1 37t-3 37h-254q-2 -19 -3 -37t-1 -37q0 -27 -2 -43t-12 -23.5t-31.5 -9.5t-61.5 -2
q-34 0 -53.5 1.5t-29.5 9.5t-12.5 23.5t-2.5 44.5q0 96 19 183t50 162t68.5 135.5t75.5 103.5q16 19 28.5 30.5t25 17.5t27.5 7.5t38 1.5q24 0 40.5 -1.5t30 -7.5t26.5 -18t30 -32q36 -42 73.5 -102.5t68 -134.5t50 -161.5t19.5 -183.5q0 -22 -1.5 -36t-7 -23t-16 -13.5
t-28.5 -5.5q-41 -29 -51.5 -53t-10.5 -43q0 -13 3 -26t11 -23.5t22 -17t36 -6.5q26 0 43.5 8t33.5 19zM365 519q-4 0 -15 -16t-24.5 -45t-29 -69t-28.5 -88h196q-14 48 -29.5 88t-29.5 69t-25 45t-15 16z" />
    <glyph glyph-name="aogonek" unicode="&#x105;" horiz-adv-x="571" 
d="M20 142q0 41 13.5 71.5t37 50.5t55.5 30t69 10q45 0 82 -14t59 -49v29q0 29 -7 47.5t-20 29.5t-30 15.5t-38 4.5q-32 0 -62 -7t-48 -12q-23 -8 -39 -2t-27 36l-18 49q-11 32 -1.5 47.5t35.5 25.5q42 16 88 24.5t108 8.5q48 0 94 -8.5t83 -34t59.5 -72t22.5 -123.5v-187
q0 -28 -1.5 -47t-5.5 -31.5t-12.5 -19.5t-21.5 -10q-32 -26 -40 -46.5t-8 -38.5q0 -13 3 -26t11 -23.5t22 -17t36 -6.5q26 0 43.5 8t33.5 19q8 6 11.5 2t-1.5 -12q-32 -44 -74.5 -70t-102.5 -26q-66 0 -104 31t-38 79q0 15 5 31.5t16.5 32.5t31 31.5t48.5 28.5
q-26 2 -36.5 12t-13.5 39q-22 -36 -61 -49t-87 -13q-78 0 -124 37.5t-46 114.5zM282 201q-25 0 -38 -14.5t-13 -40.5q0 -52 51 -52q25 0 39 13t14 39t-14 40.5t-39 14.5z" />
    <glyph glyph-name="Cacute" unicode="&#x106;" horiz-adv-x="634" 
d="M253 359q0 -104 41 -155.5t128 -51.5q31 0 57 5.5t48 11.5q25 7 40.5 2t21.5 -36l12 -58q7 -32 -3 -43t-25 -16q-41 -15 -81.5 -21.5t-89.5 -6.5q-187 0 -278 90t-91 279t91 280t279 91q48 0 88.5 -6.5t81.5 -21.5q15 -5 25 -16t3 -43l-12 -58q-6 -31 -21.5 -36t-40.5 2
q-22 6 -48 11.5t-57 5.5q-87 0 -128 -52t-41 -157zM453 999q6 12 17.5 20.5t26.5 12t32 0.5t34 -14q18 -11 27.5 -26t11.5 -30.5t-2.5 -29.5t-14.5 -22l-162 -131q-14 -11 -25.5 -14t-18.5 1t-8.5 14.5t5.5 27.5z" />
    <glyph glyph-name="cacute" unicode="&#x107;" horiz-adv-x="485" 
d="M233 257q0 -57 25 -83.5t79 -26.5q16 0 29.5 2.5t30.5 5.5q23 5 35.5 -1t17.5 -29l13 -61q5 -23 -2.5 -35t-31.5 -20q-26 -10 -64 -14.5t-76 -4.5q-131 0 -197.5 68t-66.5 206q0 274 265 274q42 0 80 -5.5t59 -13.5q24 -8 31 -20.5t3 -33.5l-13 -76q-5 -23 -17.5 -29
t-35.5 -1q-17 3 -30.5 5.5t-29.5 2.5q-54 0 -79 -26.5t-25 -83.5zM338 788q6 12 17.5 20.5t26.5 12t32 0.5t34 -14q18 -11 27.5 -26t11.5 -30.5t-2.5 -29.5t-14.5 -22l-162 -131q-14 -11 -25.5 -14t-18.5 1t-8.5 14.5t5.5 27.5z" />
    <glyph glyph-name="Ccircumflex" unicode="&#x108;" horiz-adv-x="634" 
d="M253 359q0 -104 41 -155.5t128 -51.5q31 0 57 5.5t48 11.5q25 7 40.5 2t21.5 -36l12 -58q7 -32 -3 -43t-25 -16q-41 -15 -81.5 -21.5t-89.5 -6.5q-187 0 -278 90t-91 279t91 280t279 91q48 0 88.5 -6.5t81.5 -21.5q15 -5 25 -16t3 -43l-12 -58q-6 -31 -21.5 -36t-40.5 2
q-22 6 -48 11.5t-57 5.5q-87 0 -128 -52t-41 -157zM306 772q-25 -12 -35.5 -6t-21.5 22q-6 9 -9 15t-2 12.5t7.5 14.5t19.5 19l123 124q2 2 7.5 4.5t11.5 2.5t11.5 -2.5t7.5 -4.5l123 -124q25 -23 26.5 -33.5t-10.5 -27.5q-11 -17 -21.5 -22.5t-35.5 6.5l-101 50z" />
    <glyph glyph-name="ccircumflex" unicode="&#x109;" horiz-adv-x="485" 
d="M233 257q0 -57 25 -83.5t79 -26.5q16 0 29.5 2.5t30.5 5.5q23 5 35.5 -1t17.5 -29l13 -61q5 -23 -2.5 -35t-31.5 -20q-26 -10 -64 -14.5t-76 -4.5q-131 0 -197.5 68t-66.5 206q0 274 265 274q42 0 80 -5.5t59 -13.5q24 -8 31 -20.5t3 -33.5l-13 -76q-5 -23 -17.5 -29
t-35.5 -1q-17 3 -30.5 5.5t-29.5 2.5q-54 0 -79 -26.5t-25 -83.5zM191 561q-25 -12 -35.5 -6t-21.5 22q-6 9 -9 15t-2 12.5t7.5 14.5t19.5 19l123 124q2 2 7.5 4.5t11.5 2.5t11.5 -2.5t7.5 -4.5l123 -124q25 -23 26.5 -33.5t-10.5 -27.5q-11 -17 -21.5 -22.5t-35.5 6.5
l-101 50z" />
    <glyph glyph-name="Cdotaccent" unicode="&#x10a;" horiz-adv-x="634" 
d="M253 359q0 -104 41 -155.5t128 -51.5q31 0 57 5.5t48 11.5q25 7 40.5 2t21.5 -36l12 -58q7 -32 -3 -43t-25 -16q-41 -15 -81.5 -21.5t-89.5 -6.5q-187 0 -278 90t-91 279t91 280t279 91q48 0 88.5 -6.5t81.5 -21.5q15 -5 25 -16t3 -43l-12 -58q-6 -31 -21.5 -36t-40.5 2
q-22 6 -48 11.5t-57 5.5q-87 0 -128 -52t-41 -157zM298 868q0 38 7 60t21 33.5t34.5 14.5t47.5 3q34 0 54 -2.5t30.5 -10t13.5 -22t3 -38.5v-26q0 -38 -7 -60t-21 -33.5t-34.5 -14.5t-47.5 -3q-34 0 -54 2.5t-30.5 10t-13.5 22t-3 38.5v26z" />
    <glyph glyph-name="cdotaccent" unicode="&#x10b;" horiz-adv-x="485" 
d="M233 257q0 -57 25 -83.5t79 -26.5q16 0 29.5 2.5t30.5 5.5q23 5 35.5 -1t17.5 -29l13 -61q5 -23 -2.5 -35t-31.5 -20q-26 -10 -64 -14.5t-76 -4.5q-131 0 -197.5 68t-66.5 206q0 274 265 274q42 0 80 -5.5t59 -13.5q24 -8 31 -20.5t3 -33.5l-13 -76q-5 -23 -17.5 -29
t-35.5 -1q-17 3 -30.5 5.5t-29.5 2.5q-54 0 -79 -26.5t-25 -83.5zM183 657q0 38 7 60t21 33.5t34.5 14.5t47.5 3q34 0 54 -2.5t30.5 -10t13.5 -22t3 -38.5v-26q0 -38 -7 -60t-21 -33.5t-34.5 -14.5t-47.5 -3q-34 0 -54 2.5t-30.5 10t-13.5 22t-3 38.5v26z" />
    <glyph glyph-name="Ccaron" unicode="&#x10c;" horiz-adv-x="634" 
d="M253 359q0 -104 41 -155.5t128 -51.5q31 0 57 5.5t48 11.5q25 7 40.5 2t21.5 -36l12 -58q7 -32 -3 -43t-25 -16q-41 -15 -81.5 -21.5t-89.5 -6.5q-187 0 -278 90t-91 279t91 280t279 91q48 0 88.5 -6.5t81.5 -21.5q15 -5 25 -16t3 -43l-12 -58q-6 -31 -21.5 -36t-40.5 2
q-22 6 -48 11.5t-57 5.5q-87 0 -128 -52t-41 -157zM403 902l101 50q25 12 35.5 6.5t21.5 -22.5q6 -9 9 -15t1.5 -12.5t-7.5 -14.5t-19 -19l-123 -114q-8 -7 -19 -7t-19 7l-123 114q-26 22 -27 33t11 28q11 16 21.5 22t35.5 -6z" />
    <glyph glyph-name="ccaron" unicode="&#x10d;" horiz-adv-x="485" 
d="M233 257q0 -57 25 -83.5t79 -26.5q16 0 29.5 2.5t30.5 5.5q23 5 35.5 -1t17.5 -29l13 -61q5 -23 -2.5 -35t-31.5 -20q-26 -10 -64 -14.5t-76 -4.5q-131 0 -197.5 68t-66.5 206q0 274 265 274q42 0 80 -5.5t59 -13.5q24 -8 31 -20.5t3 -33.5l-13 -76q-5 -23 -17.5 -29
t-35.5 -1q-17 3 -30.5 5.5t-29.5 2.5q-54 0 -79 -26.5t-25 -83.5zM288 691l101 50q25 12 35.5 6.5t21.5 -22.5q6 -9 9 -15t1.5 -12.5t-7.5 -14.5t-19 -19l-123 -114q-8 -7 -19 -7t-19 7l-123 114q-26 22 -27 33t11 28q11 16 21.5 22t35.5 -6z" />
    <glyph glyph-name="Dcaron" unicode="&#x10e;" horiz-adv-x="743" 
d="M328 -10q-21 0 -50 1t-60 4t-61.5 8.5t-55 14t-39.5 20.5t-15 28v319q0 15 -0.5 38t-1.5 48.5t-1.5 52t-1.5 49t-1.5 37.5t-0.5 19q0 20 15 35.5t40 26.5t57 18.5t66 12t66.5 6.5t59.5 2q188 0 278.5 -90t90.5 -282q0 -189 -92 -278.5t-293 -89.5zM248 568q-1 -26 -2 -45
t-1.5 -37.5t-0.5 -42v-58.5v-239q23 -2 48 -3.5t40 -1.5q88 0 126.5 52t38.5 166q0 116 -40.5 167.5t-131.5 51.5q-16 0 -35.5 -2t-41.5 -8zM372 944l101 50q25 12 35.5 6.5t21.5 -22.5q6 -9 9 -15t1.5 -12.5t-7.5 -14.5t-19 -19l-123 -114q-8 -7 -19 -7t-19 7l-123 114
q-26 22 -27 33t11 28q11 16 21.5 22t35.5 -6z" />
    <glyph glyph-name="dcaron" unicode="&#x10f;" horiz-adv-x="905" 
d="M25 263q0 138 57.5 206t154.5 68q59 0 95.5 -24.5t56.5 -75.5q-1 32 -2 70t-2 73.5t-1.5 63t-0.5 37.5q0 23 2 36t13 19t34.5 7.5t67.5 1.5q34 0 53 -2t28 -12t11 -31t2 -59q0 -62 -2 -127.5t-2 -128.5v-273q0 -41 -3 -63.5t-14.5 -33t-34.5 -13t-63 -2.5q-27 0 -43.5 2
t-25.5 10.5t-12.5 26t-3.5 48.5q-38 -97 -151 -97q-104 0 -159 69.5t-55 203.5zM684 600q6 37 14 62t21.5 41t35 23t55.5 7q82 0 95.5 -34t-48.5 -117l-107 -143q-13 -17 -28.5 -20.5t-32.5 0.5q-20 5 -25.5 15.5t-2.5 29.5zM306 138q34 0 57.5 32t23.5 87q0 59 -24.5 86.5
t-56.5 27.5q-35 0 -56 -31.5t-21 -84.5q0 -54 21 -85.5t56 -31.5z" />
    <glyph glyph-name="Dcroat" unicode="&#x110;" horiz-adv-x="743" 
d="M46 422q0 28 -1 62t-2 64.5t-2 53t-1 27.5q0 20 15 35.5t40 26.5t57 18.5t66 12t66.5 6.5t59.5 2q188 0 278.5 -90t90.5 -282q0 -189 -92 -278.5t-293 -89.5q-21 0 -50 1t-60 4t-61.5 8.5t-55 14t-39.5 20.5t-15 28v194h-16q-9 0 -18.5 1.5t-18 7.5t-14 18t-5.5 32v37
q0 22 5 35.5t13 20t18 8.5t20 2h15zM248 568q-1 -22 -2 -39t-1.5 -33t-0.5 -33.5v-40.5h54q10 0 20 -2t18 -8.5t13 -20t5 -35.5v-37q0 -20 -5.5 -32t-14 -18t-18 -7.5t-18.5 -1.5h-54v-114q23 -2 48 -3.5t40 -1.5q88 0 126.5 52t38.5 166q0 116 -40.5 167.5t-131.5 51.5
q-16 0 -35.5 -2t-41.5 -8z" />
    <glyph glyph-name="dcroat" unicode="&#x111;" horiz-adv-x="629" 
d="M383 699q0 16 4 25.5t16 14t35 5.5t62 1q26 0 43 -1t27 -5.5t15 -13.5t7 -26h15q10 0 20 -2t18 -8.5t13 -20t5 -35.5v-37q0 -20 -5.5 -32t-14 -18t-18 -7.5t-18.5 -1.5h-15q-1 -38 -1.5 -76.5t-0.5 -75.5v-273q0 -41 -3 -63.5t-14.5 -33t-34.5 -13t-63 -2.5
q-27 0 -43.5 2t-25.5 10.5t-12.5 26t-3.5 48.5q-38 -97 -151 -97q-104 0 -159 69.5t-55 203.5q0 138 57.5 206t154.5 68q59 0 95.5 -24.5t56.5 -75.5q0 22 -0.5 48t-1.5 52h-47q-9 0 -18.5 1.5t-18 7.5t-14 18t-5.5 32v37q0 22 5 35.5t13 20t18 8.5t20 2h43zM306 138
q34 0 57.5 32t23.5 87q0 59 -24.5 86.5t-56.5 27.5q-35 0 -56 -31.5t-21 -84.5q0 -54 21 -85.5t56 -31.5z" />
    <glyph glyph-name="Emacron" unicode="&#x112;" horiz-adv-x="584" 
d="M132 0q-30 0 -47 2.5t-25.5 14t-10.5 35t-2 64.5v269q0 24 -1 64.5t-2.5 82.5t-2.5 77t-1 47q0 22 2 34.5t11.5 19t30 8.5t58.5 2h349q18 0 29.5 -1.5t18 -8t8.5 -18.5t0 -33l-4 -42q-2 -18 -7.5 -29t-13.5 -16t-18 -6.5t-20 -1.5h-234l-3 -125h214q18 0 29.5 -1.5t18 -8
t8.5 -18.5t0 -33l-4 -42q-2 -18 -7.5 -29t-13.5 -16t-18 -6.5t-20 -1.5h-207v-127h244q18 0 29.5 -1.5t18 -8t8.5 -18.5t0 -33l-4 -42q-2 -18 -7.5 -29t-13.5 -16t-18 -6.5t-20 -1.5h-352zM166 770q-14 0 -22 11t-8 23t0.5 28.5t3.5 31.5t9 25.5t16 10.5h295q14 0 22.5 -11
t8.5 -23t-1.5 -28.5t-5.5 -31.5t-10.5 -25.5t-16.5 -10.5h-291z" />
    <glyph glyph-name="emacron" unicode="&#x113;" horiz-adv-x="583" 
d="M235 189q14 -32 40 -41t61 -9q18 0 32 1t26.5 4t26.5 7.5t33 10.5q23 8 35 3.5t21 -30.5l20 -56q6 -21 -1 -31t-31 -21q-37 -17 -81.5 -27t-102.5 -10q-137 0 -213 70t-76 209q0 138 73.5 203t202.5 65q114 0 180 -57t66 -178q0 -54 -23.5 -83.5t-80.5 -29.5h-208z
M156 559q-14 0 -22 11t-8 23t0.5 28.5t3.5 31.5t9 25.5t16 10.5h295q14 0 22.5 -11t8.5 -23t-1.5 -28.5t-5.5 -31.5t-10.5 -25.5t-16.5 -10.5h-291zM300 392q-31 0 -50 -19.5t-25 -62.5h152q-2 44 -22 63t-55 19z" />
    <glyph glyph-name="Ebreve" unicode="&#x114;" horiz-adv-x="584" 
d="M132 0q-30 0 -47 2.5t-25.5 14t-10.5 35t-2 64.5v269q0 24 -1 64.5t-2.5 82.5t-2.5 77t-1 47q0 23 2 36t13 19t34.5 7.5t67.5 1.5h334q18 0 29.5 -1.5t18 -8t8.5 -18.5t0 -33l-4 -42q-2 -18 -7.5 -29t-13.5 -16t-18 -6.5t-20 -1.5h-234l-3 -125h214q18 0 29.5 -1.5t18 -8
t8.5 -18.5t0 -33l-4 -42q-2 -18 -7.5 -29t-13.5 -16t-18 -6.5t-20 -1.5h-207v-127h244q18 0 29.5 -1.5t18 -8t8.5 -18.5t0 -33l-4 -42q-2 -18 -7.5 -29t-13.5 -16t-18 -6.5t-20 -1.5h-352zM313 760q-35 0 -68.5 10t-59.5 30.5t-41.5 51.5t-15.5 72q0 20 3 31t10.5 16t20.5 6
t33 1t34.5 -0.5t23.5 -4.5t13.5 -12.5t4.5 -24.5q0 -20 12.5 -30t29.5 -10t29.5 10t12.5 30q0 16 4.5 24.5t13.5 12.5t23.5 4.5t34.5 0.5t33 -1t20.5 -6t10.5 -16t3 -31q0 -41 -15.5 -72t-41.5 -51.5t-59.5 -30.5t-68.5 -10z" />
    <glyph glyph-name="ebreve" unicode="&#x115;" horiz-adv-x="583" 
d="M235 189q14 -32 40 -41t61 -9q18 0 32 1t26.5 4t26.5 7.5t33 10.5q23 8 35 3.5t21 -30.5l20 -56q6 -21 -1 -31t-31 -21q-37 -17 -81.5 -27t-102.5 -10q-137 0 -213 70t-76 209q0 138 73.5 203t202.5 65q114 0 180 -57t66 -178q0 -54 -23.5 -83.5t-80.5 -29.5h-208z
M303 549q-35 0 -68.5 10t-59.5 30.5t-41.5 51.5t-15.5 72q0 20 3 31t10.5 16t20.5 6t33 1t34.5 -0.5t23.5 -4.5t13.5 -12.5t4.5 -24.5q0 -20 12.5 -30t29.5 -10t29.5 10t12.5 30q0 16 4.5 24.5t13.5 12.5t23.5 4.5t34.5 0.5t33 -1t20.5 -6t10.5 -16t3 -31q0 -41 -15.5 -72
t-41.5 -51.5t-59.5 -30.5t-68.5 -10zM300 392q-31 0 -50 -19.5t-25 -62.5h152q-2 44 -22 63t-55 19z" />
    <glyph glyph-name="Edotaccent" unicode="&#x116;" horiz-adv-x="584" 
d="M132 0q-30 0 -47 2.5t-25.5 14t-10.5 35t-2 64.5v269q0 24 -1 64.5t-2.5 82.5t-2.5 77t-1 47q0 23 2 36t13 19t34.5 7.5t67.5 1.5h334q18 0 29.5 -1.5t18 -8t8.5 -18.5t0 -33l-4 -42q-2 -18 -7.5 -29t-13.5 -16t-18 -6.5t-20 -1.5h-234l-3 -125h214q18 0 29.5 -1.5t18 -8
t8.5 -18.5t0 -33l-4 -42q-2 -18 -7.5 -29t-13.5 -16t-18 -6.5t-20 -1.5h-207v-127h244q18 0 29.5 -1.5t18 -8t8.5 -18.5t0 -33l-4 -42q-2 -18 -7.5 -29t-13.5 -16t-18 -6.5t-20 -1.5h-352zM208 868q0 38 7 60t21 33.5t34.5 14.5t47.5 3q34 0 54 -2.5t30.5 -10t13.5 -22
t3 -38.5v-26q0 -38 -7 -60t-21 -33.5t-34.5 -14.5t-47.5 -3q-34 0 -54 2.5t-30.5 10t-13.5 22t-3 38.5v26z" />
    <glyph glyph-name="edotaccent" unicode="&#x117;" horiz-adv-x="583" 
d="M235 189q14 -32 40 -41t61 -9q18 0 32 1t26.5 4t26.5 7.5t33 10.5q23 8 35 3.5t21 -30.5l20 -56q6 -21 -1 -31t-31 -21q-37 -17 -81.5 -27t-102.5 -10q-137 0 -213 70t-76 209q0 138 73.5 203t202.5 65q114 0 180 -57t66 -178q0 -54 -23.5 -83.5t-80.5 -29.5h-208z
M198 657q0 38 7 60t21 33.5t34.5 14.5t47.5 3q34 0 54 -2.5t30.5 -10t13.5 -22t3 -38.5v-26q0 -38 -7 -60t-21 -33.5t-34.5 -14.5t-47.5 -3q-34 0 -54 2.5t-30.5 10t-13.5 22t-3 38.5v26zM300 392q-31 0 -50 -19.5t-25 -62.5h152q-2 44 -22 63t-55 19z" />
    <glyph glyph-name="Eogonek" unicode="&#x118;" horiz-adv-x="584" 
d="M468 -118q8 6 11.5 2t-1.5 -12q-32 -44 -74.5 -70t-102.5 -26q-66 0 -104 31t-38 79q0 29 17 59t64 55h-108q-30 0 -47 2.5t-25.5 14t-10.5 35t-2 64.5v269q0 24 -1 64.5t-2.5 82.5t-2.5 77t-1 47q0 23 2 36t13 19t34.5 7.5t67.5 1.5h334q18 0 29.5 -1.5t18 -8t8.5 -18.5
t0 -33l-4 -42q-2 -18 -7.5 -29t-13.5 -16t-18 -6.5t-20 -1.5h-234l-3 -125h214q18 0 29.5 -1.5t18 -8t8.5 -18.5t0 -33l-4 -42q-2 -18 -7.5 -29t-13.5 -16t-18 -6.5t-20 -1.5h-207v-127h244q18 0 29.5 -1.5t18 -8t8.5 -18.5t0 -33l-4 -42q-2 -18 -7.5 -29t-13.5 -16
t-18 -6.5t-20 -1.5h-132q-22 -21 -27.5 -38.5t-5.5 -33.5q0 -13 3 -26t11 -23.5t22 -17t36 -6.5q26 0 43.5 8t33.5 19z" />
    <glyph glyph-name="eogonek" unicode="&#x119;" horiz-adv-x="583" 
d="M462 -133q8 6 11.5 2t-1.5 -12q-32 -44 -74.5 -70t-102.5 -26q-66 0 -104 31t-38 79q0 31 21 64t78 59q-109 15 -168 84t-59 191q0 138 73.5 203t202.5 65q114 0 180 -57t66 -178q0 -54 -23.5 -83.5t-80.5 -29.5h-208q14 -32 40 -41t61 -9q18 0 32 1t26.5 4t26.5 7.5
t33 10.5q23 8 35 3.5t21 -30.5l20 -56q6 -21 -1 -31t-31 -21q-31 -14 -66 -23.5t-80 -12.5q-26 -23 -32.5 -42t-6.5 -36q0 -13 3 -26t11 -23.5t22 -17t36 -6.5q26 0 43.5 8t33.5 19zM300 392q-31 0 -50 -19.5t-25 -62.5h152q-2 44 -22 63t-55 19z" />
    <glyph glyph-name="Ecaron" unicode="&#x11a;" horiz-adv-x="584" 
d="M132 0q-30 0 -47 2.5t-25.5 14t-10.5 35t-2 64.5v269q0 24 -1 64.5t-2.5 82.5t-2.5 77t-1 47q0 23 2 36t13 19t34.5 7.5t67.5 1.5h334q18 0 29.5 -1.5t18 -8t8.5 -18.5t0 -33l-4 -42q-2 -18 -7.5 -29t-13.5 -16t-18 -6.5t-20 -1.5h-234l-3 -125h214q18 0 29.5 -1.5t18 -8
t8.5 -18.5t0 -33l-4 -42q-2 -18 -7.5 -29t-13.5 -16t-18 -6.5t-20 -1.5h-207v-127h244q18 0 29.5 -1.5t18 -8t8.5 -18.5t0 -33l-4 -42q-2 -18 -7.5 -29t-13.5 -16t-18 -6.5t-20 -1.5h-352zM313 902l101 50q25 12 35.5 6.5t21.5 -22.5q6 -9 9 -15t1.5 -12.5t-7.5 -14.5
t-19 -19l-123 -114q-8 -7 -19 -7t-19 7l-123 114q-26 22 -27 33t11 28q11 16 21.5 22t35.5 -6z" />
    <glyph glyph-name="ecaron" unicode="&#x11b;" horiz-adv-x="583" 
d="M235 189q14 -32 40 -41t61 -9q18 0 32 1t26.5 4t26.5 7.5t33 10.5q23 8 35 3.5t21 -30.5l20 -56q6 -21 -1 -31t-31 -21q-37 -17 -81.5 -27t-102.5 -10q-137 0 -213 70t-76 209q0 138 73.5 203t202.5 65q114 0 180 -57t66 -178q0 -54 -23.5 -83.5t-80.5 -29.5h-208z
M303 691l101 50q25 12 35.5 6.5t21.5 -22.5q6 -9 9 -15t1.5 -12.5t-7.5 -14.5t-19 -19l-123 -114q-8 -7 -19 -7t-19 7l-123 114q-26 22 -27 33t11 28q11 16 21.5 22t35.5 -6zM300 392q-31 0 -50 -19.5t-25 -62.5h152q-2 44 -22 63t-55 19z" />
    <glyph glyph-name="Gcircumflex" unicode="&#x11c;" horiz-adv-x="693" 
d="M249 359q0 -206 196 -206h13q-2 44 -3 83t-1 53q0 22 2 34.5t12 19t31.5 8t60.5 1.5q33 0 51.5 -2t27.5 -11.5t11 -30.5t2 -58q0 -53 -2 -98.5t-2 -97.5q0 -13 -4.5 -19.5t-18.5 -10.5q-18 -5 -42 -11t-52.5 -11t-59 -8.5t-61.5 -3.5q-185 0 -281 91t-96 278
q0 183 98 277t294 94q66 0 116 -9.5t93 -27.5q23 -10 29 -22t-2 -37q-10 -31 -16.5 -51.5t-14.5 -31t-19 -12t-29 4.5q-28 9 -60 18t-72 9q-103 0 -152 -53.5t-49 -158.5zM327 772q-25 -12 -35.5 -6t-21.5 22q-6 9 -9 15t-2 12.5t7.5 14.5t19.5 19l123 124q2 2 7.5 4.5
t11.5 2.5t11.5 -2.5t7.5 -4.5l123 -124q25 -23 26.5 -33.5t-10.5 -27.5q-11 -17 -21.5 -22.5t-35.5 6.5l-101 50z" />
    <glyph glyph-name="gcircumflex" unicode="&#x11d;" horiz-adv-x="624" 
d="M21 317q0 65 27.5 107.5t71 67.5t98.5 35t109 10q42 0 83.5 -4.5t77.5 -11t63 -14t39 -12.5q24 -11 26 -24t-2 -28l-17 -64q-2 -5 -4.5 -12.5t-8 -13.5t-14 -9t-21.5 0l-78 18q42 -9 62 -29.5t20 -58.5q0 -41 -21 -71t-57 -50t-84 -30t-102 -10h-6q-23 -2 -23 -12
q0 -11 24 -13.5t60.5 -5t79 -8t79 -22t60.5 -47t24 -82.5q0 -47 -21 -80.5t-59.5 -54.5t-93.5 -31t-123 -10q-57 0 -107 7t-87.5 23t-59 40t-21.5 59q0 44 39.5 70.5t131.5 31.5q-28 4 -54 9.5t-45.5 15.5t-31 25.5t-11.5 39.5q0 32 20 50.5t53 29.5q-45 23 -70.5 64.5
t-25.5 104.5zM211 582q-25 -12 -35.5 -6t-21.5 22q-6 9 -9 15t-2 12.5t7.5 14.5t19.5 19l123 124q2 2 7.5 4.5t11.5 2.5t11.5 -2.5t7.5 -4.5l123 -124q25 -23 26.5 -33.5t-10.5 -27.5q-11 -17 -21.5 -22.5t-35.5 6.5l-101 50zM287 222q24 0 38 23t14 77q0 53 -14 72.5
t-38 19.5q-23 0 -37.5 -19.5t-14.5 -72.5q0 -54 14.5 -77t37.5 -23zM288 -138q50 0 72.5 14.5t22.5 36.5q0 17 -12 27.5t-32.5 16.5t-47 9.5t-54.5 6.5q-23 -13 -33.5 -27.5t-10.5 -30.5q0 -23 23 -38t72 -15z" />
    <glyph glyph-name="Gbreve" unicode="&#x11e;" horiz-adv-x="693" 
d="M249 359q0 -206 196 -206h13q-2 44 -3 83t-1 53q0 22 2 34.5t12 19t31.5 8t60.5 1.5q33 0 51.5 -2t27.5 -11.5t11 -30.5t2 -58q0 -53 -2 -98.5t-2 -97.5q0 -13 -4.5 -19.5t-18.5 -10.5q-18 -5 -42 -11t-52.5 -11t-59 -8.5t-61.5 -3.5q-185 0 -281 91t-96 278
q0 183 98 277t294 94q66 0 116 -9.5t93 -27.5q23 -10 29 -22t-2 -37q-10 -31 -16.5 -51.5t-14.5 -31t-19 -12t-29 4.5q-28 9 -60 18t-72 9q-103 0 -152 -53.5t-49 -158.5zM424 760q-35 0 -68.5 10t-59.5 30.5t-41.5 51.5t-15.5 72q0 20 3 31t10.5 16t20.5 6t33 1t34.5 -0.5
t23.5 -4.5t13.5 -12.5t4.5 -24.5q0 -20 12.5 -30t29.5 -10t29.5 10t12.5 30q0 16 4.5 24.5t13.5 12.5t23.5 4.5t34.5 0.5t33 -1t20.5 -6t10.5 -16t3 -31q0 -41 -15.5 -72t-41.5 -51.5t-59.5 -30.5t-68.5 -10z" />
    <glyph glyph-name="gbreve" unicode="&#x11f;" horiz-adv-x="624" 
d="M21 317q0 65 27.5 107.5t71 67.5t98.5 35t109 10q42 0 83.5 -4.5t77.5 -11t63 -14t39 -12.5q24 -11 26 -24t-2 -28l-17 -64q-2 -5 -4.5 -12.5t-8 -13.5t-14 -9t-21.5 0l-78 18q42 -9 62 -29.5t20 -58.5q0 -41 -21 -71t-57 -50t-84 -30t-102 -10h-6q-23 -2 -23 -12
q0 -11 24 -13.5t60.5 -5t79 -8t79 -22t60.5 -47t24 -82.5q0 -47 -21 -80.5t-59.5 -54.5t-93.5 -31t-123 -10q-57 0 -107 7t-87.5 23t-59 40t-21.5 59q0 44 39.5 70.5t131.5 31.5q-28 4 -54 9.5t-45.5 15.5t-31 25.5t-11.5 39.5q0 32 20 50.5t53 29.5q-45 23 -70.5 64.5
t-25.5 104.5zM308 570q-35 0 -68.5 10t-59.5 30.5t-41.5 51.5t-15.5 72q0 20 3 31t10.5 16t20.5 6t33 1t34.5 -0.5t23.5 -4.5t13.5 -12.5t4.5 -24.5q0 -20 12.5 -30t29.5 -10t29.5 10t12.5 30q0 16 4.5 24.5t13.5 12.5t23.5 4.5t34.5 0.5t33 -1t20.5 -6t10.5 -16t3 -31
q0 -41 -15.5 -72t-41.5 -51.5t-59.5 -30.5t-68.5 -10zM287 222q24 0 38 23t14 77q0 53 -14 72.5t-38 19.5q-23 0 -37.5 -19.5t-14.5 -72.5q0 -54 14.5 -77t37.5 -23zM288 -138q50 0 72.5 14.5t22.5 36.5q0 17 -12 27.5t-32.5 16.5t-47 9.5t-54.5 6.5q-23 -13 -33.5 -27.5
t-10.5 -30.5q0 -23 23 -38t72 -15z" />
    <glyph glyph-name="Gdotaccent" unicode="&#x120;" horiz-adv-x="693" 
d="M249 359q0 -206 196 -206h13q-2 44 -3 83t-1 53q0 22 2 34.5t12 19t31.5 8t60.5 1.5q33 0 51.5 -2t27.5 -11.5t11 -30.5t2 -58q0 -53 -2 -98.5t-2 -97.5q0 -13 -4.5 -19.5t-18.5 -10.5q-18 -5 -42 -11t-52.5 -11t-59 -8.5t-61.5 -3.5q-185 0 -281 91t-96 278
q0 183 98 277t294 94q66 0 116 -9.5t93 -27.5q23 -10 29 -22t-2 -37q-10 -31 -16.5 -51.5t-14.5 -31t-19 -12t-29 4.5q-28 9 -60 18t-72 9q-103 0 -152 -53.5t-49 -158.5zM319 868q0 38 7 60t21 33.5t34.5 14.5t47.5 3q34 0 54 -2.5t30.5 -10t13.5 -22t3 -38.5v-26
q0 -38 -7 -60t-21 -33.5t-34.5 -14.5t-47.5 -3q-34 0 -54 2.5t-30.5 10t-13.5 22t-3 38.5v26z" />
    <glyph glyph-name="gdotaccent" unicode="&#x121;" horiz-adv-x="624" 
d="M21 317q0 65 27.5 107.5t71 67.5t98.5 35t109 10q42 0 83.5 -4.5t77.5 -11t63 -14t39 -12.5q24 -11 26 -24t-2 -28l-17 -64q-2 -5 -4.5 -12.5t-8 -13.5t-14 -9t-21.5 0l-78 18q42 -9 62 -29.5t20 -58.5q0 -41 -21 -71t-57 -50t-84 -30t-102 -10h-6q-23 -2 -23 -12
q0 -11 24 -13.5t60.5 -5t79 -8t79 -22t60.5 -47t24 -82.5q0 -47 -21 -80.5t-59.5 -54.5t-93.5 -31t-123 -10q-57 0 -107 7t-87.5 23t-59 40t-21.5 59q0 44 39.5 70.5t131.5 31.5q-28 4 -54 9.5t-45.5 15.5t-31 25.5t-11.5 39.5q0 32 20 50.5t53 29.5q-45 23 -70.5 64.5
t-25.5 104.5zM203 678q0 38 7 60t21 33.5t34.5 14.5t47.5 3q34 0 54 -2.5t30.5 -10t13.5 -22t3 -38.5v-26q0 -38 -7 -60t-21 -33.5t-34.5 -14.5t-47.5 -3q-34 0 -54 2.5t-30.5 10t-13.5 22t-3 38.5v26zM287 222q24 0 38 23t14 77q0 53 -14 72.5t-38 19.5q-23 0 -37.5 -19.5
t-14.5 -72.5q0 -54 14.5 -77t37.5 -23zM288 -138q50 0 72.5 14.5t22.5 36.5q0 17 -12 27.5t-32.5 16.5t-47 9.5t-54.5 6.5q-23 -13 -33.5 -27.5t-10.5 -30.5q0 -23 23 -38t72 -15z" />
    <glyph glyph-name="uni0122" unicode="&#x122;" horiz-adv-x="693" 
d="M249 359q0 -206 196 -206h13q-2 44 -3 83t-1 53q0 22 2 34.5t12 19t31.5 8t60.5 1.5q33 0 51.5 -2t27.5 -11.5t11 -30.5t2 -58q0 -53 -2 -98.5t-2 -97.5q0 -13 -4.5 -19.5t-18.5 -10.5q-18 -5 -42 -11t-52.5 -11t-59 -8.5t-61.5 -3.5q-185 0 -281 91t-96 278
q0 183 98 277t294 94q66 0 116 -9.5t93 -27.5q23 -10 29 -22t-2 -37q-10 -31 -16.5 -51.5t-14.5 -31t-19 -12t-29 4.5q-28 9 -60 18t-72 9q-103 0 -152 -53.5t-49 -158.5zM324 -324q-17 -27 -33.5 -29.5t-36.5 -2.5q-7 0 -10 4t-3.5 10t0.5 12t2 10l52 217q1 6 16 10
t35.5 6.5t41 3t33.5 0.5q10 0 23.5 -6.5t13.5 -23.5q0 -5 -3 -11z" />
    <glyph glyph-name="uni0123" unicode="&#x123;" horiz-adv-x="624" 
d="M21 317q0 65 27.5 107.5t71 67.5t98.5 35t109 10q42 0 83.5 -4.5t77.5 -11t63 -14t39 -12.5q24 -11 26 -24t-2 -28l-17 -64q-2 -5 -4.5 -12.5t-8 -13.5t-14 -9t-21.5 0l-78 18q42 -9 62 -29.5t20 -58.5q0 -41 -21.5 -71t-57.5 -50t-84.5 -30t-102.5 -10q-12 -1 -19.5 -4
t-7.5 -8q0 -11 24 -13.5t60.5 -5t79 -8t79 -22t60.5 -47t24 -82.5q0 -47 -21 -80.5t-59.5 -54.5t-93.5 -31t-123 -10q-57 0 -107 7t-87.5 23t-59 40t-21.5 59q0 44 39.5 70.5t131.5 31.5q-28 4 -54 9.5t-45.5 15.5t-31 25.5t-11.5 39.5q0 32 20 50.5t53 29.5
q-45 23 -70.5 64.5t-25.5 104.5zM441 712q-6 -37 -14 -62.5t-21.5 -41t-35 -22.5t-55.5 -7q-83 0 -96 34t49 117l107 143q13 17 28.5 20.5t32.5 -0.5q20 -5 25.5 -15.5t2.5 -29.5zM287 222q24 0 38 23t14 77q0 53 -14 72.5t-38 19.5q-23 0 -37.5 -19.5t-14.5 -72.5
q0 -54 14.5 -77t37.5 -23zM288 -138q50 0 72.5 14.5t22.5 36.5q0 17 -12 27.5t-32.5 16.5t-47 9.5t-54.5 6.5q-23 -13 -33.5 -27.5t-10.5 -30.5q0 -23 23 -38t72 -15z" />
    <glyph glyph-name="Hcircumflex" unicode="&#x124;" horiz-adv-x="736" 
d="M696 616q0 -31 -0.5 -59t-1.5 -56t-1.5 -56.5t-0.5 -59.5v-269q0 -43 -3 -66.5t-14.5 -34.5t-34.5 -13t-63 -2q-30 0 -47 2.5t-25.5 14t-11 35t-2.5 64.5v165h-243v-165q0 -43 -3 -66.5t-15 -34.5t-35 -13t-63 -2q-30 0 -47 2.5t-25.5 14t-10.5 35t-2 64.5v269
q0 24 -1 64.5t-2.5 82.5t-2.5 77t-1 47q0 23 2 36t13 19t34.5 7.5t67.5 1.5q34 0 53 -2t28.5 -12t11.5 -31t2 -59q0 -48 -1.5 -91t-2.5 -88h242q-1 29 -2 63.5t-2 65.5t-1.5 55.5t-0.5 34.5q0 23 2 36t13.5 19t35 7.5t67.5 1.5q34 0 53 -2t28 -12t11 -31t2 -59zM264 772
q-25 -12 -35.5 -6t-21.5 22q-6 9 -9 15t-2 12.5t7.5 14.5t19.5 19l123 124q2 2 7.5 4.5t11.5 2.5t11.5 -2.5t7.5 -4.5l123 -124q25 -23 26.5 -33.5t-10.5 -27.5q-11 -17 -21.5 -22.5t-35.5 6.5l-101 50z" />
    <glyph glyph-name="hcircumflex" unicode="&#x125;" horiz-adv-x="601" 
d="M365 296q0 52 -42 52q-32 0 -55.5 -31.5t-25.5 -94.5v-106q0 -42 -3 -65.5t-14 -35t-34.5 -13.5t-63.5 -2q-30 0 -47 2.5t-25.5 14t-10.5 35t-2 64.5v269q0 16 -0.5 42t-1.5 56t-1.5 61.5t-1.5 59t-1.5 48.5t-0.5 29q0 23 2 36t13 19t34.5 7.5t67.5 1.5q34 0 53 -2
t28 -12t11 -31t2 -59q0 -62 -2 -127.5t-2 -128.5v-10q9 41 29 71.5t46 50.5t56 30t59 10q27 0 52.5 -7t44.5 -27.5t30.5 -58t11.5 -98.5q0 -51 -3 -101t-3 -101v-32q0 -41 -3 -63.5t-14.5 -33t-34.5 -13t-63 -2.5q-29 0 -46 2.5t-25.5 13.5t-11 33.5t-2.5 62.5v184zM335 561
q-25 -12 -35.5 -6t-21.5 22q-6 9 -9 15t-2 12.5t7.5 14.5t19.5 19l123 124q2 2 7.5 4.5t11.5 2.5t11.5 -2.5t7.5 -4.5l123 -124q25 -23 26.5 -33.5t-10.5 -27.5q-11 -17 -21.5 -22.5t-35.5 6.5l-101 50z" />
    <glyph glyph-name="Hbar" unicode="&#x126;" horiz-adv-x="736" 
d="M693 489q-1 -25 -1 -50.5v-53.5v-269q0 -43 -3 -66.5t-14.5 -34.5t-34.5 -13t-63 -2q-30 0 -47 2.5t-25.5 14t-11 35t-2.5 64.5v165h-243v-165q0 -43 -3 -66.5t-15 -34.5t-35 -13t-63 -2q-30 0 -47 2.5t-25.5 14t-10.5 35t-2 64.5v269q0 18 -0.5 45t-1.5 59h-46
q-10 0 -20 11t-10 23t0.5 28.5t3.5 31.5t9 25.5t16 10.5h42v37q0 23 2 36t13 19t34.5 7.5t67.5 1.5q34 0 53 -2t28.5 -12t11.5 -30t2 -57h232v37q0 23 2 36t13.5 19t35 7.5t67.5 1.5q34 0 53 -2t28 -12t11 -30t2 -57h36q10 0 20.5 -11t10.5 -23t-1.5 -28.5t-5.5 -31.5
t-10.5 -25.5t-16.5 -10.5h-36zM249 489v-26t-1 -26h242q0 12 -0.5 25t-0.5 27h-240z" />
    <glyph glyph-name="hbar" unicode="&#x127;" horiz-adv-x="601" 
d="M245 540l-2 -78t-1 -77v-10q9 41 29 71.5t46 50.5t56 30t59 10q27 0 52.5 -7t44.5 -27.5t30.5 -58t11.5 -98.5q0 -51 -3 -101t-3 -101v-32q0 -41 -3 -63.5t-14.5 -33t-34.5 -13t-63 -2.5q-29 0 -46 2.5t-25.5 13.5t-11 33.5t-2.5 62.5v184q0 52 -42 52q-32 0 -55.5 -31.5
t-25.5 -94.5v-106q0 -42 -3 -65.5t-14 -35t-34.5 -13.5t-63.5 -2q-30 0 -47 2.5t-25.5 14t-10.5 35t-2 64.5v269q0 23 -1 66t-2 89h-33q-14 0 -22 11t-8 23t0.5 28.5t3.5 31.5t9 25.5t16 10.5h30v11q0 23 2 36t13 19t34.5 7.5t67.5 1.5q30 0 48.5 -1.5t28 -8.5t13 -22.5
t4.5 -42.5h54q14 0 22.5 -11t8.5 -23t-1.5 -28.5t-5.5 -31.5t-10.5 -25.5t-16.5 -10.5h-52z" />
    <glyph glyph-name="Itilde" unicode="&#x128;" horiz-adv-x="289" 
d="M247 616q0 -31 -0.5 -59t-1.5 -56t-1.5 -56.5t-0.5 -59.5v-269q0 -43 -3 -66.5t-14.5 -34.5t-34.5 -13t-63 -2q-30 0 -47 2.5t-25.5 14t-10.5 35t-2 64.5v269q0 24 -1 64.5t-2.5 82.5t-2.5 77t-1 47q0 23 2 36t13 19t34.5 7.5t67.5 1.5q34 0 53 -2t28 -12t11 -31t2 -59z
M181 766q-10 0 -29 6.5t-39 12t-37 5t-23 -13.5q0 -2 -3 -5t-11.5 -4t-24 2t-41.5 14q-23 10 -18 33q10 55 43.5 87t77.5 30q15 -1 38.5 -9t46.5 -13.5t42 -5t26 17.5q0 2 3 5t11.5 4t24 -2t41.5 -14q22 -11 18 -33q-6 -32 -20 -55t-34 -37t-43.5 -20.5t-48.5 -4.5z" />
    <glyph glyph-name="itilde" unicode="&#x129;" horiz-adv-x="284" 
d="M246 423q0 -62 -2 -127.5t-2 -128.5v-55q0 -41 -3 -63.5t-14.5 -33t-34.5 -13t-63 -2.5q-29 0 -46 2.5t-25.5 13.5t-11 33.5t-2.5 62.5v55q0 16 -0.5 42t-1.5 56t-1.5 61.5t-1.5 59t-1.5 48.5t-0.5 29q0 23 2 36t13 19t34.5 7.5t67.5 1.5q34 0 53 -2t28 -12t11 -31t2 -59
zM181 555q-10 0 -29 6.5t-39 12t-37 5t-23 -13.5q0 -2 -3 -5t-11.5 -4t-24 2t-41.5 14q-23 10 -18 33q10 55 43.5 87t77.5 30q15 -1 38.5 -9t46.5 -13.5t42 -5t26 17.5q0 2 3 5t11.5 4t24 -2t41.5 -14q22 -11 18 -33q-6 -32 -20 -55t-34 -37t-43.5 -20.5t-48.5 -4.5z" />
    <glyph glyph-name="Imacron" unicode="&#x12a;" horiz-adv-x="289" 
d="M247 616q0 -31 -0.5 -59t-1.5 -56t-1.5 -56.5t-0.5 -59.5v-269q0 -43 -3 -66.5t-14.5 -34.5t-34.5 -13t-63 -2q-30 0 -47 2.5t-25.5 14t-10.5 35t-2 64.5v269q0 24 -1 64.5t-2.5 82.5t-2.5 77t-1 47q0 23 2 36t13 19t34.5 7.5t67.5 1.5q34 0 53 -2t28 -12t11 -31t2 -59z
M-6 770q-14 0 -22 11t-8 23t0.5 28.5t3.5 31.5t9 25.5t16 10.5h295q14 0 22.5 -11t8.5 -23t-1.5 -28.5t-5.5 -31.5t-10.5 -25.5t-16.5 -10.5h-291z" />
    <glyph glyph-name="imacron" unicode="&#x12b;" horiz-adv-x="284" 
d="M246 423q0 -62 -2 -127.5t-2 -128.5v-55q0 -41 -3 -63.5t-14.5 -33t-34.5 -13t-63 -2.5q-29 0 -46 2.5t-25.5 13.5t-11 33.5t-2.5 62.5v55q0 16 -0.5 42t-1.5 56t-1.5 61.5t-1.5 59t-1.5 48.5t-0.5 29q0 23 2 36t13 19t34.5 7.5t67.5 1.5q34 0 53 -2t28 -12t11 -31t2 -59
zM-6 559q-14 0 -22 11t-8 23t0.5 28.5t3.5 31.5t9 25.5t16 10.5h295q14 0 22.5 -11t8.5 -23t-1.5 -28.5t-5.5 -31.5t-10.5 -25.5t-16.5 -10.5h-291z" />
    <glyph glyph-name="Ibreve" unicode="&#x12c;" horiz-adv-x="289" 
d="M247 616q0 -31 -0.5 -59t-1.5 -56t-1.5 -56.5t-0.5 -59.5v-269q0 -43 -3 -66.5t-14.5 -34.5t-34.5 -13t-63 -2q-30 0 -47 2.5t-25.5 14t-10.5 35t-2 64.5v269q0 24 -1 64.5t-2.5 82.5t-2.5 77t-1 47q0 23 2 36t13 19t34.5 7.5t67.5 1.5q34 0 53 -2t28 -12t11 -31t2 -59z
M141 760q-35 0 -68.5 10t-59.5 30.5t-41.5 51.5t-15.5 72q0 20 3 31t10.5 16t20.5 6t33 1t34.5 -0.5t23.5 -4.5t13.5 -12.5t4.5 -24.5q0 -20 12.5 -30t29.5 -10t29.5 10t12.5 30q0 16 4.5 24.5t13.5 12.5t23.5 4.5t34.5 0.5t33 -1t20.5 -6t10.5 -16t3 -31q0 -41 -15.5 -72
t-41.5 -51.5t-59.5 -30.5t-68.5 -10z" />
    <glyph glyph-name="ibreve" unicode="&#x12d;" horiz-adv-x="284" 
d="M246 423q0 -62 -2 -127.5t-2 -128.5v-55q0 -41 -3 -63.5t-14.5 -33t-34.5 -13t-63 -2.5q-29 0 -46 2.5t-25.5 13.5t-11 33.5t-2.5 62.5v55q0 16 -0.5 42t-1.5 56t-1.5 61.5t-1.5 59t-1.5 48.5t-0.5 29q0 23 2 36t13 19t34.5 7.5t67.5 1.5q34 0 53 -2t28 -12t11 -31t2 -59
zM141 549q-35 0 -68.5 10t-59.5 30.5t-41.5 51.5t-15.5 72q0 20 3 31t10.5 16t20.5 6t33 1t34.5 -0.5t23.5 -4.5t13.5 -12.5t4.5 -24.5q0 -20 12.5 -30t29.5 -10t29.5 10t12.5 30q0 16 4.5 24.5t13.5 12.5t23.5 4.5t34.5 0.5t33 -1t20.5 -6t10.5 -16t3 -31q0 -41 -15.5 -72
t-41.5 -51.5t-59.5 -30.5t-68.5 -10z" />
    <glyph glyph-name="Iogonek" unicode="&#x12e;" horiz-adv-x="289" 
d="M312 -117q8 6 11.5 2t-1.5 -12q-32 -44 -74.5 -70t-102.5 -26q-66 0 -104 31t-38 79q0 29 17.5 59t65.5 56q-15 2 -23.5 8t-13 18.5t-5.5 34t-1 53.5v269q0 24 -1 64.5t-2.5 82.5t-2.5 77t-1 47q0 23 2 36t13 19t34.5 7.5t67.5 1.5q34 0 53 -2t28 -12t11 -31t2 -59
q0 -31 -0.5 -59t-1.5 -56t-1.5 -56.5t-0.5 -59.5v-269q0 -30 -1.5 -50.5t-6 -33.5t-13.5 -19.5t-24 -9.5q-23 -22 -29 -40t-6 -34q0 -13 3 -26t11 -23.5t22 -17t36 -6.5q26 0 43.5 8t33.5 19z" />
    <glyph glyph-name="iogonek" unicode="&#x12f;" horiz-adv-x="284" 
d="M42 167q0 16 -0.5 42t-1.5 56t-1.5 61.5t-1.5 59t-1.5 48.5t-0.5 29q0 23 2 36t13 19t34.5 7.5t67.5 1.5q34 0 53 -2t28 -12t11 -31t2 -59q0 -62 -2 -127.5t-2 -128.5v-55q0 -36 -2.5 -57.5t-10.5 -33.5t-24.5 -16t-44.5 -5q-17 -19 -21.5 -35t-4.5 -30q0 -13 3 -26
t11 -23.5t22 -17t36 -6.5q26 0 43.5 8t33.5 19q8 6 11.5 2t-1.5 -12q-32 -44 -74.5 -70t-102.5 -26q-66 0 -104 31t-38 79q0 29 18.5 60t68.5 57q-13 9 -16 32t-3 70v55zM38 659q0 38 7 60t21 33.5t34.5 14.5t47.5 3q34 0 54 -2.5t30.5 -10t13.5 -22t3 -38.5v-26
q0 -38 -7 -60t-21 -33.5t-34.5 -14.5t-47.5 -3q-34 0 -54 2.5t-30.5 10t-13.5 22t-3 38.5v26z" />
    <glyph glyph-name="Idotaccent" unicode="&#x130;" horiz-adv-x="289" 
d="M247 616q0 -31 -0.5 -59t-1.5 -56t-1.5 -56.5t-0.5 -59.5v-269q0 -43 -3 -66.5t-14.5 -34.5t-34.5 -13t-63 -2q-30 0 -47 2.5t-25.5 14t-10.5 35t-2 64.5v269q0 24 -1 64.5t-2.5 82.5t-2.5 77t-1 47q0 23 2 36t13 19t34.5 7.5t67.5 1.5q34 0 53 -2t28 -12t11 -31t2 -59z
M36 868q0 38 7 60t21 33.5t34.5 14.5t47.5 3q34 0 54 -2.5t30.5 -10t13.5 -22t3 -38.5v-26q0 -38 -7 -60t-21 -33.5t-34.5 -14.5t-47.5 -3q-34 0 -54 2.5t-30.5 10t-13.5 22t-3 38.5v26z" />
    <glyph glyph-name="dotlessi" unicode="&#x131;" horiz-adv-x="284" 
d="M246 423q0 -62 -2 -127.5t-2 -128.5v-55q0 -41 -3 -63.5t-14.5 -33t-34.5 -13t-63 -2.5q-29 0 -46 2.5t-25.5 13.5t-11 33.5t-2.5 62.5v55q0 16 -0.5 42t-1.5 56t-1.5 61.5t-1.5 59t-1.5 48.5t-0.5 29q0 23 2 36t13 19t34.5 7.5t67.5 1.5q34 0 53 -2t28 -12t11 -31t2 -59
z" />
    <glyph glyph-name="IJ" unicode="&#x132;" horiz-adv-x="802" 
d="M247 616q0 -31 -0.5 -59t-1.5 -56t-1.5 -56.5t-0.5 -59.5v-269q0 -43 -3 -66.5t-14.5 -34.5t-34.5 -13t-63 -2q-30 0 -47 2.5t-25.5 14t-10.5 35t-2 64.5v269q0 24 -1 64.5t-2.5 82.5t-2.5 77t-1 47q0 23 2 36t13 19t34.5 7.5t67.5 1.5q34 0 53 -2t28 -12t11 -31t2 -59z
M573 385q0 24 -1 64.5t-2.5 82.5t-2.5 77t-1 47q0 22 2 35t12 19.5t31 8t60 1.5t60 -2t31.5 -11.5t12.5 -29t2 -53.5q0 -40 -0.5 -71.5t-1.5 -61t-1.5 -59.5t-0.5 -66v-48q0 -91 -18 -153.5t-52.5 -101.5t-85 -56t-115.5 -17q-31 0 -58.5 3t-50 7t-38 8.5t-22.5 6.5
q-18 6 -26.5 14t-11.5 16.5t-1.5 17t3.5 16.5l18 64q12 42 59 29q20 -5 46 -10.5t53 -5.5q51 0 75.5 39.5t24.5 122.5v67z" />
    <glyph glyph-name="ij" unicode="&#x133;" horiz-adv-x="570" 
d="M531 423q0 -62 -2 -127.5t-2 -128.5v-71q0 -103 -16.5 -166t-45 -97t-66 -45t-80.5 -11q-32 0 -66 7.5t-57 17.5q-19 10 -28 22t0 38l20 56q8 26 21 32.5t28 1.5q9 -3 16.5 -5t16.5 -2q37 0 47 36t10 115v71q0 16 -0.5 42t-1.5 56t-1.5 61.5t-1.5 59t-1.5 48.5t-0.5 29
q0 23 2 36t13 19t34.5 7.5t67.5 1.5q34 0 53 -2t28 -12t11 -31t2 -59zM42 167q0 16 -0.5 42t-1.5 56t-1.5 61.5t-1.5 59t-1.5 48.5t-0.5 29q0 23 2 36t13 19t34.5 7.5t67.5 1.5q34 0 53 -2t28 -12t11 -31t2 -59q0 -62 -2 -127.5t-2 -128.5v-55q0 -41 -3 -63.5t-14.5 -33
t-34.5 -13t-63 -2.5q-29 0 -46 2.5t-25.5 13.5t-11 33.5t-2.5 62.5v55zM324 659q0 38 7 60t21 33.5t34.5 14.5t47.5 3q34 0 54 -2.5t30.5 -10t13.5 -22t3 -38.5v-26q0 -38 -7 -60t-21 -33.5t-34.5 -14.5t-47.5 -3q-34 0 -54 2.5t-30.5 10t-13.5 22t-3 38.5v26zM38 659
q0 38 7 60t21 33.5t34.5 14.5t47.5 3q34 0 54 -2.5t30.5 -10t13.5 -22t3 -38.5v-26q0 -38 -7 -60t-21 -33.5t-34.5 -14.5t-47.5 -3q-34 0 -54 2.5t-30.5 10t-13.5 22t-3 38.5v26z" />
    <glyph glyph-name="Jcircumflex" unicode="&#x134;" horiz-adv-x="513" 
d="M284 385q0 24 -1 64.5t-2.5 82.5t-2.5 77t-1 47q0 22 2 35t12 19.5t31 8t60 1.5t60 -2t31.5 -11.5t12.5 -29t2 -53.5q0 -40 -0.5 -71.5t-1.5 -61t-1.5 -59.5t-0.5 -66v-48q0 -91 -18 -153.5t-52.5 -101.5t-85 -56t-115.5 -17q-31 0 -58.5 3t-50 7t-38 8.5t-22.5 6.5
q-18 6 -26.5 14t-11.5 16.5t-1.5 17t3.5 16.5l18 64q12 42 59 29q20 -5 46 -10.5t53 -5.5q51 0 75.5 39.5t24.5 122.5v67zM282 776q-25 -12 -35.5 -6t-21.5 22q-6 9 -9 15t-2 12.5t7.5 14.5t19.5 19l123 124q2 2 7.5 4.5t11.5 2.5t11.5 -2.5t7.5 -4.5l123 -124
q25 -23 26.5 -33.5t-10.5 -27.5q-11 -17 -21.5 -22.5t-35.5 6.5l-101 50z" />
    <glyph glyph-name="jcircumflex" unicode="&#x135;" horiz-adv-x="286" 
d="M247 423q0 -62 -2 -127.5t-2 -128.5v-71q0 -103 -16.5 -166t-45 -97t-66 -45t-80.5 -11q-32 0 -66 7.5t-57 17.5q-19 10 -28 22t0 38l20 56q8 26 21 32.5t28 1.5q9 -3 16.5 -5t16.5 -2q37 0 47 36t10 115v71q0 16 -0.5 42t-1.5 56t-1.5 61.5t-1.5 59t-1.5 48.5t-0.5 29
q0 23 2 36t13 19t34.5 7.5t67.5 1.5q34 0 53 -2t28 -12t11 -31t2 -59zM41 561q-25 -12 -35.5 -6t-21.5 22q-6 9 -9 15t-2 12.5t7.5 14.5t19.5 19l123 124q2 2 7.5 4.5t11.5 2.5t11.5 -2.5t7.5 -4.5l123 -124q25 -23 26.5 -33.5t-10.5 -27.5q-11 -17 -21.5 -22.5t-35.5 6.5
l-101 50z" />
    <glyph glyph-name="uni0136" unicode="&#x136;" horiz-adv-x="761" 
d="M237 616q0 -58 -2 -108t-2 -107l176 257q16 23 27.5 36t28.5 19t43.5 7.5t71.5 1.5q31 0 47.5 -3t18.5 -13t-9.5 -30.5t-37.5 -54.5l-187 -250l187 -268q24 -35 35.5 -55.5t9.5 -31t-18 -13.5t-47 -3q-55 0 -84.5 1t-46 7t-26 19t-24.5 38l-165 268v-217q0 -43 -3 -66.5
t-14.5 -34.5t-34.5 -13t-63 -2q-30 0 -47 2.5t-25.5 14t-10.5 35t-2 64.5v269q0 24 -1 64.5t-2.5 82.5t-2.5 77t-1 47q0 23 2 36t13 19t34.5 7.5t67.5 1.5q34 0 53 -2t28 -12t11 -31t2 -59zM335 -324q-17 -27 -33.5 -29.5t-36.5 -2.5q-7 0 -10 4t-3.5 10t0.5 12t2 10l52 217
q1 6 16 10t35.5 6.5t41 3t33.5 0.5q10 0 23.5 -6.5t13.5 -23.5q0 -5 -3 -11z" />
    <glyph glyph-name="uni0137" unicode="&#x137;" horiz-adv-x="588" 
d="M246 641q0 -62 -2 -127.5t-2 -128.5v-85l86 160q13 24 23 37.5t27.5 20t48 8t84.5 1.5q31 0 47.5 -2.5t18.5 -13t-9.5 -31.5t-36.5 -57l-110 -159l110 -160q25 -36 36.5 -57t9.5 -31.5t-18.5 -13t-47.5 -2.5q-54 0 -84.5 1.5t-48 8t-27.5 20t-23 37.5l-86 159v-110
q0 -42 -3 -65.5t-14 -35t-34.5 -13.5t-63.5 -2q-30 0 -47 2.5t-25.5 14t-10.5 35t-2 64.5v269q0 16 -0.5 42t-1.5 56t-1.5 61.5t-1.5 59t-1.5 48.5t-0.5 29q0 23 2 36t13 19t34.5 7.5t67.5 1.5q34 0 53 -2t28 -12t11 -31t2 -59zM271 -324q-17 -27 -33.5 -29.5t-36.5 -2.5
q-7 0 -10 4t-3.5 10t0.5 12t2 10l52 217q1 6 16 10t35.5 6.5t41 3t33.5 0.5q10 0 23.5 -6.5t13.5 -23.5q0 -5 -3 -11z" />
    <glyph glyph-name="Lacute" unicode="&#x139;" horiz-adv-x="552" 
d="M132 0q-30 0 -47 2.5t-25.5 14t-10.5 35t-2 64.5v269q0 24 -1 64.5t-2.5 82.5t-2.5 77t-1 47q0 23 2 36t13 19t34.5 7.5t67.5 1.5q34 0 53 -2t28 -12t11 -31t2 -59q0 -31 -0.5 -59t-1.5 -56t-1.5 -56.5t-0.5 -59.5v-229h238q18 0 29.5 -1.5t18 -8t8.5 -18.5t0 -33l-4 -42
q-2 -18 -7.5 -29t-13.5 -16t-18 -6.5t-20 -1.5h-346zM206 999q6 12 17.5 20.5t26.5 12t32 0.5t34 -14q18 -11 27.5 -26t11.5 -30.5t-2.5 -29.5t-14.5 -22l-162 -131q-14 -11 -25.5 -14t-18.5 1t-8.5 14.5t5.5 27.5z" />
    <glyph glyph-name="lacute" unicode="&#x13a;" horiz-adv-x="281" 
d="M246 641q0 -62 -2 -127.5t-2 -128.5v-273q0 -41 -3 -63.5t-14.5 -33t-34.5 -13t-63 -2.5q-29 0 -46 2.5t-25.5 13.5t-11 33.5t-2.5 62.5v273q0 16 -0.5 42t-1.5 56t-1.5 61.5t-1.5 59t-1.5 48.5t-0.5 29q0 23 2 36t13 19t34.5 7.5t67.5 1.5q34 0 53 -2t28 -12t11 -31
t2 -59zM190 999q6 12 17.5 20.5t26.5 12t32 0.5t34 -14q18 -11 27.5 -26t11.5 -30.5t-2.5 -29.5t-14.5 -22l-162 -131q-14 -11 -25.5 -14t-18.5 1t-8.5 14.5t5.5 27.5z" />
    <glyph glyph-name="uni013B" unicode="&#x13b;" horiz-adv-x="552" 
d="M132 0q-30 0 -47 2.5t-25.5 14t-10.5 35t-2 64.5v269q0 24 -1 64.5t-2.5 82.5t-2.5 77t-1 47q0 23 2 36t13 19t34.5 7.5t67.5 1.5q34 0 53 -2t28 -12t11 -31t2 -59q0 -31 -0.5 -59t-1.5 -56t-1.5 -56.5t-0.5 -59.5v-229h238q18 0 29.5 -1.5t18 -8t8.5 -18.5t0 -33l-4 -42
q-2 -18 -7.5 -29t-13.5 -16t-18 -6.5t-20 -1.5h-346zM253 -324q-17 -27 -33.5 -29.5t-36.5 -2.5q-7 0 -10 4t-3.5 10t0.5 12t2 10l52 217q1 6 16 10t35.5 6.5t41 3t33.5 0.5q10 0 23.5 -6.5t13.5 -23.5q0 -5 -3 -11z" />
    <glyph glyph-name="uni013C" unicode="&#x13c;" horiz-adv-x="281" 
d="M246 641q0 -62 -2 -127.5t-2 -128.5v-273q0 -41 -3 -63.5t-14.5 -33t-34.5 -13t-63 -2.5q-29 0 -46 2.5t-25.5 13.5t-11 33.5t-2.5 62.5v273q0 16 -0.5 42t-1.5 56t-1.5 61.5t-1.5 59t-1.5 48.5t-0.5 29q0 23 2 36t13 19t34.5 7.5t67.5 1.5q34 0 53 -2t28 -12t11 -31
t2 -59zM118 -324q-17 -27 -33.5 -29.5t-36.5 -2.5q-7 0 -10 4t-3.5 10t0.5 12t2 10l52 217q1 6 16 10t35.5 6.5t41 3t33.5 0.5q10 0 23.5 -6.5t13.5 -23.5q0 -5 -3 -11z" />
    <glyph glyph-name="Lcaron" unicode="&#x13d;" horiz-adv-x="552" 
d="M132 0q-30 0 -47 2.5t-25.5 14t-10.5 35t-2 64.5v269q0 24 -1 64.5t-2.5 82.5t-2.5 77t-1 47q0 23 2 36t13 19t34.5 7.5t67.5 1.5q34 0 53 -2t28 -12t11 -31t2 -59q0 -31 -0.5 -59t-1.5 -56t-1.5 -56.5t-0.5 -59.5v-229h238q18 0 29.5 -1.5t18 -8t8.5 -18.5t0 -33l-4 -42
q-2 -18 -7.5 -29t-13.5 -16t-18 -6.5t-20 -1.5h-346zM328 587q6 37 14 62t21.5 41t35 23t55.5 7q82 0 95.5 -34t-48.5 -117l-107 -143q-13 -17 -28.5 -20.5t-32.5 0.5q-20 5 -25.5 15.5t-2.5 29.5z" />
    <glyph glyph-name="lcaron" unicode="&#x13e;" horiz-adv-x="557" 
d="M246 641q0 -62 -2 -127.5t-2 -128.5v-273q0 -41 -3 -63.5t-14.5 -33t-34.5 -13t-63 -2.5q-29 0 -46 2.5t-25.5 13.5t-11 33.5t-2.5 62.5v273q0 16 -0.5 42t-1.5 56t-1.5 61.5t-1.5 59t-1.5 48.5t-0.5 29q0 23 2 36t13 19t34.5 7.5t67.5 1.5q34 0 53 -2t28 -12t11 -31
t2 -59zM336 600q6 37 14 62t21.5 41t35 23t55.5 7q82 0 95.5 -34t-48.5 -117l-107 -143q-13 -17 -28.5 -20.5t-32.5 0.5q-20 5 -25.5 15.5t-2.5 29.5z" />
    <glyph glyph-name="Ldot" unicode="&#x13f;" horiz-adv-x="552" 
d="M132 0q-30 0 -47 2.5t-25.5 14t-10.5 35t-2 64.5v269q0 24 -1 64.5t-2.5 82.5t-2.5 77t-1 47q0 23 2 36t13 19t34.5 7.5t67.5 1.5q34 0 53 -2t28 -12t11 -31t2 -59q0 -31 -0.5 -59t-1.5 -56t-1.5 -56.5t-0.5 -59.5v-229h238q18 0 29.5 -1.5t18 -8t8.5 -18.5t0 -33l-4 -42
q-2 -18 -7.5 -29t-13.5 -16t-18 -6.5t-20 -1.5h-346zM290 308q0 38 7 60t21 33.5t34.5 14.5t47.5 3q34 0 54 -2.5t30.5 -10t13.5 -22t3 -38.5v-26q0 -38 -7 -60t-21 -33.5t-34.5 -14.5t-47.5 -3q-34 0 -54 2.5t-30.5 10t-13.5 22t-3 38.5v26z" />
    <glyph glyph-name="ldot" unicode="&#x140;" horiz-adv-x="607" 
d="M246 641q0 -62 -2 -127.5t-2 -128.5v-273q0 -41 -3 -63.5t-14.5 -33t-34.5 -13t-63 -2.5q-29 0 -46 2.5t-25.5 13.5t-11 33.5t-2.5 62.5v273q0 16 -0.5 42t-1.5 56t-1.5 61.5t-1.5 59t-1.5 48.5t-0.5 29q0 23 2 36t13 19t34.5 7.5t67.5 1.5q34 0 53 -2t28 -12t11 -31
t2 -59zM337 268q0 38 7 60t21 33.5t34.5 14.5t47.5 3q34 0 54 -2.5t30.5 -10t13.5 -22t3 -38.5v-26q0 -38 -7 -60t-21 -33.5t-34.5 -14.5t-47.5 -3q-34 0 -54 2.5t-30.5 10t-13.5 22t-3 38.5v26z" />
    <glyph glyph-name="Lslash" unicode="&#x141;" horiz-adv-x="615" 
d="M195 0q-30 0 -47 2.5t-25.5 14t-10.5 35t-2 64.5v77l-17 -10q-8 -4 -17 -7.5t-19.5 -2.5t-21 8.5t-20.5 25.5l-19 32q-11 19 -13.5 33t1.5 24t11.5 16.5t16.5 11.5l98 56v5q0 24 -1 64.5t-2.5 82.5t-2.5 77t-1 47q0 23 2 36t13 19t34.5 7.5t67.5 1.5q34 0 53 -2t28 -12
t11 -31t2 -59q0 -32 -0.5 -61.5t-1.5 -58.5l18 11q9 5 18.5 8.5t20 1.5t21 -11t21.5 -28l19 -32q10 -18 11 -31t-3 -22t-12 -15.5t-15 -10.5l-101 -59v-152h238q18 0 29.5 -1.5t18 -8t8.5 -18.5t0 -33l-4 -42q-2 -18 -7.5 -29t-13.5 -16t-18 -6.5t-20 -1.5h-346z" />
    <glyph glyph-name="lslash" unicode="&#x142;" horiz-adv-x="476" 
d="M340 641q0 -25 -0.5 -50.5t-1.5 -51.5l15 8q8 5 17.5 8.5t20 1.5t21.5 -11t22 -28l19 -32q10 -17 11 -30t-3 -22.5t-12 -16t-15 -10.5l-98 -57v-238q0 -41 -3 -63.5t-14.5 -33t-34.5 -13t-63 -2.5q-29 0 -46 2.5t-25.5 13.5t-11 33.5t-2.5 62.5v122l-20 -11
q-8 -4 -17 -7.5t-19.5 -2.5t-21 8t-20.5 25l-18 32q-11 19 -13.5 33t1.5 24t11.5 16.5t15.5 11.5l101 58q-1 31 -2 71.5t-2 79t-2 68.5t-1 41q0 23 2 36t13 19t34.5 7.5t67.5 1.5q34 0 53 -2t28 -12t11 -31t2 -59z" />
    <glyph glyph-name="Nacute" unicode="&#x143;" horiz-adv-x="745" 
d="M705 621q0 -63 -1.5 -117.5t-1.5 -118.5v-275q0 -41 -3 -63t-14 -32.5t-33 -12.5t-60 -2q-33 0 -49.5 3.5t-24.5 20.5l-281 399v-313q0 -41 -3 -63t-14 -32.5t-33 -12.5t-60 -2q-28 0 -44 2.5t-24 13.5t-10 33t-2 61v275q0 24 -1 65t-2.5 83.5t-2.5 78t-1 47.5q0 22 2 34
t12.5 18t33 7.5t63.5 1.5q35 0 53.5 -2.5t26.5 -13.5l280 -392v73q0 24 -1 65t-2.5 83.5t-2.5 78t-1 47.5q0 22 2 34t12.5 18t33 7.5t63.5 1.5q33 0 51 -2t26.5 -11.5t10.5 -29.5t2 -56zM420 999q6 12 17.5 20.5t26.5 12t32 0.5t34 -14q18 -11 27.5 -26t11.5 -30.5
t-2.5 -29.5t-14.5 -22l-162 -131q-14 -11 -25.5 -14t-18.5 1t-8.5 14.5t5.5 27.5z" />
    <glyph glyph-name="nacute" unicode="&#x144;" horiz-adv-x="606" 
d="M565 112q0 -41 -3 -63.5t-14.5 -33t-34.5 -13t-63 -2.5q-29 0 -46 2.5t-25.5 13.5t-11 33.5t-2.5 62.5v184q0 52 -42 52q-29 0 -52 -27t-28 -82q-1 -26 -1 -54.5v-60.5v-12q0 -41 -3 -63.5t-14.5 -33t-34.5 -13t-63 -2.5q-29 0 -46 2.5t-25.5 13.5t-11 33.5t-2.5 62.5v55
q0 16 -0.5 42t-1.5 56t-1.5 61.5t-1.5 59t-1.5 48.5t-0.5 29q0 23 2 36t13 19t34.5 7.5t67.5 1.5q34 0 53 -2t28 -12t11 -31t2 -59v-32q10 37 30 64.5t45.5 45.5t54 27t56.5 9q27 0 52.5 -7t44.5 -27.5t30.5 -58t11.5 -98.5q0 -51 -3 -101t-3 -101v-32zM371 788
q6 12 17.5 20.5t26.5 12t32 0.5t34 -14q18 -11 27.5 -26t11.5 -30.5t-2.5 -29.5t-14.5 -22l-162 -131q-14 -11 -25.5 -14t-18.5 1t-8.5 14.5t5.5 27.5z" />
    <glyph glyph-name="uni0145" unicode="&#x145;" horiz-adv-x="745" 
d="M705 621q0 -63 -1.5 -117.5t-1.5 -118.5v-275q0 -41 -3 -63t-14 -32.5t-33 -12.5t-60 -2q-33 0 -49.5 3.5t-24.5 20.5l-281 399v-313q0 -41 -3 -63t-14 -32.5t-33 -12.5t-60 -2q-28 0 -44 2.5t-24 13.5t-10 33t-2 61v275q0 24 -1 65t-2.5 83.5t-2.5 78t-1 47.5q0 22 2 34
t12.5 18t33 7.5t63.5 1.5q35 0 53.5 -2.5t26.5 -13.5l280 -392v73q0 24 -1 65t-2.5 83.5t-2.5 78t-1 47.5q0 22 2 34t12.5 18t33 7.5t63.5 1.5q33 0 51 -2t26.5 -11.5t10.5 -29.5t2 -56zM350 -324q-17 -27 -33.5 -29.5t-36.5 -2.5q-7 0 -10 4t-3.5 10t0.5 12t2 10l52 217
q1 6 16 10t35.5 6.5t41 3t33.5 0.5q10 0 23.5 -6.5t13.5 -23.5q0 -5 -3 -11z" />
    <glyph glyph-name="uni0146" unicode="&#x146;" horiz-adv-x="606" 
d="M565 112q0 -41 -3 -63.5t-14.5 -33t-34.5 -13t-63 -2.5q-29 0 -46 2.5t-25.5 13.5t-11 33.5t-2.5 62.5v184q0 52 -42 52q-29 0 -52 -27t-28 -82q-1 -26 -1 -54.5v-60.5v-12q0 -41 -3 -63.5t-14.5 -33t-34.5 -13t-63 -2.5q-29 0 -46 2.5t-25.5 13.5t-11 33.5t-2.5 62.5v55
q0 16 -0.5 42t-1.5 56t-1.5 61.5t-1.5 59t-1.5 48.5t-0.5 29q0 23 2 36t13 19t34.5 7.5t67.5 1.5q34 0 53 -2t28 -12t11 -31t2 -59v-32q10 37 30 64.5t45.5 45.5t54 27t56.5 9q27 0 52.5 -7t44.5 -27.5t30.5 -58t11.5 -98.5q0 -51 -3 -101t-3 -101v-32zM280 -324
q-17 -27 -33.5 -29.5t-36.5 -2.5q-7 0 -10 4t-3.5 10t0.5 12t2 10l52 217q1 6 16 10t35.5 6.5t41 3t33.5 0.5q10 0 23.5 -6.5t13.5 -23.5q0 -5 -3 -11z" />
    <glyph glyph-name="Ncaron" unicode="&#x147;" horiz-adv-x="745" 
d="M705 621q0 -63 -1.5 -117.5t-1.5 -118.5v-275q0 -41 -3 -63t-14 -32.5t-33 -12.5t-60 -2q-33 0 -49.5 3.5t-24.5 20.5l-281 399v-313q0 -41 -3 -63t-14 -32.5t-33 -12.5t-60 -2q-28 0 -44 2.5t-24 13.5t-10 33t-2 61v275q0 24 -1 65t-2.5 83.5t-2.5 78t-1 47.5q0 22 2 34
t12.5 18t33 7.5t63.5 1.5q35 0 53.5 -2.5t26.5 -13.5l280 -392v73q0 24 -1 65t-2.5 83.5t-2.5 78t-1 47.5q0 22 2 34t12.5 18t33 7.5t63.5 1.5q33 0 51 -2t26.5 -11.5t10.5 -29.5t2 -56zM370 902l101 50q25 12 35.5 6.5t21.5 -22.5q6 -9 9 -15t1.5 -12.5t-7.5 -14.5t-19 -19
l-123 -114q-8 -7 -19 -7t-19 7l-123 114q-26 22 -27 33t11 28q11 16 21.5 22t35.5 -6z" />
    <glyph glyph-name="ncaron" unicode="&#x148;" horiz-adv-x="606" 
d="M565 112q0 -41 -3 -63.5t-14.5 -33t-34.5 -13t-63 -2.5q-29 0 -46 2.5t-25.5 13.5t-11 33.5t-2.5 62.5v184q0 52 -42 52q-29 0 -52 -27t-28 -82q-1 -26 -1 -54.5v-60.5v-12q0 -41 -3 -63.5t-14.5 -33t-34.5 -13t-63 -2.5q-29 0 -46 2.5t-25.5 13.5t-11 33.5t-2.5 62.5v55
q0 16 -0.5 42t-1.5 56t-1.5 61.5t-1.5 59t-1.5 48.5t-0.5 29q0 23 2 36t13 19t34.5 7.5t67.5 1.5q34 0 53 -2t28 -12t11 -31t2 -59v-32q10 37 30 64.5t45.5 45.5t54 27t56.5 9q27 0 52.5 -7t44.5 -27.5t30.5 -58t11.5 -98.5q0 -51 -3 -101t-3 -101v-32zM321 691l101 50
q25 12 35.5 6.5t21.5 -22.5q6 -9 9 -15t1.5 -12.5t-7.5 -14.5t-19 -19l-123 -114q-8 -7 -19 -7t-19 7l-123 114q-26 22 -27 33t11 28q11 16 21.5 22t35.5 -6z" />
    <glyph glyph-name="napostrophe" unicode="&#x149;" horiz-adv-x="606" 
d="M565 112q0 -41 -3 -63.5t-14.5 -33t-34.5 -13t-63 -2.5q-29 0 -46 2.5t-25.5 13.5t-11 33.5t-2.5 62.5v184q0 52 -42 52q-29 0 -52 -27t-28 -82q-1 -26 -1 -54.5v-60.5v-12q0 -41 -3 -63.5t-14.5 -33t-34.5 -13t-63 -2.5q-29 0 -46 2.5t-25.5 13.5t-11 33.5t-2.5 62.5v55
q0 16 -0.5 42t-1.5 56t-1.5 61.5t-1.5 59t-1.5 48.5t-0.5 29q0 23 2 36t13 19t34.5 7.5t67.5 1.5q34 0 53 -2t28 -12t11 -31t2 -59v-32q10 37 30 64.5t45.5 45.5t54 27t56.5 9q27 0 52.5 -7t44.5 -27.5t30.5 -58t11.5 -98.5q0 -51 -3 -101t-3 -101v-32zM264 -287
q-17 -27 -33.5 -29.5t-36.5 -2.5q-7 0 -10 4t-3.5 10t0.5 12t2 10l52 217q1 6 16 10t35.5 6.5t41 3t33.5 0.5q10 0 23.5 -6.5t13.5 -23.5q0 -5 -3 -11z" />
    <glyph glyph-name="Eng" unicode="&#x14a;" horiz-adv-x="745" 
d="M705 621q0 -63 -1.5 -117.5t-1.5 -118.5v-275v-26t-1 -22q-2 -87 -20.5 -147t-53 -97t-84 -53.5t-113.5 -16.5q-31 0 -58.5 3t-50 7t-38 8.5t-22.5 6.5q-18 6 -26.5 14t-11.5 16.5t-1.5 17t3.5 16.5l18 64q12 42 59 29q22 -5 50.5 -10.5t58.5 -5.5q96 0 100 121l-274 388
v-313q0 -41 -3 -63t-14 -32.5t-33 -12.5t-60 -2q-28 0 -44 2.5t-24 13.5t-10 33t-2 61v275q0 24 -1 65t-2.5 83.5t-2.5 78t-1 47.5q0 22 2 34t12.5 18t33 7.5t63.5 1.5q35 0 53.5 -2.5t26.5 -13.5l280 -392v73q0 24 -1 65t-2.5 83.5t-2.5 78t-1 47.5q0 22 2 34t12.5 18
t33 7.5t63.5 1.5q33 0 51 -2t26.5 -11.5t10.5 -29.5t2 -56z" />
    <glyph glyph-name="eng" unicode="&#x14b;" horiz-adv-x="606" 
d="M246 391q10 37 30 64.5t45.5 45.5t54 27t56.5 9q27 0 52.5 -7t44.5 -27.5t30.5 -58t11.5 -98.5q0 -51 -3 -101t-3 -101v-48q0 -103 -16.5 -166t-45 -97t-66 -45t-80.5 -11q-32 0 -66 7.5t-57 17.5q-19 10 -28 22t0 38l20 56q8 26 21 32.5t28 1.5q9 -3 16.5 -5t16.5 -2
q37 0 47 36t10 115v200q0 52 -42 52q-30 0 -53.5 -28t-27.5 -85v-123q0 -41 -3 -63.5t-14.5 -33t-34.5 -13t-63 -2.5q-29 0 -46 2.5t-25.5 13.5t-11 33.5t-2.5 62.5v55q0 16 -0.5 42t-1.5 56t-1.5 61.5t-1.5 59t-1.5 48.5t-0.5 29q0 23 2 36t13 19t34.5 7.5t67.5 1.5
q34 0 53 -2t28 -12t11 -31t2 -59v-32z" />
    <glyph glyph-name="Omacron" unicode="&#x14c;" horiz-adv-x="808" 
d="M33 368q0 99 29.5 168t80 112t118 62.5t143.5 19.5t144 -19.5t118 -62.5t79.5 -112t29.5 -168t-29.5 -170.5t-80 -117.5t-118 -68t-143.5 -22t-143.5 22t-118 68t-80 117.5t-29.5 170.5zM404 137q34 0 62 13t48 40t31 69t11 100t-11 98t-31 64.5t-48 35t-62 10.5
t-61.5 -10.5t-47.5 -35t-31 -64.5t-11 -98q0 -116 41.5 -169t109.5 -53zM256 770q-14 0 -22 11t-8 23t0.5 28.5t3.5 31.5t9 25.5t16 10.5h295q14 0 22.5 -11t8.5 -23t-1.5 -28.5t-5.5 -31.5t-10.5 -25.5t-16.5 -10.5h-291z" />
    <glyph glyph-name="omacron" unicode="&#x14d;" horiz-adv-x="609" 
d="M304 -10q-130 0 -204.5 71.5t-74.5 207.5t74 202t205 66q65 0 117 -16.5t88 -49.5t55.5 -83.5t19.5 -118.5q0 -136 -75 -207.5t-205 -71.5zM304 134q36 0 54 34t18 90q0 57 -18 86.5t-54 29.5t-53.5 -29.5t-17.5 -86.5q0 -56 17.5 -90t53.5 -34zM157 559q-14 0 -22 11
t-8 23t0.5 28.5t3.5 31.5t9 25.5t16 10.5h295q14 0 22.5 -11t8.5 -23t-1.5 -28.5t-5.5 -31.5t-10.5 -25.5t-16.5 -10.5h-291z" />
    <glyph glyph-name="Obreve" unicode="&#x14e;" horiz-adv-x="808" 
d="M33 368q0 99 29.5 168t80 112t118 62.5t143.5 19.5t144 -19.5t118 -62.5t79.5 -112t29.5 -168t-29.5 -170.5t-80 -117.5t-118 -68t-143.5 -22t-143.5 22t-118 68t-80 117.5t-29.5 170.5zM404 137q34 0 62 13t48 40t31 69t11 100t-11 98t-31 64.5t-48 35t-62 10.5
t-61.5 -10.5t-47.5 -35t-31 -64.5t-11 -98q0 -116 41.5 -169t109.5 -53zM403 760q-35 0 -68.5 10t-59.5 30.5t-41.5 51.5t-15.5 72q0 20 3 31t10.5 16t20.5 6t33 1t34.5 -0.5t23.5 -4.5t13.5 -12.5t4.5 -24.5q0 -20 12.5 -30t29.5 -10t29.5 10t12.5 30q0 16 4.5 24.5
t13.5 12.5t23.5 4.5t34.5 0.5t33 -1t20.5 -6t10.5 -16t3 -31q0 -41 -15.5 -72t-41.5 -51.5t-59.5 -30.5t-68.5 -10z" />
    <glyph glyph-name="obreve" unicode="&#x14f;" horiz-adv-x="609" 
d="M304 -10q-130 0 -204.5 71.5t-74.5 207.5t74 202t205 66q65 0 117 -16.5t88 -49.5t55.5 -83.5t19.5 -118.5q0 -136 -75 -207.5t-205 -71.5zM304 134q36 0 54 34t18 90q0 57 -18 86.5t-54 29.5t-53.5 -29.5t-17.5 -86.5q0 -56 17.5 -90t53.5 -34zM304 549q-35 0 -68.5 10
t-59.5 30.5t-41.5 51.5t-15.5 72q0 20 3 31t10.5 16t20.5 6t33 1t34.5 -0.5t23.5 -4.5t13.5 -12.5t4.5 -24.5q0 -20 12.5 -30t29.5 -10t29.5 10t12.5 30q0 16 4.5 24.5t13.5 12.5t23.5 4.5t34.5 0.5t33 -1t20.5 -6t10.5 -16t3 -31q0 -41 -15.5 -72t-41.5 -51.5t-59.5 -30.5
t-68.5 -10z" />
    <glyph glyph-name="Ohungarumlaut" unicode="&#x150;" horiz-adv-x="808" 
d="M33 368q0 99 29.5 168t80 112t118 62.5t143.5 19.5t144 -19.5t118 -62.5t79.5 -112t29.5 -168t-29.5 -170.5t-80 -117.5t-118 -68t-143.5 -22t-143.5 22t-118 68t-80 117.5t-29.5 170.5zM404 137q34 0 62 13t48 40t31 69t11 100t-11 98t-31 64.5t-48 35t-62 10.5
t-61.5 -10.5t-47.5 -35t-31 -64.5t-11 -98q0 -116 41.5 -169t109.5 -53zM357 996q6 12 17.5 20.5t26.5 12t32 0.5t34 -14q18 -11 27.5 -26t11.5 -30.5t-2.5 -29.5t-14.5 -22l-162 -131q-14 -11 -25.5 -14t-18.5 1t-8.5 14.5t5.5 27.5zM558 996q6 12 17.5 20.5t26.5 12
t32 0.5t34 -14q18 -11 27.5 -26t11.5 -30.5t-2.5 -29.5t-14.5 -22l-162 -131q-14 -11 -25.5 -14t-18.5 1t-8.5 14.5t5.5 27.5z" />
    <glyph glyph-name="ohungarumlaut" unicode="&#x151;" horiz-adv-x="609" 
d="M304 -10q-130 0 -204.5 71.5t-74.5 207.5t74 202t205 66q65 0 117 -16.5t88 -49.5t55.5 -83.5t19.5 -118.5q0 -136 -75 -207.5t-205 -71.5zM304 134q36 0 54 34t18 90q0 57 -18 86.5t-54 29.5t-53.5 -29.5t-17.5 -86.5q0 -56 17.5 -90t53.5 -34zM258 785q6 12 17.5 20.5
t26.5 12t32 0.5t34 -14q18 -11 27.5 -26t11.5 -30.5t-2.5 -29.5t-14.5 -22l-162 -131q-14 -11 -25.5 -14t-18.5 1t-8.5 14.5t5.5 27.5zM459 785q6 12 17.5 20.5t26.5 12t32 0.5t34 -14q18 -11 27.5 -26t11.5 -30.5t-2.5 -29.5t-14.5 -22l-162 -131q-14 -11 -25.5 -14
t-18.5 1t-8.5 14.5t5.5 27.5z" />
    <glyph glyph-name="OE" unicode="&#x152;" horiz-adv-x="1115" 
d="M663 0q-35 0 -52.5 4t-25.5 22q-41 -19 -86.5 -27.5t-94.5 -8.5q-76 0 -143.5 22t-118 68t-80 117.5t-29.5 170.5t29.5 168t80 112t118 62.5t143.5 19.5q47 0 90.5 -7t81.5 -22q7 13 31.5 16t80.5 3h334q18 0 29.5 -1.5t18 -8t8.5 -18.5t0 -33l-4 -42q-2 -18 -7.5 -29
t-13.5 -16t-18 -6.5t-20 -1.5h-234l-3 -125h214q18 0 29.5 -1.5t18 -8t8.5 -18.5t0 -33l-4 -42q-2 -18 -7.5 -29t-13.5 -16t-18 -6.5t-20 -1.5h-207v-127h244q18 0 29.5 -1.5t18 -8t8.5 -18.5t0 -33l-4 -42q-2 -18 -7.5 -29t-13.5 -16t-18 -6.5t-20 -1.5h-352zM404 137
q34 0 62 13t48 40t31 69t11 100t-11 98t-31 64.5t-48 35t-62 10.5t-61.5 -10.5t-47.5 -35t-31 -64.5t-11 -98q0 -116 41.5 -169t109.5 -53z" />
    <glyph glyph-name="oe" unicode="&#x153;" horiz-adv-x="950" 
d="M304 -10q-130 0 -204.5 71.5t-74.5 207.5t74 202t205 66q113 0 182 -48q69 48 182 48q114 0 180 -57t66 -178q0 -54 -23.5 -83.5t-80.5 -29.5h-208q14 -32 40 -41t61 -9q18 0 32 1t26.5 4t26.5 7.5t33 10.5q23 8 35 3.5t21 -30.5l20 -56q6 -21 -1 -31t-31 -21
q-37 -17 -81.5 -27t-102.5 -10q-121 0 -193 54q-71 -54 -184 -54zM304 134q36 0 54 34t18 90q0 57 -18 86.5t-54 29.5t-53.5 -29.5t-17.5 -86.5q0 -56 17.5 -90t53.5 -34zM667 392q-31 0 -50 -19.5t-25 -62.5h152q-2 44 -22 63t-55 19z" />
    <glyph glyph-name="Racute" unicode="&#x154;" horiz-adv-x="661" 
d="M338 228h-19q-22 0 -43 1t-42 5v-122q0 -41 -3 -63.5t-13.5 -33t-31 -13t-56.5 -2.5q-32 0 -50 2t-27 13t-11 33.5t-2 63.5v514q0 27 25 46.5t64.5 32t88.5 19t98 6.5q88 0 148 -19t97 -52.5t52.5 -79.5t15.5 -99q0 -77 -27.5 -128.5t-78.5 -80.5l91 -172
q16 -31 22 -50.5t0 -30t-25.5 -14.5t-55.5 -4q-45 0 -70.5 4.5t-40 13t-21 20t-12.5 25.5zM234 390q18 -8 38.5 -11t37.5 -3q33 0 53.5 8.5t32 23t15.5 33t4 39.5q0 20 -4 38.5t-15 33t-31 23t-51 8.5q-20 0 -41 -3.5t-39 -11.5v-178zM366 999q6 12 17.5 20.5t26.5 12
t32 0.5t34 -14q18 -11 27.5 -26t11.5 -30.5t-2.5 -29.5t-14.5 -22l-162 -131q-14 -11 -25.5 -14t-18.5 1t-8.5 14.5t5.5 27.5z" />
    <glyph glyph-name="racute" unicode="&#x155;" horiz-adv-x="488" 
d="M246 394q10 36 27 63t38 45t44.5 26.5t46.5 8.5q14 0 28 -0.5t25 -4.5q21 -8 25.5 -20t-0.5 -35l-15 -77q-5 -23 -14.5 -31t-37.5 -3q-12 2 -24.5 4t-23.5 2q-25 0 -46 -8t-37 -27.5t-26.5 -53.5t-13.5 -85v-82q0 -42 -3 -65.5t-14 -35t-34.5 -13.5t-63.5 -2
q-30 0 -47 2.5t-25.5 14t-10.5 35t-2 64.5v51q0 16 -0.5 42t-1.5 56t-1.5 61.5t-1.5 59t-1.5 48.5t-0.5 29q0 23 2 36t13 19t34.5 7.5t67.5 1.5q34 0 53 -2t28 -12t11 -31t2 -59v-29zM380 788q6 12 17.5 20.5t26.5 12t32 0.5t34 -14q18 -11 27.5 -26t11.5 -30.5t-2.5 -29.5
t-14.5 -22l-162 -131q-14 -11 -25.5 -14t-18.5 1t-8.5 14.5t5.5 27.5z" />
    <glyph glyph-name="uni0156" unicode="&#x156;" horiz-adv-x="661" 
d="M338 228h-19q-22 0 -43 1t-42 5v-122q0 -41 -3 -63.5t-13.5 -33t-31 -13t-56.5 -2.5q-32 0 -50 2t-27 13t-11 33.5t-2 63.5v514q0 27 25 46.5t64.5 32t88.5 19t98 6.5q88 0 148 -19t97 -52.5t52.5 -79.5t15.5 -99q0 -77 -27.5 -128.5t-78.5 -80.5l91 -172
q16 -31 22 -50.5t0 -30t-25.5 -14.5t-55.5 -4q-45 0 -70.5 4.5t-40 13t-21 20t-12.5 25.5zM234 390q18 -8 38.5 -11t37.5 -3q33 0 53.5 8.5t32 23t15.5 33t4 39.5q0 20 -4 38.5t-15 33t-31 23t-51 8.5q-20 0 -41 -3.5t-39 -11.5v-178zM308 -324q-17 -27 -33.5 -29.5
t-36.5 -2.5q-7 0 -10 4t-3.5 10t0.5 12t2 10l52 217q1 6 16 10t35.5 6.5t41 3t33.5 0.5q10 0 23.5 -6.5t13.5 -23.5q0 -5 -3 -11z" />
    <glyph glyph-name="uni0157" unicode="&#x157;" horiz-adv-x="488" 
d="M246 394q10 36 27 63t38 45t44.5 26.5t46.5 8.5q14 0 28 -0.5t25 -4.5q21 -8 25.5 -20t-0.5 -35l-15 -77q-5 -23 -14.5 -31t-37.5 -3q-12 2 -24.5 4t-23.5 2q-25 0 -46 -8t-37 -27.5t-26.5 -53.5t-13.5 -85v-82q0 -42 -3 -65.5t-14 -35t-34.5 -13.5t-63.5 -2
q-30 0 -47 2.5t-25.5 14t-10.5 35t-2 64.5v51q0 16 -0.5 42t-1.5 56t-1.5 61.5t-1.5 59t-1.5 48.5t-0.5 29q0 23 2 36t13 19t34.5 7.5t67.5 1.5q34 0 53 -2t28 -12t11 -31t2 -59v-29zM221 -324q-17 -27 -33.5 -29.5t-36.5 -2.5q-7 0 -10 4t-3.5 10t0.5 12t2 10l52 217
q1 6 16 10t35.5 6.5t41 3t33.5 0.5q10 0 23.5 -6.5t13.5 -23.5q0 -5 -3 -11z" />
    <glyph glyph-name="Rcaron" unicode="&#x158;" horiz-adv-x="661" 
d="M338 228h-19q-22 0 -43 1t-42 5v-122q0 -41 -3 -63.5t-13.5 -33t-31 -13t-56.5 -2.5q-32 0 -50 2t-27 13t-11 33.5t-2 63.5v514q0 27 25 46.5t64.5 32t88.5 19t98 6.5q88 0 148 -19t97 -52.5t52.5 -79.5t15.5 -99q0 -77 -27.5 -128.5t-78.5 -80.5l91 -172
q16 -31 22 -50.5t0 -30t-25.5 -14.5t-55.5 -4q-45 0 -70.5 4.5t-40 13t-21 20t-12.5 25.5zM316 902l101 50q25 12 35.5 6.5t21.5 -22.5q6 -9 9 -15t1.5 -12.5t-7.5 -14.5t-19 -19l-123 -114q-8 -7 -19 -7t-19 7l-123 114q-26 22 -27 33t11 28q11 16 21.5 22t35.5 -6z
M234 390q18 -8 38.5 -11t37.5 -3q33 0 53.5 8.5t32 23t15.5 33t4 39.5q0 20 -4 38.5t-15 33t-31 23t-51 8.5q-20 0 -41 -3.5t-39 -11.5v-178z" />
    <glyph glyph-name="rcaron" unicode="&#x159;" horiz-adv-x="488" 
d="M246 394q10 36 27 63t38 45t44.5 26.5t46.5 8.5q14 0 28 -0.5t25 -4.5q21 -8 25.5 -20t-0.5 -35l-15 -77q-5 -23 -14.5 -31t-37.5 -3q-12 2 -24.5 4t-23.5 2q-25 0 -46 -8t-37 -27.5t-26.5 -53.5t-13.5 -85v-82q0 -42 -3 -65.5t-14 -35t-34.5 -13.5t-63.5 -2
q-30 0 -47 2.5t-25.5 14t-10.5 35t-2 64.5v51q0 16 -0.5 42t-1.5 56t-1.5 61.5t-1.5 59t-1.5 48.5t-0.5 29q0 23 2 36t13 19t34.5 7.5t67.5 1.5q34 0 53 -2t28 -12t11 -31t2 -59v-29zM330 691l101 50q25 12 35.5 6.5t21.5 -22.5q6 -9 9 -15t1.5 -12.5t-7.5 -14.5t-19 -19
l-123 -114q-8 -7 -19 -7t-19 7l-123 114q-26 22 -27 33t11 28q11 16 21.5 22t35.5 -6z" />
    <glyph glyph-name="Sacute" unicode="&#x15a;" horiz-adv-x="581" 
d="M267 144q15 0 32 2t30.5 8t22.5 17.5t9 31.5q0 24 -14 38.5t-37 24.5t-52.5 17t-60.5 16.5t-60.5 23.5t-52.5 37t-37 58t-14 87q0 72 27.5 116t69.5 68.5t93 32.5t98 8q62 0 107.5 -9t87.5 -23q12 -4 20.5 -7.5t13 -10t5 -17t-4.5 -27.5l-17 -63q-4 -15 -10.5 -22.5
t-14 -10t-16 -1.5t-16.5 3q-32 7 -54.5 11.5t-39.5 7.5t-30.5 4t-26.5 1q-31 0 -49.5 -4.5t-28 -12t-12.5 -16t-3 -15.5q0 -22 14 -35t37 -22t52.5 -16t60.5 -17t60.5 -25t52.5 -39t37 -59.5t14 -86.5q0 -73 -29.5 -118t-74.5 -69.5t-98.5 -32.5t-101.5 -8q-27 0 -56 2.5
t-56.5 7t-51 10t-39.5 11.5q-21 8 -32.5 21.5t-3.5 41.5l14 47q4 14 7.5 23.5t9.5 14.5t17 5t31 -5q12 -3 31.5 -7.5t42.5 -8t48 -6.5t49 -3zM372 999q6 12 17.5 20.5t26.5 12t32 0.5t34 -14q18 -11 27.5 -26t11.5 -30.5t-2.5 -29.5t-14.5 -22l-162 -131q-14 -11 -25.5 -14
t-18.5 1t-8.5 14.5t5.5 27.5z" />
    <glyph glyph-name="sacute" unicode="&#x15b;" horiz-adv-x="505" 
d="M223 133q40 0 51 9t11 20q0 16 -19 22.5t-47 10.5t-61 10.5t-61 23t-47 46t-19 81.5q0 58 23.5 93.5t59 55t77 26t78.5 6.5q54 0 98.5 -6t73.5 -16q25 -8 33.5 -20t0.5 -38l-14 -50q-4 -14 -11 -21t-15 -9.5t-17.5 -1t-18.5 3.5q-23 5 -52 10t-64 5q-19 0 -30.5 -2.5
t-18 -6t-9 -8.5t-2.5 -10q0 -15 19 -20.5t47.5 -9t61.5 -10t61.5 -23t47.5 -47.5t19 -84q0 -59 -23 -95t-57.5 -55.5t-75 -26t-76.5 -6.5q-21 0 -49 1.5t-56 4.5t-52.5 6.5t-39.5 8.5q-20 6 -29 19t-3 39l11 47q6 26 20 32t32 3q7 -1 22.5 -4t35 -6t41.5 -5.5t43 -2.5z
M329 788q6 12 17.5 20.5t26.5 12t32 0.5t34 -14q18 -11 27.5 -26t11.5 -30.5t-2.5 -29.5t-14.5 -22l-162 -131q-14 -11 -25.5 -14t-18.5 1t-8.5 14.5t5.5 27.5z" />
    <glyph glyph-name="Scircumflex" unicode="&#x15c;" horiz-adv-x="581" 
d="M267 144q15 0 32 2t30.5 8t22.5 17.5t9 31.5q0 24 -14 38.5t-37 24.5t-52.5 17t-60.5 16.5t-60.5 23.5t-52.5 37t-37 58t-14 87q0 72 27.5 116t69.5 68.5t93 32.5t98 8q62 0 107.5 -9t87.5 -23q12 -4 20.5 -7.5t13 -10t5 -17t-4.5 -27.5l-17 -63q-4 -15 -10.5 -22.5
t-14 -10t-16 -1.5t-16.5 3q-32 7 -54.5 11.5t-39.5 7.5t-30.5 4t-26.5 1q-31 0 -49.5 -4.5t-28 -12t-12.5 -16t-3 -15.5q0 -22 14 -35t37 -22t52.5 -16t60.5 -17t60.5 -25t52.5 -39t37 -59.5t14 -86.5q0 -73 -29.5 -118t-74.5 -69.5t-98.5 -32.5t-101.5 -8q-27 0 -56 2.5
t-56.5 7t-51 10t-39.5 11.5q-21 8 -32.5 21.5t-3.5 41.5l14 47q4 14 7.5 23.5t9.5 14.5t17 5t31 -5q12 -3 31.5 -7.5t42.5 -8t48 -6.5t49 -3zM225 772q-25 -12 -35.5 -6t-21.5 22q-6 9 -9 15t-2 12.5t7.5 14.5t19.5 19l123 124q2 2 7.5 4.5t11.5 2.5t11.5 -2.5t7.5 -4.5
l123 -124q25 -23 26.5 -33.5t-10.5 -27.5q-11 -17 -21.5 -22.5t-35.5 6.5l-101 50z" />
    <glyph glyph-name="scircumflex" unicode="&#x15d;" horiz-adv-x="505" 
d="M223 133q40 0 51 9t11 20q0 16 -19 22.5t-47 10.5t-61 10.5t-61 23t-47 46t-19 81.5q0 58 23.5 93.5t59 55t77 26t78.5 6.5q54 0 98.5 -6t73.5 -16q25 -8 33.5 -20t0.5 -38l-14 -50q-4 -14 -11 -21t-15 -9.5t-17.5 -1t-18.5 3.5q-23 5 -52 10t-64 5q-19 0 -30.5 -2.5
t-18 -6t-9 -8.5t-2.5 -10q0 -15 19 -20.5t47.5 -9t61.5 -10t61.5 -23t47.5 -47.5t19 -84q0 -59 -23 -95t-57.5 -55.5t-75 -26t-76.5 -6.5q-21 0 -49 1.5t-56 4.5t-52.5 6.5t-39.5 8.5q-20 6 -29 19t-3 39l11 47q6 26 20 32t32 3q7 -1 22.5 -4t35 -6t41.5 -5.5t43 -2.5z
M182 561q-25 -12 -35.5 -6t-21.5 22q-6 9 -9 15t-2 12.5t7.5 14.5t19.5 19l123 124q2 2 7.5 4.5t11.5 2.5t11.5 -2.5t7.5 -4.5l123 -124q25 -23 26.5 -33.5t-10.5 -27.5q-11 -17 -21.5 -22.5t-35.5 6.5l-101 50z" />
    <glyph glyph-name="Scedilla" unicode="&#x15e;" horiz-adv-x="581" 
d="M230 -9q-50 2 -99.5 10.5t-77.5 19.5q-21 8 -32.5 21.5t-3.5 41.5l14 47q4 14 7.5 23.5t9.5 14.5t17 5t31 -5q12 -3 31.5 -7.5t42.5 -8t48 -6.5t49 -3q15 0 32 2t30.5 8t22.5 17.5t9 31.5q0 24 -14 38.5t-37 24.5t-52.5 17t-60.5 16.5t-60.5 23.5t-52.5 37t-37 58t-14 87
q0 72 27.5 116t69.5 68.5t93 32.5t98 8q62 0 107.5 -9t87.5 -23q12 -4 20.5 -7.5t13 -10t5 -17t-4.5 -27.5l-17 -63q-4 -15 -10.5 -22.5t-14 -10t-16 -1.5t-16.5 3q-32 7 -54.5 11.5t-39.5 7.5t-30.5 4t-26.5 1q-31 0 -49.5 -4.5t-28 -12t-12.5 -16t-3 -15.5q0 -22 14 -35
t37 -22t52.5 -16t60.5 -17t60.5 -25t52.5 -39t37 -59.5t14 -86.5q0 -71 -28 -115.5t-71 -69t-95 -33.5t-100 -10l-14 -26q82 -1 123 -30t41 -90q0 -35 -12.5 -59t-33.5 -39t-49.5 -21.5t-59.5 -6.5q-28 0 -53.5 4.5t-46.5 12t-36.5 16.5t-24.5 18q-11 12 -7 19.5t20 1.5
q17 -7 38 -13.5t48 -6.5q44 0 64 18t20 42q0 25 -17 36t-35.5 18t-31.5 13.5t-5 22.5z" />
    <glyph glyph-name="scedilla" unicode="&#x15f;" horiz-adv-x="505" 
d="M199 -8q-20 1 -42 3t-42 4.5t-37 5.5t-28 6q-20 6 -29 19t-3 39l11 47q6 26 20 32t32 3q7 -1 22.5 -4t35 -6t41.5 -5.5t43 -2.5q40 0 51 9t11 20q0 16 -19 22.5t-47 10.5t-61 10.5t-61 23t-47 46t-19 81.5q0 58 23.5 93.5t59 55t77 26t78.5 6.5q54 0 98.5 -6t73.5 -16
q25 -8 33.5 -20t0.5 -38l-14 -50q-4 -14 -11 -21t-15 -9.5t-17.5 -1t-18.5 3.5q-23 5 -52 10t-64 5q-19 0 -30.5 -2.5t-18 -6t-9 -8.5t-2.5 -10q0 -15 19 -20.5t47.5 -9t61.5 -10t61.5 -23t47.5 -47.5t19 -84q0 -59 -23 -95t-57.5 -55.5t-75 -26t-76.5 -6.5h-12l-13 -24
q82 -1 123 -30t41 -90q0 -35 -12.5 -59t-33.5 -39t-49.5 -21.5t-59.5 -6.5q-28 0 -53.5 4.5t-46.5 12t-36.5 16.5t-24.5 18q-11 12 -7 19.5t20 1.5q17 -7 38 -13.5t48 -6.5q44 0 64 18t20 42q0 25 -17 36t-35.5 18t-31.5 13.5t-5 22.5z" />
    <glyph glyph-name="Scaron" unicode="&#x160;" horiz-adv-x="581" 
d="M267 144q15 0 32 2t30.5 8t22.5 17.5t9 31.5q0 24 -14 38.5t-37 24.5t-52.5 17t-60.5 16.5t-60.5 23.5t-52.5 37t-37 58t-14 87q0 72 27.5 116t69.5 68.5t93 32.5t98 8q62 0 107.5 -9t87.5 -23q12 -4 20.5 -7.5t13 -10t5 -17t-4.5 -27.5l-17 -63q-4 -15 -10.5 -22.5
t-14 -10t-16 -1.5t-16.5 3q-32 7 -54.5 11.5t-39.5 7.5t-30.5 4t-26.5 1q-31 0 -49.5 -4.5t-28 -12t-12.5 -16t-3 -15.5q0 -22 14 -35t37 -22t52.5 -16t60.5 -17t60.5 -25t52.5 -39t37 -59.5t14 -86.5q0 -73 -29.5 -118t-74.5 -69.5t-98.5 -32.5t-101.5 -8q-27 0 -56 2.5
t-56.5 7t-51 10t-39.5 11.5q-21 8 -32.5 21.5t-3.5 41.5l14 47q4 14 7.5 23.5t9.5 14.5t17 5t31 -5q12 -3 31.5 -7.5t42.5 -8t48 -6.5t49 -3zM322 902l101 50q25 12 35.5 6.5t21.5 -22.5q6 -9 9 -15t1.5 -12.5t-7.5 -14.5t-19 -19l-123 -114q-8 -7 -19 -7t-19 7l-123 114
q-26 22 -27 33t11 28q11 16 21.5 22t35.5 -6z" />
    <glyph glyph-name="scaron" unicode="&#x161;" horiz-adv-x="505" 
d="M223 133q40 0 51 9t11 20q0 16 -19 22.5t-47 10.5t-61 10.5t-61 23t-47 46t-19 81.5q0 58 23.5 93.5t59 55t77 26t78.5 6.5q54 0 98.5 -6t73.5 -16q25 -8 33.5 -20t0.5 -38l-14 -50q-4 -14 -11 -21t-15 -9.5t-17.5 -1t-18.5 3.5q-23 5 -52 10t-64 5q-19 0 -30.5 -2.5
t-18 -6t-9 -8.5t-2.5 -10q0 -15 19 -20.5t47.5 -9t61.5 -10t61.5 -23t47.5 -47.5t19 -84q0 -59 -23 -95t-57.5 -55.5t-75 -26t-76.5 -6.5q-21 0 -49 1.5t-56 4.5t-52.5 6.5t-39.5 8.5q-20 6 -29 19t-3 39l11 47q6 26 20 32t32 3q7 -1 22.5 -4t35 -6t41.5 -5.5t43 -2.5z
M279 691l101 50q25 12 35.5 6.5t21.5 -22.5q6 -9 9 -15t1.5 -12.5t-7.5 -14.5t-19 -19l-123 -114q-8 -7 -19 -7t-19 7l-123 114q-26 22 -27 33t11 28q11 16 21.5 22t35.5 -6z" />
    <glyph glyph-name="uni0162" unicode="&#x162;" horiz-adv-x="627" 
d="M419 564q-1 -45 -2 -87.5t-1 -91.5v-269q0 -43 -3 -66.5t-14.5 -34.5t-34.5 -13t-63 -2q-30 0 -47 2.5t-25.5 14t-10.5 35t-2 64.5v269q0 14 -0.5 35t-1.5 45t-1.5 49.5t-1.5 49.5h-137q-10 0 -20 1.5t-18 6.5t-13.5 16t-7.5 29l-4 42q-2 21 0 33t8.5 18.5t18 8t29.5 1.5
h493q18 0 29.5 -1.5t18 -8t8.5 -18.5t0 -33l-4 -42q-2 -18 -7.5 -29t-13.5 -16t-18 -6.5t-20 -1.5h-134zM291 -324q-17 -27 -33.5 -29.5t-36.5 -2.5q-7 0 -10 4t-3.5 10t0.5 12t2 10l52 217q1 6 16 10t35.5 6.5t41 3t33.5 0.5q10 0 23.5 -6.5t13.5 -23.5q0 -5 -3 -11z" />
    <glyph glyph-name="uni0163" unicode="&#x163;" horiz-adv-x="448" 
d="M71 527q6 49 22 78t38 44t47.5 19t49.5 4q19 0 29 -3t14 -14.5t4 -34v-62.5v-31h98q10 0 20 -2t18 -8.5t13 -20t5 -35.5v-37q0 -20 -5.5 -32t-14 -18t-18 -7.5t-18.5 -1.5h-101q-1 -39 -1 -78.5v-80.5q0 -58 52 -58q24 0 44 4q22 5 36.5 0t20.5 -33l12 -54q5 -27 -4 -39
t-35 -20q-25 -8 -61.5 -12t-71.5 -4q-92 0 -140.5 42.5t-48.5 124.5q0 59 -1 109.5t-3 98.5h-15q-9 0 -18.5 1.5t-18 7.5t-14 18t-5.5 32v37q0 22 5 35.5t13 20t18 8.5t20 2h15zM201 -324q-17 -27 -33.5 -29.5t-36.5 -2.5q-7 0 -10 4t-3.5 10t0.5 12t2 10l52 217q1 6 16 10
t35.5 6.5t41 3t33.5 0.5q10 0 23.5 -6.5t13.5 -23.5q0 -5 -3 -11z" />
    <glyph glyph-name="Tcaron" unicode="&#x164;" horiz-adv-x="627" 
d="M419 564q-1 -45 -2 -87.5t-1 -91.5v-269q0 -43 -3 -66.5t-14.5 -34.5t-34.5 -13t-63 -2q-30 0 -47 2.5t-25.5 14t-10.5 35t-2 64.5v269q0 14 -0.5 35t-1.5 45t-1.5 49.5t-1.5 49.5h-137q-10 0 -20 1.5t-18 6.5t-13.5 16t-7.5 29l-4 42q-2 21 0 33t8.5 18.5t18 8t29.5 1.5
h493q18 0 29.5 -1.5t18 -8t8.5 -18.5t0 -33l-4 -42q-2 -18 -7.5 -29t-13.5 -16t-18 -6.5t-20 -1.5h-134zM314 902l101 50q25 12 35.5 6.5t21.5 -22.5q6 -9 9 -15t1.5 -12.5t-7.5 -14.5t-19 -19l-123 -114q-8 -7 -19 -7t-19 7l-123 114q-26 22 -27 33t11 28q11 16 21.5 22
t35.5 -6z" />
    <glyph glyph-name="tcaron" unicode="&#x165;" horiz-adv-x="724" 
d="M71 527q6 49 22 78t38 44t47.5 19t49.5 4q19 0 29 -3t14 -14.5t4 -34v-62.5v-31h98q10 0 20 -2t18 -8.5t13 -20t5 -35.5v-37q0 -20 -5.5 -32t-14 -18t-18 -7.5t-18.5 -1.5h-101q-1 -39 -1 -78.5v-80.5q0 -58 52 -58q24 0 44 4q22 5 36.5 0t20.5 -33l12 -54q5 -27 -4 -39
t-35 -20q-25 -8 -61.5 -12t-71.5 -4q-92 0 -140.5 42.5t-48.5 124.5q0 59 -1 109.5t-3 98.5h-15q-9 0 -18.5 1.5t-18 7.5t-14 18t-5.5 32v37q0 22 5 35.5t13 20t18 8.5t20 2h15zM503 600q6 37 14 62t21.5 41t35 23t55.5 7q82 0 95.5 -34t-48.5 -117l-107 -143
q-13 -17 -28.5 -20.5t-32.5 0.5q-20 5 -25.5 15.5t-2.5 29.5z" />
    <glyph glyph-name="Tbar" unicode="&#x166;" horiz-adv-x="627" 
d="M416 285v-169q0 -43 -3 -66.5t-14.5 -34.5t-34.5 -13t-63 -2q-30 0 -47 2.5t-25.5 14t-10.5 35t-2 64.5v169h-49q-14 0 -22 11t-8 23t0.5 28.5t3.5 31.5t9 25.5t16 10.5h50l-5 149h-137q-10 0 -20 1.5t-18 6.5t-13.5 16t-7.5 29l-4 42q-2 21 0 33t8.5 18.5t18 8t29.5 1.5
h493q18 0 29.5 -1.5t18 -8t8.5 -18.5t0 -33l-4 -42q-2 -18 -7.5 -29t-13.5 -16t-18 -6.5t-20 -1.5h-134q-1 -38 -2 -74t-1 -75h45q14 0 22.5 -11t8.5 -23t-1.5 -28.5t-5.5 -31.5t-10.5 -25.5t-16.5 -10.5h-42z" />
    <glyph glyph-name="tbar" unicode="&#x167;" horiz-adv-x="448" 
d="M71 527q6 49 22 78t38 44t47.5 19t49.5 4q19 0 29 -3t14 -14.5t4 -34v-62.5v-31h98q10 0 20 -2t18 -8.5t13 -20t5 -35.5v-37q0 -20 -5.5 -32t-14 -18t-18 -7.5t-18.5 -1.5h-101v-19h54q14 0 22.5 -11t8.5 -23t-1.5 -28.5t-5.5 -31.5t-10.5 -25.5t-16.5 -10.5h-52v-10
q0 -58 52 -58q24 0 44 4q22 5 36.5 0t20.5 -33l12 -54q5 -27 -4 -39t-35 -20q-25 -8 -61.5 -12t-71.5 -4q-92 0 -140.5 42.5t-48.5 124.5v30t-1 29h-42q-14 0 -22 11t-8 23t0.5 28.5t3.5 31.5t9 25.5t16 10.5h40v19h-15q-9 0 -18.5 1.5t-18 7.5t-14 18t-5.5 32v37
q0 22 5 35.5t13 20t18 8.5t20 2h15z" />
    <glyph glyph-name="Utilde" unicode="&#x168;" horiz-adv-x="700" 
d="M242 267q0 -59 27.5 -89.5t81.5 -30.5t80.5 30.5t26.5 89.5q0 49 -0.5 91.5t-1 83.5t-1 82.5t-0.5 89.5q0 39 1.5 60.5t10 31.5t26.5 12t50 2q46 0 70.5 -1.5t36 -7.5t13.5 -19t2 -36q0 -2 -0.5 -28.5t-1 -65t-1.5 -84.5t-2 -88.5t-1.5 -76t-0.5 -46.5q-1 -60 -19.5 -111
t-55.5 -88t-94 -57.5t-136 -20.5q-65 0 -121 15.5t-97.5 48.5t-66.5 85.5t-26 127.5q0 14 -0.5 50t-1.5 82.5t-2 96.5t-1.5 92t-1 70.5t-0.5 31.5q0 20 30 25t94 5q31 0 49 -2t26 -12.5t10 -32.5t2 -61q0 -45 -0.5 -86.5t-1.5 -82.5t-1.5 -84t-0.5 -92zM390 766
q-10 0 -29 6.5t-39 12t-37 5t-23 -13.5q0 -2 -3 -5t-11.5 -4t-24 2t-41.5 14q-23 10 -18 33q10 55 43.5 87t77.5 30q15 -1 38.5 -9t46.5 -13.5t42 -5t26 17.5q0 2 3 5t11.5 4t24 -2t41.5 -14q22 -11 18 -33q-6 -32 -20 -55t-34 -37t-43.5 -20.5t-48.5 -4.5z" />
    <glyph glyph-name="utilde" unicode="&#x169;" 
d="M577 423q0 -62 -3.5 -132.5t-3.5 -166.5v-12q0 -41 -3 -63.5t-14.5 -33t-34.5 -13t-63 -2.5q-29 0 -46 2.5t-25.5 13.5t-11 33.5t-2.5 62.5v11q-7 -34 -25 -59t-42 -41.5t-52 -24.5t-54 -8q-31 0 -60 7t-51 27.5t-35 58t-13 98.5q0 19 0.5 37.5t1.5 38.5q-1 28 -3 55.5
t-3.5 52t-2.5 44.5t-1 34q0 30 2 47t13.5 25.5t35.5 10t69 1.5q34 0 53 -2t28 -12t11 -31t2 -59v-232q0 -52 42 -52q30 0 54 32.5t27 99.5q-1 42 -2 79t-1 73q0 38 2.5 59t14 31t35.5 12t67 2q34 0 53 -2t28 -12t11 -31t2 -59zM347 555q-10 0 -29 6.5t-39 12t-37 5
t-23 -13.5q0 -2 -3 -5t-11.5 -4t-24 2t-41.5 14q-23 10 -18 33q10 55 43.5 87t77.5 30q15 -1 38.5 -9t46.5 -13.5t42 -5t26 17.5q0 2 3 5t11.5 4t24 -2t41.5 -14q22 -11 18 -33q-6 -32 -20 -55t-34 -37t-43.5 -20.5t-48.5 -4.5z" />
    <glyph glyph-name="Umacron" unicode="&#x16a;" horiz-adv-x="700" 
d="M242 267q0 -59 27.5 -89.5t81.5 -30.5t80.5 30.5t26.5 89.5q0 49 -0.5 91.5t-1 83.5t-1 82.5t-0.5 89.5q0 39 1.5 60.5t10 31.5t26.5 12t50 2q46 0 70.5 -1.5t36 -7.5t13.5 -19t2 -36q0 -2 -0.5 -28.5t-1 -65t-1.5 -84.5t-2 -88.5t-1.5 -76t-0.5 -46.5q-1 -60 -19.5 -111
t-55.5 -88t-94 -57.5t-136 -20.5q-65 0 -121 15.5t-97.5 48.5t-66.5 85.5t-26 127.5q0 14 -0.5 50t-1.5 82.5t-2 96.5t-1.5 92t-1 70.5t-0.5 31.5q0 20 30 25t94 5q31 0 49 -2t26 -12.5t10 -32.5t2 -61q0 -45 -0.5 -86.5t-1.5 -82.5t-1.5 -84t-0.5 -92zM203 770
q-14 0 -22 11t-8 23t0.5 28.5t3.5 31.5t9 25.5t16 10.5h295q14 0 22.5 -11t8.5 -23t-1.5 -28.5t-5.5 -31.5t-10.5 -25.5t-16.5 -10.5h-291z" />
    <glyph glyph-name="umacron" unicode="&#x16b;" 
d="M577 423q0 -62 -3.5 -132.5t-3.5 -166.5v-12q0 -41 -3 -63.5t-14.5 -33t-34.5 -13t-63 -2.5q-29 0 -46 2.5t-25.5 13.5t-11 33.5t-2.5 62.5v11q-7 -34 -25 -59t-42 -41.5t-52 -24.5t-54 -8q-31 0 -60 7t-51 27.5t-35 58t-13 98.5q0 19 0.5 37.5t1.5 38.5q-1 28 -3 55.5
t-3.5 52t-2.5 44.5t-1 34q0 30 2 47t13.5 25.5t35.5 10t69 1.5q34 0 53 -2t28 -12t11 -31t2 -59v-232q0 -52 42 -52q30 0 54 32.5t27 99.5q-1 42 -2 79t-1 73q0 38 2.5 59t14 31t35.5 12t67 2q34 0 53 -2t28 -12t11 -31t2 -59zM160 559q-14 0 -22 11t-8 23t0.5 28.5
t3.5 31.5t9 25.5t16 10.5h295q14 0 22.5 -11t8.5 -23t-1.5 -28.5t-5.5 -31.5t-10.5 -25.5t-16.5 -10.5h-291z" />
    <glyph glyph-name="Ubreve" unicode="&#x16c;" horiz-adv-x="700" 
d="M242 267q0 -59 27.5 -89.5t81.5 -30.5t80.5 30.5t26.5 89.5q0 49 -0.5 91.5t-1 83.5t-1 82.5t-0.5 89.5q0 39 1.5 60.5t10 31.5t26.5 12t50 2q46 0 70.5 -1.5t36 -7.5t13.5 -19t2 -36q0 -2 -0.5 -28.5t-1 -65t-1.5 -84.5t-2 -88.5t-1.5 -76t-0.5 -46.5q-1 -60 -19.5 -111
t-55.5 -88t-94 -57.5t-136 -20.5q-65 0 -121 15.5t-97.5 48.5t-66.5 85.5t-26 127.5q0 14 -0.5 50t-1.5 82.5t-2 96.5t-1.5 92t-1 70.5t-0.5 31.5q0 20 30 25t94 5q31 0 49 -2t26 -12.5t10 -32.5t2 -61q0 -45 -0.5 -86.5t-1.5 -82.5t-1.5 -84t-0.5 -92zM350 760
q-35 0 -68.5 10t-59.5 30.5t-41.5 51.5t-15.5 72q0 20 3 31t10.5 16t20.5 6t33 1t34.5 -0.5t23.5 -4.5t13.5 -12.5t4.5 -24.5q0 -20 12.5 -30t29.5 -10t29.5 10t12.5 30q0 16 4.5 24.5t13.5 12.5t23.5 4.5t34.5 0.5t33 -1t20.5 -6t10.5 -16t3 -31q0 -41 -15.5 -72
t-41.5 -51.5t-59.5 -30.5t-68.5 -10z" />
    <glyph glyph-name="ubreve" unicode="&#x16d;" 
d="M577 423q0 -62 -3.5 -132.5t-3.5 -166.5v-12q0 -41 -3 -63.5t-14.5 -33t-34.5 -13t-63 -2.5q-29 0 -46 2.5t-25.5 13.5t-11 33.5t-2.5 62.5v11q-7 -34 -25 -59t-42 -41.5t-52 -24.5t-54 -8q-31 0 -60 7t-51 27.5t-35 58t-13 98.5q0 19 0.5 37.5t1.5 38.5q-1 28 -3 55.5
t-3.5 52t-2.5 44.5t-1 34q0 30 2 47t13.5 25.5t35.5 10t69 1.5q34 0 53 -2t28 -12t11 -31t2 -59v-232q0 -52 42 -52q30 0 54 32.5t27 99.5q-1 42 -2 79t-1 73q0 38 2.5 59t14 31t35.5 12t67 2q34 0 53 -2t28 -12t11 -31t2 -59zM307 549q-35 0 -68.5 10t-59.5 30.5
t-41.5 51.5t-15.5 72q0 20 3 31t10.5 16t20.5 6t33 1t34.5 -0.5t23.5 -4.5t13.5 -12.5t4.5 -24.5q0 -20 12.5 -30t29.5 -10t29.5 10t12.5 30q0 16 4.5 24.5t13.5 12.5t23.5 4.5t34.5 0.5t33 -1t20.5 -6t10.5 -16t3 -31q0 -41 -15.5 -72t-41.5 -51.5t-59.5 -30.5t-68.5 -10z
" />
    <glyph glyph-name="Uring" unicode="&#x16e;" horiz-adv-x="700" 
d="M242 267q0 -59 27.5 -89.5t81.5 -30.5t80.5 30.5t26.5 89.5q0 49 -0.5 91.5t-1 83.5t-1 82.5t-0.5 89.5q0 39 1.5 60.5t10 31.5t26.5 12t50 2q46 0 70.5 -1.5t36 -7.5t13.5 -19t2 -36q0 -2 -0.5 -28.5t-1 -65t-1.5 -84.5t-2 -88.5t-1.5 -76t-0.5 -46.5q-1 -60 -19.5 -111
t-55.5 -88t-94 -57.5t-136 -20.5q-65 0 -121 15.5t-97.5 48.5t-66.5 85.5t-26 127.5q0 14 -0.5 50t-1.5 82.5t-2 96.5t-1.5 92t-1 70.5t-0.5 31.5q0 20 30 25t94 5q31 0 49 -2t26 -12.5t10 -32.5t2 -61q0 -45 -0.5 -86.5t-1.5 -82.5t-1.5 -84t-0.5 -92zM348 771
q-41 0 -70.5 11.5t-48 30.5t-27.5 42.5t-9 47.5t9 48t28 43t48.5 30.5t69.5 11.5t69.5 -11.5t49 -30.5t28.5 -43t9 -49q0 -24 -9.5 -47.5t-29 -42t-48.5 -30t-69 -11.5zM348 869q22 0 31 12t9 24t-9 24.5t-31 12.5q-21 0 -30 -12.5t-9 -24.5q0 -13 9 -24.5t30 -11.5z" />
    <glyph glyph-name="uring" unicode="&#x16f;" 
d="M577 423q0 -62 -3.5 -132.5t-3.5 -166.5v-12q0 -41 -3 -63.5t-14.5 -33t-34.5 -13t-63 -2.5q-29 0 -46 2.5t-25.5 13.5t-11 33.5t-2.5 62.5v11q-7 -34 -25 -59t-42 -41.5t-52 -24.5t-54 -8q-31 0 -60 7t-51 27.5t-35 58t-13 98.5q0 19 0.5 37.5t1.5 38.5q-1 28 -3 55.5
t-3.5 52t-2.5 44.5t-1 34q0 30 2 47t13.5 25.5t35.5 10t69 1.5q34 0 53 -2t28 -12t11 -31t2 -59v-232q0 -52 42 -52q30 0 54 32.5t27 99.5q-1 42 -2 79t-1 73q0 38 2.5 59t14 31t35.5 12t67 2q34 0 53 -2t28 -12t11 -31t2 -59zM305 560q-41 0 -70.5 11.5t-48 30.5
t-27.5 42.5t-9 47.5t9 48t28 43t48.5 30.5t69.5 11.5t69.5 -11.5t49 -30.5t28.5 -43t9 -49q0 -24 -9.5 -47.5t-29 -42t-48.5 -30t-69 -11.5zM305 658q22 0 31 12t9 24t-9 24.5t-31 12.5q-21 0 -30 -12.5t-9 -24.5q0 -13 9 -24.5t30 -11.5z" />
    <glyph glyph-name="Uhungarumlaut" unicode="&#x170;" horiz-adv-x="700" 
d="M242 267q0 -59 27.5 -89.5t81.5 -30.5t80.5 30.5t26.5 89.5q0 49 -0.5 91.5t-1 83.5t-1 82.5t-0.5 89.5q0 39 1.5 60.5t10 31.5t26.5 12t50 2q46 0 70.5 -1.5t36 -7.5t13.5 -19t2 -36q0 -2 -0.5 -28.5t-1 -65t-1.5 -84.5t-2 -88.5t-1.5 -76t-0.5 -46.5q-1 -60 -19.5 -111
t-55.5 -88t-94 -57.5t-136 -20.5q-65 0 -121 15.5t-97.5 48.5t-66.5 85.5t-26 127.5q0 14 -0.5 50t-1.5 82.5t-2 96.5t-1.5 92t-1 70.5t-0.5 31.5q0 20 30 25t94 5q31 0 49 -2t26 -12.5t10 -32.5t2 -61q0 -45 -0.5 -86.5t-1.5 -82.5t-1.5 -84t-0.5 -92zM304 996
q6 12 17.5 20.5t26.5 12t32 0.5t34 -14q18 -11 27.5 -26t11.5 -30.5t-2.5 -29.5t-14.5 -22l-162 -131q-14 -11 -25.5 -14t-18.5 1t-8.5 14.5t5.5 27.5zM505 996q6 12 17.5 20.5t26.5 12t32 0.5t34 -14q18 -11 27.5 -26t11.5 -30.5t-2.5 -29.5t-14.5 -22l-162 -131
q-14 -11 -25.5 -14t-18.5 1t-8.5 14.5t5.5 27.5z" />
    <glyph glyph-name="uhungarumlaut" unicode="&#x171;" 
d="M577 423q0 -62 -3.5 -132.5t-3.5 -166.5v-12q0 -41 -3 -63.5t-14.5 -33t-34.5 -13t-63 -2.5q-29 0 -46 2.5t-25.5 13.5t-11 33.5t-2.5 62.5v11q-7 -34 -25 -59t-42 -41.5t-52 -24.5t-54 -8q-31 0 -60 7t-51 27.5t-35 58t-13 98.5q0 19 0.5 37.5t1.5 38.5q-1 28 -3 55.5
t-3.5 52t-2.5 44.5t-1 34q0 30 2 47t13.5 25.5t35.5 10t69 1.5q34 0 53 -2t28 -12t11 -31t2 -59v-232q0 -52 42 -52q30 0 54 32.5t27 99.5q-1 42 -2 79t-1 73q0 38 2.5 59t14 31t35.5 12t67 2q34 0 53 -2t28 -12t11 -31t2 -59zM462 785q6 12 17.5 20.5t26.5 12t32 0.5
t34 -14q18 -11 27.5 -26t11.5 -30.5t-2.5 -29.5t-14.5 -22l-162 -131q-14 -11 -25.5 -14t-18.5 1t-8.5 14.5t5.5 27.5zM261 785q6 12 17.5 20.5t26.5 12t32 0.5t34 -14q18 -11 27.5 -26t11.5 -30.5t-2.5 -29.5t-14.5 -22l-162 -131q-14 -11 -25.5 -14t-18.5 1t-8.5 14.5
t5.5 27.5z" />
    <glyph glyph-name="Uogonek" unicode="&#x172;" horiz-adv-x="700" 
d="M523 -139q8 6 11.5 2t-1.5 -12q-32 -44 -74.5 -70t-102.5 -26q-66 0 -104 31t-38 79q0 16 5 32.5t17 33t32.5 32t51.5 28.5q-59 3 -109 20.5t-87.5 51t-59 84t-22.5 120.5q0 14 -0.5 50t-1.5 82.5t-2 96.5t-1.5 92t-1 70.5t-0.5 31.5q0 20 30 25t94 5q31 0 49 -2
t26 -12.5t10 -32.5t2 -61q0 -45 -0.5 -86.5t-1.5 -82.5t-1.5 -84t-0.5 -92q0 -59 27.5 -89.5t81.5 -30.5t80.5 30.5t26.5 89.5q0 49 -0.5 91.5t-1 83.5t-1 82.5t-0.5 89.5q0 39 1.5 60.5t10 31.5t26.5 12t50 2q46 0 70.5 -1.5t36 -7.5t13.5 -19t2 -36q0 -2 -0.5 -28.5
t-1 -65t-1.5 -84.5t-2 -88.5t-1.5 -76t-0.5 -46.5q-1 -53 -15 -98.5t-42.5 -81t-72 -59t-102.5 -32.5q-17 -14 -27.5 -26t-16 -23t-7 -21t-1.5 -19q0 -13 3 -26t11 -23.5t22 -17t36 -6.5q26 0 43.5 8t33.5 19z" />
    <glyph glyph-name="uogonek" unicode="&#x173;" 
d="M590 -128q8 6 11.5 2t-1.5 -12q-32 -44 -74.5 -70t-102.5 -26q-66 0 -104 31t-38 79q0 16 5.5 33.5t18.5 34.5t35 33t56 29q-17 8 -21.5 31t-4.5 75v11q-7 -34 -25 -59t-42 -41.5t-52 -24.5t-54 -8q-31 0 -60 7t-51 27.5t-35 58t-13 98.5q0 19 0.5 37.5t1.5 38.5
q-1 28 -3 55.5t-3.5 52t-2.5 44.5t-1 34q0 30 2 47t13.5 25.5t35.5 10t69 1.5q34 0 53 -2t28 -12t11 -31t2 -59v-232q0 -52 42 -52q30 0 54 32.5t27 99.5q-1 42 -2 79t-1 73q0 38 2.5 59t14 31t35.5 12t67 2q34 0 53 -2t28 -12t11 -31t2 -59q0 -62 -3.5 -132.5t-3.5 -166.5
v-12q0 -36 -2.5 -58t-11 -34t-25.5 -16t-46 -4q-29 -25 -36.5 -45t-7.5 -37q0 -13 3 -26t11 -23.5t22 -17t36 -6.5q26 0 43.5 8t33.5 19z" />
    <glyph glyph-name="Wcircumflex" unicode="&#x174;" horiz-adv-x="1039" 
d="M718 204q6 0 15.5 18t20 49t21 71.5t18.5 86t13 92.5t5 91q0 39 2 61t11 32.5t28 12.5t53 2q43 0 66 -1.5t33.5 -10t12.5 -26.5t2 -51q0 -102 -15 -189t-39 -158.5t-54.5 -126.5t-60.5 -94q-17 -21 -31 -33.5t-28 -19t-29 -8.5t-34 -2q-26 0 -44 2t-31 9t-24 18.5
t-24 31.5q-24 37 -48.5 81.5t-36.5 101.5q-15 -57 -41.5 -101t-52.5 -80q-14 -19 -25.5 -31.5t-25 -19.5t-30.5 -9.5t-41 -2.5q-21 0 -37 2t-30 8.5t-27.5 18.5t-28.5 32q-29 38 -57.5 93.5t-51.5 127t-37.5 159t-14.5 190.5q0 32 2 50t12.5 26.5t34 10.5t66.5 2
q33 0 52 -2.5t28.5 -13t11.5 -32t2 -60.5q0 -44 5 -91t13.5 -92.5t18.5 -86t20.5 -71.5t20 -49t16.5 -18q10 0 25.5 39t30.5 99t25.5 131.5t10.5 137.5q0 39 2 61t13 32.5t34.5 13t65.5 2.5q31 0 49.5 -2t28.5 -10.5t13 -26t3 -49.5q0 -44 4.5 -93t12.5 -96.5t18 -90.5
t20.5 -76t20.5 -52.5t18 -19.5zM421 772q-25 -12 -35.5 -6t-21.5 22q-6 9 -9 15t-2 12.5t7.5 14.5t19.5 19l123 124q2 2 7.5 4.5t11.5 2.5t11.5 -2.5t7.5 -4.5l123 -124q25 -23 26.5 -33.5t-10.5 -27.5q-11 -17 -21.5 -22.5t-35.5 6.5l-101 50z" />
    <glyph glyph-name="wcircumflex" unicode="&#x175;" horiz-adv-x="895" 
d="M604 179q3 0 11.5 23.5t18.5 62.5t17.5 90.5t8.5 108.5q0 23 1.5 36t8.5 19t21.5 7t40.5 1q45 0 71.5 -1.5t40 -8t17.5 -19.5t4 -37q0 -60 -13.5 -120t-33.5 -113.5t-43 -97t-43 -71.5q-15 -21 -29 -33t-28.5 -17.5t-31.5 -7t-38 -1.5q-22 0 -39 1.5t-31.5 7.5t-26.5 18
t-24 33q-10 19 -18 42.5t-18 58.5q-2 -4 -5.5 -16t-8 -27t-10 -30.5t-11.5 -26.5q-11 -22 -24 -34.5t-27.5 -18.5t-31 -7t-34.5 -1q-23 0 -40.5 1.5t-32.5 7t-29 17t-29 32.5q-19 25 -42.5 67.5t-44 96.5t-34.5 116.5t-14 126.5q0 22 3 34.5t15 18.5t35 7.5t63 1.5
q33 0 51 -1.5t26.5 -7.5t10.5 -18.5t2 -35.5q1 -60 9 -112.5t17 -90.5t17.5 -60t10.5 -22t10.5 23.5t18.5 63t17.5 91t8.5 107.5q0 23 1.5 36t8.5 19t22.5 7t43.5 1q49 0 75 -1.5t37.5 -9t13 -22t3.5 -41.5q3 -68 11.5 -119t17 -85.5t16 -52t9.5 -17.5zM351 582
q-25 -12 -35.5 -6t-21.5 22q-6 9 -9 15t-2 12.5t7.5 14.5t19.5 19l123 124q2 2 7.5 4.5t11.5 2.5t11.5 -2.5t7.5 -4.5l123 -124q25 -23 26.5 -33.5t-10.5 -27.5q-11 -17 -21.5 -22.5t-35.5 6.5l-101 50z" />
    <glyph glyph-name="Ycircumflex" unicode="&#x176;" horiz-adv-x="692" 
d="M346 381q11 0 31.5 15t40.5 44.5t34.5 72t14.5 96.5q0 40 2 62.5t11.5 33.5t29.5 13t55 2q43 0 67 -2t35 -10.5t13 -27t2 -51.5q0 -81 -21.5 -146.5t-56 -116t-76.5 -85t-83 -54.5v-109q0 -43 -3 -66.5t-14.5 -34.5t-34.5 -13t-63 -2q-30 0 -47 2.5t-25.5 14t-10.5 35
t-2 64.5v110q-41 20 -83 54.5t-75.5 84.5t-55 115.5t-21.5 146.5q0 33 2 51.5t13 27t34.5 10.5t67.5 2q35 0 55 -2t29.5 -13t11.5 -33.5t2 -62.5q0 -54 14.5 -96.5t34.5 -72t40.5 -44.5t31.5 -15zM232 772q-25 -12 -35.5 -6t-21.5 22q-6 9 -9 15t-2 12.5t7.5 14.5t19.5 19
l123 124q2 2 7.5 4.5t11.5 2.5t11.5 -2.5t7.5 -4.5l123 -124q25 -23 26.5 -33.5t-10.5 -27.5q-11 -17 -21.5 -22.5t-35.5 6.5l-101 50z" />
    <glyph glyph-name="ycircumflex" unicode="&#x177;" horiz-adv-x="581" 
d="M346 425q0 37 2 58t11 30.5t28 11.5t53 2q42 0 64.5 -1.5t33 -10t12 -25t1.5 -46.5q0 -62 -3.5 -126t-11.5 -128q-12 -89 -35 -171t-64.5 -144.5t-106 -99.5t-158.5 -37q-37 0 -73 5.5t-68 14.5q-28 8 -36 18t-1 38l17 67q8 29 23.5 32t29.5 0q15 -3 39 -7t47 -4
q40 0 66.5 11t43 32.5t26.5 52.5t18 72q-18 -28 -34 -44t-30 -24t-26 -10t-21 -2q-41 0 -69.5 20t-47 54.5t-28.5 80t-14.5 96t-5.5 102.5t-1 101q0 30 1.5 46.5t12 25t33 10t64.5 1.5q34 0 53.5 -2t28.5 -11.5t11 -30.5t2 -58v-32q0 -29 1.5 -69t7.5 -77t16.5 -62.5
t28.5 -25.5q17 0 28.5 24t18 59.5t9.5 76.5t3 74v32zM190 561q-25 -12 -35.5 -6t-21.5 22q-6 9 -9 15t-2 12.5t7.5 14.5t19.5 19l123 124q2 2 7.5 4.5t11.5 2.5t11.5 -2.5t7.5 -4.5l123 -124q25 -23 26.5 -33.5t-10.5 -27.5q-11 -17 -21.5 -22.5t-35.5 6.5l-101 50z" />
    <glyph glyph-name="Ydieresis" unicode="&#x178;" horiz-adv-x="692" 
d="M346 381q11 0 31.5 15t40.5 44.5t34.5 72t14.5 96.5q0 40 2 62.5t11.5 33.5t29.5 13t55 2q43 0 67 -2t35 -10.5t13 -27t2 -51.5q0 -81 -21.5 -146.5t-56 -116t-76.5 -85t-83 -54.5v-109q0 -43 -3 -66.5t-14.5 -34.5t-34.5 -13t-63 -2q-30 0 -47 2.5t-25.5 14t-10.5 35
t-2 64.5v110q-41 20 -83 54.5t-75.5 84.5t-55 115.5t-21.5 146.5q0 33 2 51.5t13 27t34.5 10.5t67.5 2q35 0 55 -2t29.5 -13t11.5 -33.5t2 -62.5q0 -54 14.5 -96.5t34.5 -72t40.5 -44.5t31.5 -15zM86 869q0 38 7 60t21 33.5t34.5 14.5t47.5 3q34 0 54 -2.5t30.5 -10
t13.5 -22t3 -38.5v-26q0 -38 -7 -60t-21 -33.5t-34.5 -14.5t-47.5 -3q-34 0 -54 2.5t-30.5 10t-13.5 22t-3 38.5v26zM362 869q0 38 7 60t21 33.5t34.5 14.5t47.5 3q34 0 54 -2.5t30.5 -10t13.5 -22t3 -38.5v-26q0 -38 -7 -60t-21 -33.5t-34.5 -14.5t-47.5 -3q-34 0 -54 2.5
t-30.5 10t-13.5 22t-3 38.5v26z" />
    <glyph glyph-name="Zacute" unicode="&#x179;" horiz-adv-x="604" 
d="M260 156h270q15 0 25.5 -2.5t18 -12t12 -28.5t7.5 -52q1 -21 -0.5 -33t-8 -18.5t-18 -8t-29.5 -1.5h-470q-18 0 -29.5 1.5t-18 8t-8.5 18.5t0 33q2 28 5.5 50t14.5 33l303 420h-243q-15 0 -25.5 2.5t-18 12t-11.5 28.5t-7 52q-2 21 0 33t8 18.5t17.5 8t29.5 1.5h441
q18 0 29.5 -1.5t18 -8t8 -18.5t0.5 -33q-2 -19 -3 -40.5t-12 -37.5zM353 999q6 12 17.5 20.5t26.5 12t32 0.5t34 -14q18 -11 27.5 -26t11.5 -30.5t-2.5 -29.5t-14.5 -22l-162 -131q-14 -11 -25.5 -14t-18.5 1t-8.5 14.5t5.5 27.5z" />
    <glyph glyph-name="zacute" unicode="&#x17a;" horiz-adv-x="514" 
d="M254 151h50q38 0 72 0.5t55 1.5q19 1 30 -2t17 -14.5t8.5 -34t6.5 -60.5q2 -20 -5.5 -31t-30.5 -14q-15 -2 -38.5 -3.5t-51 -2.5t-57.5 -1h-59q-57 0 -109 1t-84 6q-43 6 -37 47q1 12 2.5 27t3.5 29t5 25.5t8 16.5l215 234h-48q-35 0 -64.5 -0.5t-50.5 -1.5
q-20 -1 -30.5 1.5t-16 14t-8.5 34t-8 61.5q-3 20 5.5 31t31.5 14q32 5 84 6t108 1t108.5 -1t83.5 -6q23 -3 31 -15t5 -32q-1 -8 -1.5 -21.5t-2.5 -28.5t-6.5 -29.5t-14.5 -24.5zM308 788q6 12 17.5 20.5t26.5 12t32 0.5t34 -14q18 -11 27.5 -26t11.5 -30.5t-2.5 -29.5
t-14.5 -22l-162 -131q-14 -11 -25.5 -14t-18.5 1t-8.5 14.5t5.5 27.5z" />
    <glyph glyph-name="Zdotaccent" unicode="&#x17b;" horiz-adv-x="604" 
d="M260 156h270q15 0 25.5 -2.5t18 -12t12 -28.5t7.5 -52q1 -21 -0.5 -33t-8 -18.5t-18 -8t-29.5 -1.5h-470q-18 0 -29.5 1.5t-18 8t-8.5 18.5t0 33q2 28 5.5 50t14.5 33l303 420h-243q-15 0 -25.5 2.5t-18 12t-11.5 28.5t-7 52q-2 21 0 33t8 18.5t17.5 8t29.5 1.5h441
q18 0 29.5 -1.5t18 -8t8 -18.5t0.5 -33q-2 -19 -3 -40.5t-12 -37.5zM198 868q0 38 7 60t21 33.5t34.5 14.5t47.5 3q34 0 54 -2.5t30.5 -10t13.5 -22t3 -38.5v-26q0 -38 -7 -60t-21 -33.5t-34.5 -14.5t-47.5 -3q-34 0 -54 2.5t-30.5 10t-13.5 22t-3 38.5v26z" />
    <glyph glyph-name="zdotaccent" unicode="&#x17c;" horiz-adv-x="514" 
d="M254 151h50q38 0 72 0.5t55 1.5q19 1 30 -2t17 -14.5t8.5 -34t6.5 -60.5q2 -20 -5.5 -31t-30.5 -14q-15 -2 -38.5 -3.5t-51 -2.5t-57.5 -1h-59q-57 0 -109 1t-84 6q-43 6 -37 47q1 12 2.5 27t3.5 29t5 25.5t8 16.5l215 234h-48q-35 0 -64.5 -0.5t-50.5 -1.5
q-20 -1 -30.5 1.5t-16 14t-8.5 34t-8 61.5q-3 20 5.5 31t31.5 14q32 5 84 6t108 1t108.5 -1t83.5 -6q23 -3 31 -15t5 -32q-1 -8 -1.5 -21.5t-2.5 -28.5t-6.5 -29.5t-14.5 -24.5zM153 657q0 38 7 60t21 33.5t34.5 14.5t47.5 3q34 0 54 -2.5t30.5 -10t13.5 -22t3 -38.5v-26
q0 -38 -7 -60t-21 -33.5t-34.5 -14.5t-47.5 -3q-34 0 -54 2.5t-30.5 10t-13.5 22t-3 38.5v26z" />
    <glyph glyph-name="Zcaron" unicode="&#x17d;" horiz-adv-x="604" 
d="M260 156h270q15 0 25.5 -2.5t18 -12t12 -28.5t7.5 -52q1 -21 -0.5 -33t-8 -18.5t-18 -8t-29.5 -1.5h-470q-18 0 -29.5 1.5t-18 8t-8.5 18.5t0 33q2 28 5.5 50t14.5 33l303 420h-243q-15 0 -25.5 2.5t-18 12t-11.5 28.5t-7 52q-2 21 0 33t8 18.5t17.5 8t29.5 1.5h441
q18 0 29.5 -1.5t18 -8t8 -18.5t0.5 -33q-2 -19 -3 -40.5t-12 -37.5zM303 902l101 50q25 12 35.5 6.5t21.5 -22.5q6 -9 9 -15t1.5 -12.5t-7.5 -14.5t-19 -19l-123 -114q-8 -7 -19 -7t-19 7l-123 114q-26 22 -27 33t11 28q11 16 21.5 22t35.5 -6z" />
    <glyph glyph-name="zcaron" unicode="&#x17e;" horiz-adv-x="514" 
d="M254 151h50q38 0 72 0.5t55 1.5q19 1 30 -2t17 -14.5t8.5 -34t6.5 -60.5q2 -20 -5.5 -31t-30.5 -14q-15 -2 -38.5 -3.5t-51 -2.5t-57.5 -1h-59q-57 0 -109 1t-84 6q-43 6 -37 47q1 12 2.5 27t3.5 29t5 25.5t8 16.5l215 234h-48q-35 0 -64.5 -0.5t-50.5 -1.5
q-20 -1 -30.5 1.5t-16 14t-8.5 34t-8 61.5q-3 20 5.5 31t31.5 14q32 5 84 6t108 1t108.5 -1t83.5 -6q23 -3 31 -15t5 -32q-1 -8 -1.5 -21.5t-2.5 -28.5t-6.5 -29.5t-14.5 -24.5zM258 691l101 50q25 12 35.5 6.5t21.5 -22.5q6 -9 9 -15t1.5 -12.5t-7.5 -14.5t-19 -19
l-123 -114q-8 -7 -19 -7t-19 7l-123 114q-26 22 -27 33t11 28q11 16 21.5 22t35.5 -6z" />
    <glyph glyph-name="florin" unicode="&#x192;" horiz-adv-x="464" 
d="M48 -72q37 0 47 36t10 115v276q-7 -1 -12.5 -1h-10.5q-14 0 -24 0.5t-17 5t-11.5 14.5t-6.5 28l-9 69q-6 43 40 49q10 2 23 3t28 2v14q0 120 56.5 175.5t181.5 55.5q24 0 53 -3.5t59 -13.5q15 -5 23.5 -9.5t12 -10.5t3 -15t-3.5 -22l-14 -74q-6 -32 -17 -38t-40 0
q-18 5 -31.5 5.5t-25.5 0.5q-20 0 -31 -4.5t-17 -11t-7.5 -14.5t-1.5 -14v-20q31 -1 57.5 -2t45.5 -4q46 -6 40 -49l-9 -69q-2 -18 -6.5 -28t-11.5 -14.5t-17 -5t-24 -0.5q-14 1 -33.5 1.5t-41.5 0.5v-277q0 -103 -16.5 -166t-45 -97t-66 -45t-80.5 -11q-32 0 -66 7.5
t-57 17.5q-19 10 -28 22t0 38l20 56q8 26 21 32.5t28 1.5q9 -3 16.5 -5t16.5 -2z" />
    <glyph glyph-name="AEacute" unicode="&#x1fc;" horiz-adv-x="1097" 
d="M741 564q10 -29 16.5 -62.5t8.5 -72.5h247q18 0 29.5 -1.5t18 -8t8.5 -18.5t0 -33l-4 -42q-2 -18 -7.5 -29t-13.5 -16t-18 -6.5t-20 -1.5h-249q-5 -28 -11.5 -57t-14.5 -60h292q18 0 29.5 -1.5t18 -8t8.5 -18.5t0 -33l-4 -42q-2 -18 -7.5 -29t-13.5 -16t-18 -6.5
t-20 -1.5h-443q-35 0 -54 2t-25 13t-1 33t19 63q4 11 7.5 22.5t6.5 22.5h-270l-16 -45q-14 -41 -23.5 -63t-22.5 -33t-33.5 -13t-55.5 -2q-39 0 -60 2t-28 10.5t-2.5 27t15.5 51.5q36 108 83.5 196.5t100.5 158.5t107 121.5t103.5 85.5t90.5 50.5t67 16.5h471
q18 0 29.5 -1.5t18 -8t8.5 -18.5t0 -33l-4 -42q-2 -18 -7.5 -29t-13.5 -16t-18 -6.5t-20 -1.5h-305zM613 974q6 12 17.5 20.5t26.5 12t32 0.5t34 -14q18 -11 27.5 -26t11.5 -30.5t-2.5 -29.5t-14.5 -22l-162 -131q-14 -11 -25.5 -14t-18.5 1t-8.5 14.5t5.5 27.5zM519 529
q-9 0 -28 -14.5t-44.5 -42.5t-55.5 -68.5t-60 -91.5h227q6 51 3.5 91.5t-9 68.5t-16 42.5t-17.5 14.5z" />
    <glyph glyph-name="aeacute" unicode="&#x1fd;" horiz-adv-x="900" 
d="M20 142q0 41 13.5 71.5t37 50.5t55.5 30t69 10q43 0 80 -8.5t61 -36.5v11q0 29 -7 47.5t-20 29.5t-30 15.5t-38 4.5q-32 0 -62 -7t-48 -12q-22 -7 -38 -2.5t-28 36.5l-18 49q-11 32 -1.5 47.5t35.5 25.5q42 16 88 24.5t108 8.5q47 0 91.5 -8t81.5 -32q65 40 168 40
q114 0 180 -57t66 -178q0 -54 -23.5 -83.5t-80.5 -29.5h-208q14 -32 40 -41t61 -9q18 0 32 1t26.5 4t26.5 7.5t33 10.5q23 8 35 3.5t21 -30.5l20 -56q6 -21 -1 -31t-31 -21q-37 -17 -81.5 -27t-102.5 -10q-97 0 -164 35t-99 105q-2 -46 -16.5 -73.5t-38.5 -42.5t-55.5 -19.5
t-67.5 -4.5q-78 0 -124 37.5t-46 114.5zM444 765q6 12 17.5 20.5t26.5 12t32 0.5t34 -14q18 -11 27.5 -26t11.5 -30.5t-2.5 -29.5t-14.5 -22l-162 -131q-14 -11 -25.5 -14t-18.5 1t-8.5 14.5t5.5 27.5zM617 392q-31 0 -50 -19.5t-25 -62.5h152q-2 44 -22 63t-55 19zM282 203
q-25 0 -38 -15.5t-13 -41.5t13 -40t38 -14t39 14t14 40t-14 41.5t-39 15.5z" />
    <glyph glyph-name="Oslashacute" unicode="&#x1fe;" horiz-adv-x="766" 
d="M220 -76q-17 0 -32 2.5t-24.5 8t-13.5 13.5t1 19l36 80q-69 44 -110 123t-41 198q0 99 29.5 168t80 112t118 62.5t143.5 19.5q23 0 44.5 -1.5t42.5 -5.5l16 35q8 19 27 27t61 8q17 0 32 -2.5t24.5 -8t13.5 -13.5t-1 -19l-35 -76q66 -41 106 -115t40 -191
q0 -99 -29.5 -170.5t-80 -117.5t-118 -68t-143.5 -22q-21 0 -41.5 2t-40.5 5l-17 -38q-8 -19 -27 -27t-61 -8zM468 1000q6 12 17.5 20.5t26.5 12t32 0.5t34 -14q18 -11 27.5 -26t11.5 -30.5t-2.5 -29.5t-14.5 -22l-162 -131q-14 -11 -25.5 -14t-18.5 1t-8.5 14.5t5.5 27.5z
M407 137q34 0 62 13t48 40t31 69t11 100q0 70 -17 116l-153 -337q5 -1 9 -1h9zM256 359q0 -73 17 -122l150 329q-4 1 -8 1h-8q-34 0 -61.5 -10.5t-47.5 -35t-31 -64.5t-11 -98z" />
    </font>
</defs>
</svg>
